{"glyphs":{"0":{"ha":1217,"x_min":37,"x_max":1217,"o":"m 1217 314 l 38 314 l 38 476 l 485 476 l 485 478 l 485 490 q 485 491 485 491 l 485 493 q 486 499 485 496 q 487 505 487 502 q 487 509 487 506 q 489 514 488 511 q 540 591 501 561 q 628 621 578 621 q 700 602 667 621 q 752 550 733 582 q 771 478 771 517 l 771 476 l 1217 476 l 1217 314 m 629 343 q 695 361 665 343 q 743 410 725 379 q 761 476 761 440 q 743 542 761 511 q 695 590 725 572 q 629 607 665 607 q 562 590 593 607 q 514 542 532 572 q 497 476 497 511 q 514 409 497 440 q 562 361 532 379 q 629 343 593 343 m 689 575 q 697 570 693 573 q 706 564 701 567 l 548 564 q 566 577 554 570 q 585 585 579 583 q 628 594 602 594 q 672 585 650 594 l 689 575 m 716 555 q 745 476 745 517 q 739 435 745 454 q 718 399 735 420 l 563 399 l 716 555 m 539 395 q 516 433 523 415 q 509 476 509 453 q 510 494 509 488 q 517 517 511 507 q 537 550 523 536 l 694 550 l 539 395 m 64 423 l 90 423 l 90 347 l 119 347 l 119 423 l 145 423 l 145 450 l 64 450 l 64 423 m 187 379 l 196 379 l 208 356 q 220 347 213 347 l 246 347 l 228 379 q 210 389 220 389 l 213 389 q 228 397 220 389 q 236 414 236 404 q 225 439 236 429 q 199 450 214 450 l 157 450 l 157 347 l 187 347 l 187 379 m 286 347 l 286 450 l 257 450 l 257 347 l 286 347 m 341 450 l 296 347 l 320 347 q 333 357 327 347 l 336 364 l 371 364 l 376 357 q 388 347 381 347 l 411 347 l 367 450 l 341 450 m 422 347 l 487 347 l 487 374 l 450 374 l 450 450 l 422 450 l 422 347 m 847 450 q 809 435 824 450 q 795 397 795 420 q 809 359 795 373 q 847 344 824 344 q 886 359 871 344 q 901 397 901 373 q 886 435 901 420 q 847 450 871 450 m 980 412 q 983 392 980 400 l 951 438 q 946 445 949 444 q 939 447 944 447 l 914 447 l 914 346 l 945 346 l 945 386 q 942 405 945 391 l 976 352 q 989 346 982 346 l 1010 346 l 1010 447 l 980 447 l 980 412 m 1030 346 l 1095 346 l 1095 373 l 1059 373 l 1059 447 l 1030 447 l 1030 346 m 1153 376 q 1155 386 1153 382 l 1192 447 l 1164 447 q 1153 441 1156 447 l 1141 421 q 1139 412 1139 417 q 1136 405 1138 408 q 1133 421 1136 413 l 1122 441 q 1110 447 1118 447 l 1083 447 l 1120 386 q 1122 376 1122 383 l 1122 346 l 1153 346 l 1153 376 m 197 421 q 205 414 205 421 q 203 408 205 411 q 198 406 201 406 l 187 406 l 187 421 l 197 421 m 847 373 q 830 379 837 373 q 823 397 823 386 q 830 414 823 407 q 847 421 837 421 q 864 414 857 421 q 870 397 870 407 q 864 379 870 386 q 847 373 857 373 m 349 398 q 352 405 350 399 q 353 417 353 411 l 355 417 q 358 398 355 404 l 364 385 l 344 385 l 349 398 m 586 364 q 550 386 568 372 l 706 386 q 689 373 691 374 q 681 369 686 372 q 672 364 676 365 q 662 362 668 364 q 649 359 656 360 q 628 356 639 356 q 586 364 604 356 m 43 218 l 50 218 l 50 247 l 78 247 l 78 254 l 50 254 l 50 277 l 84 277 l 84 285 l 43 285 l 43 218 m 121 224 q 108 230 113 224 q 102 244 102 235 l 102 285 l 95 285 l 95 244 q 102 224 95 231 q 121 217 109 217 q 141 224 133 217 q 149 244 149 232 l 149 285 l 140 285 l 140 244 q 135 229 140 234 q 121 224 130 224 m 166 218 l 202 218 l 202 225 l 174 225 l 174 285 l 166 285 l 166 218 m 217 218 l 254 218 l 254 225 l 223 225 l 223 285 l 217 285 l 217 218 m 346 285 q 343 284 345 285 q 342 282 342 284 l 321 233 q 320 226 320 230 l 319 226 q 318 233 319 230 l 296 282 q 291 285 296 285 l 286 285 l 316 218 l 323 218 l 351 285 l 346 285 m 403 218 l 403 225 l 368 225 l 368 248 l 397 248 l 397 256 l 368 256 l 368 277 l 403 277 l 403 285 l 362 285 l 362 218 l 403 218 m 426 246 l 435 246 l 455 221 q 463 218 459 218 l 467 218 l 447 245 q 444 247 447 247 l 444 247 q 455 253 450 248 q 461 265 461 258 q 455 279 461 273 q 441 285 449 285 l 417 285 l 417 218 l 426 218 l 426 246 m 472 227 q 482 220 476 223 q 493 217 488 217 q 509 222 503 217 q 514 237 514 228 q 495 257 514 252 q 484 268 484 262 q 494 278 484 278 q 506 275 500 278 q 510 277 508 274 l 511 279 q 494 285 506 285 q 481 281 486 285 q 475 268 475 276 q 493 250 475 257 q 508 237 508 244 q 504 227 508 231 q 493 224 500 224 q 479 230 486 226 q 476 230 479 231 q 473 228 474 230 l 472 227 m 536 218 l 536 285 l 530 285 l 530 218 l 536 218 m 586 285 q 561 275 571 285 q 551 251 551 265 q 561 227 551 237 q 586 217 571 217 q 611 226 601 217 q 621 251 621 236 q 611 276 621 266 q 586 285 601 285 m 680 235 q 681 230 680 231 l 646 283 q 640 285 643 285 l 634 285 l 634 218 l 642 218 l 642 270 l 641 275 l 680 220 q 682 218 680 218 l 689 218 l 689 285 l 680 285 l 680 235 m 586 224 q 567 232 576 224 q 558 251 558 240 q 566 270 558 262 q 586 278 575 278 q 605 270 597 278 q 613 251 613 262 q 605 232 613 240 q 586 224 597 224 m 441 277 q 449 274 445 277 q 453 265 453 270 q 449 257 453 261 q 441 254 445 254 l 426 254 l 426 277 l 441 277 m 1198 252 q 1196 256 1198 254 l 1178 273 l 1176 270 q 1177 264 1173 267 l 1186 255 l 727 255 l 727 248 l 1185 248 l 1177 239 q 1176 233 1174 236 l 1178 230 l 1196 248 q 1198 252 1198 249 m 514 184 q 479 170 493 184 q 464 134 464 156 q 478 99 464 113 q 514 84 492 84 q 551 99 536 84 q 566 134 566 113 q 551 170 566 155 q 514 184 536 184 m 761 100 q 800 84 780 84 q 826 93 816 84 q 836 116 836 102 q 806 149 836 143 q 796 155 796 152 q 800 158 796 158 q 806 157 801 158 q 812 155 810 155 q 825 163 821 155 l 830 172 q 817 181 825 178 q 800 184 808 184 q 776 176 786 184 q 767 155 767 168 q 775 136 767 143 q 800 123 783 129 q 806 116 806 121 q 800 111 806 111 q 791 113 795 111 q 786 116 787 115 q 778 118 783 118 q 765 111 771 118 l 761 100 m 883 134 q 897 99 883 113 q 932 84 911 84 q 954 90 944 84 q 969 104 965 96 l 963 113 q 953 117 959 117 q 944 114 947 117 q 931 111 936 111 q 916 117 922 111 q 910 134 910 124 q 916 151 910 144 q 931 158 922 158 q 939 156 936 158 q 944 154 942 155 q 952 151 947 151 q 963 155 959 151 l 969 164 q 954 178 965 172 q 932 184 944 184 q 897 170 911 184 q 883 134 883 155 m 1027 184 q 991 170 1005 184 q 976 134 976 156 q 991 99 976 113 q 1027 84 1005 84 q 1063 99 1049 84 q 1078 134 1078 113 q 1063 170 1078 156 q 1027 184 1049 184 m 116 85 l 116 113 l 89 113 q 75 108 81 113 l 113 158 q 116 170 116 162 l 116 183 l 41 183 l 41 157 l 69 157 q 78 161 75 157 l 43 111 q 38 106 40 108 q 37 99 37 103 l 37 85 l 116 85 m 196 85 l 196 113 l 157 113 l 157 122 l 189 122 l 189 146 l 157 146 l 157 157 l 196 157 l 196 183 l 130 183 l 130 85 l 196 85 m 202 157 l 228 157 l 228 85 l 256 85 l 256 157 l 279 157 l 279 183 l 202 183 l 202 157 m 313 183 l 270 85 l 292 85 q 299 88 296 85 q 304 96 302 91 l 307 102 l 342 102 l 345 96 q 351 88 346 91 q 358 85 355 85 l 380 85 l 338 183 l 313 183 m 388 85 l 417 85 l 417 119 l 449 119 l 449 143 l 417 143 l 417 157 l 455 157 l 455 183 l 388 183 l 388 85 m 640 149 q 643 131 640 137 l 614 174 q 609 181 612 179 q 601 183 607 183 l 579 183 l 579 85 l 608 85 l 608 125 q 604 142 608 134 l 605 142 l 638 91 q 649 85 642 85 l 669 85 l 669 183 l 640 183 l 640 149 m 680 157 l 704 157 l 704 85 l 733 85 l 733 157 l 759 157 l 759 183 l 680 183 l 680 157 m 1181 183 q 1170 174 1175 183 l 1153 139 q 1150 128 1150 135 l 1148 128 q 1145 139 1148 135 l 1129 174 q 1123 180 1126 178 q 1116 183 1121 183 l 1092 183 l 1092 85 l 1120 85 l 1120 128 q 1116 143 1120 134 l 1118 143 l 1136 102 q 1150 94 1139 94 q 1161 102 1157 94 l 1180 143 q 1178 136 1179 140 q 1178 128 1178 132 l 1178 85 l 1205 85 l 1205 183 l 1181 183 m 514 111 q 498 117 505 111 q 492 134 492 124 q 498 151 492 144 q 514 158 505 158 q 530 151 524 158 q 536 134 536 145 q 530 117 536 124 q 514 111 524 111 m 1027 111 q 1011 117 1018 111 q 1005 134 1005 124 q 1011 151 1005 145 q 1027 158 1018 158 q 1044 151 1036 158 q 1051 134 1051 144 q 1044 117 1051 124 q 1027 111 1036 111 m 321 134 q 324 152 324 141 l 326 152 q 329 134 326 139 l 335 120 l 316 120 l 321 134 m 844 99 q 848 88 844 93 q 859 84 852 84 q 869 88 865 84 q 873 99 873 93 q 869 110 873 105 q 859 114 865 114 q 848 110 852 114 q 844 99 844 105 z "},"1":{"ha":1217,"x_min":37,"x_max":1217,"o":"m 1217 314 l 38 314 l 38 476 l 485 476 l 485 478 l 485 490 q 485 491 485 491 l 485 493 q 486 499 485 496 q 487 505 487 502 q 487 509 487 506 q 489 514 488 511 q 540 591 501 561 q 628 621 578 621 q 700 602 667 621 q 752 550 733 582 q 771 478 771 517 l 771 476 l 1217 476 l 1217 314 m 629 343 q 695 361 665 343 q 743 410 725 379 q 761 476 761 440 q 743 542 761 511 q 695 590 725 572 q 629 607 665 607 q 562 590 593 607 q 514 542 532 572 q 497 476 497 511 q 514 409 497 440 q 562 361 532 379 q 629 343 593 343 m 689 575 q 697 570 693 573 q 706 564 701 567 l 548 564 q 566 577 554 570 q 585 585 579 583 q 628 594 602 594 q 672 585 650 594 l 689 575 m 716 555 q 745 476 745 517 q 739 435 745 454 q 718 399 735 420 l 563 399 l 716 555 m 539 395 q 516 433 523 415 q 509 476 509 453 q 510 494 509 488 q 517 517 511 507 q 537 550 523 536 l 694 550 l 539 395 m 64 423 l 90 423 l 90 347 l 119 347 l 119 423 l 145 423 l 145 450 l 64 450 l 64 423 m 187 379 l 196 379 l 208 356 q 220 347 213 347 l 246 347 l 228 379 q 210 389 220 389 l 213 389 q 228 397 220 389 q 236 414 236 404 q 225 439 236 429 q 199 450 214 450 l 157 450 l 157 347 l 187 347 l 187 379 m 286 347 l 286 450 l 257 450 l 257 347 l 286 347 m 341 450 l 296 347 l 320 347 q 333 357 327 347 l 336 364 l 371 364 l 376 357 q 388 347 381 347 l 411 347 l 367 450 l 341 450 m 422 347 l 487 347 l 487 374 l 450 374 l 450 450 l 422 450 l 422 347 m 847 450 q 809 435 824 450 q 795 397 795 420 q 809 359 795 373 q 847 344 824 344 q 886 359 871 344 q 901 397 901 373 q 886 435 901 420 q 847 450 871 450 m 980 412 q 983 392 980 400 l 951 438 q 946 445 949 444 q 939 447 944 447 l 914 447 l 914 346 l 945 346 l 945 386 q 942 405 945 391 l 976 352 q 989 346 982 346 l 1010 346 l 1010 447 l 980 447 l 980 412 m 1030 346 l 1095 346 l 1095 373 l 1059 373 l 1059 447 l 1030 447 l 1030 346 m 1153 376 q 1155 386 1153 382 l 1192 447 l 1164 447 q 1153 441 1156 447 l 1141 421 q 1139 412 1139 417 q 1136 405 1138 408 q 1133 421 1136 413 l 1122 441 q 1110 447 1118 447 l 1083 447 l 1120 386 q 1122 376 1122 383 l 1122 346 l 1153 346 l 1153 376 m 197 421 q 205 414 205 421 q 203 408 205 411 q 198 406 201 406 l 187 406 l 187 421 l 197 421 m 847 373 q 830 379 837 373 q 823 397 823 386 q 830 414 823 407 q 847 421 837 421 q 864 414 857 421 q 870 397 870 407 q 864 379 870 386 q 847 373 857 373 m 349 398 q 352 405 350 399 q 353 417 353 411 l 355 417 q 358 398 355 404 l 364 385 l 344 385 l 349 398 m 586 364 q 550 386 568 372 l 706 386 q 689 373 691 374 q 681 369 686 372 q 672 364 676 365 q 662 362 668 364 q 649 359 656 360 q 628 356 639 356 q 586 364 604 356 m 43 218 l 50 218 l 50 247 l 78 247 l 78 254 l 50 254 l 50 277 l 84 277 l 84 285 l 43 285 l 43 218 m 121 224 q 108 230 113 224 q 102 244 102 235 l 102 285 l 95 285 l 95 244 q 102 224 95 231 q 121 217 109 217 q 141 224 133 217 q 149 244 149 232 l 149 285 l 140 285 l 140 244 q 135 229 140 234 q 121 224 130 224 m 166 218 l 202 218 l 202 225 l 174 225 l 174 285 l 166 285 l 166 218 m 217 218 l 254 218 l 254 225 l 223 225 l 223 285 l 217 285 l 217 218 m 346 285 q 343 284 345 285 q 342 282 342 284 l 321 233 q 320 226 320 230 l 319 226 q 318 233 319 230 l 296 282 q 291 285 296 285 l 286 285 l 316 218 l 323 218 l 351 285 l 346 285 m 403 218 l 403 225 l 368 225 l 368 248 l 397 248 l 397 256 l 368 256 l 368 277 l 403 277 l 403 285 l 362 285 l 362 218 l 403 218 m 426 246 l 435 246 l 455 221 q 463 218 459 218 l 467 218 l 447 245 q 444 247 447 247 l 444 247 q 455 253 450 248 q 461 265 461 258 q 455 279 461 273 q 441 285 449 285 l 417 285 l 417 218 l 426 218 l 426 246 m 472 227 q 482 220 476 223 q 493 217 488 217 q 509 222 503 217 q 514 237 514 228 q 495 257 514 252 q 484 268 484 262 q 494 278 484 278 q 506 275 500 278 q 510 277 508 274 l 511 279 q 494 285 506 285 q 481 281 486 285 q 475 268 475 276 q 493 250 475 257 q 508 237 508 244 q 504 227 508 231 q 493 224 500 224 q 479 230 486 226 q 476 230 479 231 q 473 228 474 230 l 472 227 m 536 218 l 536 285 l 530 285 l 530 218 l 536 218 m 586 285 q 561 275 571 285 q 551 251 551 265 q 561 227 551 237 q 586 217 571 217 q 611 226 601 217 q 621 251 621 236 q 611 276 621 266 q 586 285 601 285 m 680 235 q 681 230 680 231 l 646 283 q 640 285 643 285 l 634 285 l 634 218 l 642 218 l 642 270 l 641 275 l 680 220 q 682 218 680 218 l 689 218 l 689 285 l 680 285 l 680 235 m 586 224 q 567 232 576 224 q 558 251 558 240 q 566 270 558 262 q 586 278 575 278 q 605 270 597 278 q 613 251 613 262 q 605 232 613 240 q 586 224 597 224 m 441 277 q 449 274 445 277 q 453 265 453 270 q 449 257 453 261 q 441 254 445 254 l 426 254 l 426 277 l 441 277 m 1198 252 q 1196 256 1198 254 l 1178 273 l 1176 270 q 1177 264 1173 267 l 1186 255 l 727 255 l 727 248 l 1185 248 l 1177 239 q 1176 233 1174 236 l 1178 230 l 1196 248 q 1198 252 1198 249 m 514 184 q 479 170 493 184 q 464 134 464 156 q 478 99 464 113 q 514 84 492 84 q 551 99 536 84 q 566 134 566 113 q 551 170 566 155 q 514 184 536 184 m 761 100 q 800 84 780 84 q 826 93 816 84 q 836 116 836 102 q 806 149 836 143 q 796 155 796 152 q 800 158 796 158 q 806 157 801 158 q 812 155 810 155 q 825 163 821 155 l 830 172 q 817 181 825 178 q 800 184 808 184 q 776 176 786 184 q 767 155 767 168 q 775 136 767 143 q 800 123 783 129 q 806 116 806 121 q 800 111 806 111 q 791 113 795 111 q 786 116 787 115 q 778 118 783 118 q 765 111 771 118 l 761 100 m 883 134 q 897 99 883 113 q 932 84 911 84 q 954 90 944 84 q 969 104 965 96 l 963 113 q 953 117 959 117 q 944 114 947 117 q 931 111 936 111 q 916 117 922 111 q 910 134 910 124 q 916 151 910 144 q 931 158 922 158 q 939 156 936 158 q 944 154 942 155 q 952 151 947 151 q 963 155 959 151 l 969 164 q 954 178 965 172 q 932 184 944 184 q 897 170 911 184 q 883 134 883 155 m 1027 184 q 991 170 1005 184 q 976 134 976 156 q 991 99 976 113 q 1027 84 1005 84 q 1063 99 1049 84 q 1078 134 1078 113 q 1063 170 1078 156 q 1027 184 1049 184 m 116 85 l 116 113 l 89 113 q 75 108 81 113 l 113 158 q 116 170 116 162 l 116 183 l 41 183 l 41 157 l 69 157 q 78 161 75 157 l 43 111 q 38 106 40 108 q 37 99 37 103 l 37 85 l 116 85 m 196 85 l 196 113 l 157 113 l 157 122 l 189 122 l 189 146 l 157 146 l 157 157 l 196 157 l 196 183 l 130 183 l 130 85 l 196 85 m 202 157 l 228 157 l 228 85 l 256 85 l 256 157 l 279 157 l 279 183 l 202 183 l 202 157 m 313 183 l 270 85 l 292 85 q 299 88 296 85 q 304 96 302 91 l 307 102 l 342 102 l 345 96 q 351 88 346 91 q 358 85 355 85 l 380 85 l 338 183 l 313 183 m 388 85 l 417 85 l 417 119 l 449 119 l 449 143 l 417 143 l 417 157 l 455 157 l 455 183 l 388 183 l 388 85 m 640 149 q 643 131 640 137 l 614 174 q 609 181 612 179 q 601 183 607 183 l 579 183 l 579 85 l 608 85 l 608 125 q 604 142 608 134 l 605 142 l 638 91 q 649 85 642 85 l 669 85 l 669 183 l 640 183 l 640 149 m 680 157 l 704 157 l 704 85 l 733 85 l 733 157 l 759 157 l 759 183 l 680 183 l 680 157 m 1181 183 q 1170 174 1175 183 l 1153 139 q 1150 128 1150 135 l 1148 128 q 1145 139 1148 135 l 1129 174 q 1123 180 1126 178 q 1116 183 1121 183 l 1092 183 l 1092 85 l 1120 85 l 1120 128 q 1116 143 1120 134 l 1118 143 l 1136 102 q 1150 94 1139 94 q 1161 102 1157 94 l 1180 143 q 1178 136 1179 140 q 1178 128 1178 132 l 1178 85 l 1205 85 l 1205 183 l 1181 183 m 514 111 q 498 117 505 111 q 492 134 492 124 q 498 151 492 144 q 514 158 505 158 q 530 151 524 158 q 536 134 536 145 q 530 117 536 124 q 514 111 524 111 m 1027 111 q 1011 117 1018 111 q 1005 134 1005 124 q 1011 151 1005 145 q 1027 158 1018 158 q 1044 151 1036 158 q 1051 134 1051 144 q 1044 117 1051 124 q 1027 111 1036 111 m 321 134 q 324 152 324 141 l 326 152 q 329 134 326 139 l 335 120 l 316 120 l 321 134 m 844 99 q 848 88 844 93 q 859 84 852 84 q 869 88 865 84 q 873 99 873 93 q 869 110 873 105 q 859 114 865 114 q 848 110 852 114 q 844 99 844 105 z "},"2":{"ha":1217,"x_min":37,"x_max":1217,"o":"m 1217 314 l 38 314 l 38 476 l 485 476 l 485 478 l 485 490 q 485 491 485 491 l 485 493 q 486 499 485 496 q 487 505 487 502 q 487 509 487 506 q 489 514 488 511 q 540 591 501 561 q 628 621 578 621 q 700 602 667 621 q 752 550 733 582 q 771 478 771 517 l 771 476 l 1217 476 l 1217 314 m 629 343 q 695 361 665 343 q 743 410 725 379 q 761 476 761 440 q 743 542 761 511 q 695 590 725 572 q 629 607 665 607 q 562 590 593 607 q 514 542 532 572 q 497 476 497 511 q 514 409 497 440 q 562 361 532 379 q 629 343 593 343 m 689 575 q 697 570 693 573 q 706 564 701 567 l 548 564 q 566 577 554 570 q 585 585 579 583 q 628 594 602 594 q 672 585 650 594 l 689 575 m 716 555 q 745 476 745 517 q 739 435 745 454 q 718 399 735 420 l 563 399 l 716 555 m 539 395 q 516 433 523 415 q 509 476 509 453 q 510 494 509 488 q 517 517 511 507 q 537 550 523 536 l 694 550 l 539 395 m 64 423 l 90 423 l 90 347 l 119 347 l 119 423 l 145 423 l 145 450 l 64 450 l 64 423 m 187 379 l 196 379 l 208 356 q 220 347 213 347 l 246 347 l 228 379 q 210 389 220 389 l 213 389 q 228 397 220 389 q 236 414 236 404 q 225 439 236 429 q 199 450 214 450 l 157 450 l 157 347 l 187 347 l 187 379 m 286 347 l 286 450 l 257 450 l 257 347 l 286 347 m 341 450 l 296 347 l 320 347 q 333 357 327 347 l 336 364 l 371 364 l 376 357 q 388 347 381 347 l 411 347 l 367 450 l 341 450 m 422 347 l 487 347 l 487 374 l 450 374 l 450 450 l 422 450 l 422 347 m 847 450 q 809 435 824 450 q 795 397 795 420 q 809 359 795 373 q 847 344 824 344 q 886 359 871 344 q 901 397 901 373 q 886 435 901 420 q 847 450 871 450 m 980 412 q 983 392 980 400 l 951 438 q 946 445 949 444 q 939 447 944 447 l 914 447 l 914 346 l 945 346 l 945 386 q 942 405 945 391 l 976 352 q 989 346 982 346 l 1010 346 l 1010 447 l 980 447 l 980 412 m 1030 346 l 1095 346 l 1095 373 l 1059 373 l 1059 447 l 1030 447 l 1030 346 m 1153 376 q 1155 386 1153 382 l 1192 447 l 1164 447 q 1153 441 1156 447 l 1141 421 q 1139 412 1139 417 q 1136 405 1138 408 q 1133 421 1136 413 l 1122 441 q 1110 447 1118 447 l 1083 447 l 1120 386 q 1122 376 1122 383 l 1122 346 l 1153 346 l 1153 376 m 197 421 q 205 414 205 421 q 203 408 205 411 q 198 406 201 406 l 187 406 l 187 421 l 197 421 m 847 373 q 830 379 837 373 q 823 397 823 386 q 830 414 823 407 q 847 421 837 421 q 864 414 857 421 q 870 397 870 407 q 864 379 870 386 q 847 373 857 373 m 349 398 q 352 405 350 399 q 353 417 353 411 l 355 417 q 358 398 355 404 l 364 385 l 344 385 l 349 398 m 586 364 q 550 386 568 372 l 706 386 q 689 373 691 374 q 681 369 686 372 q 672 364 676 365 q 662 362 668 364 q 649 359 656 360 q 628 356 639 356 q 586 364 604 356 m 43 218 l 50 218 l 50 247 l 78 247 l 78 254 l 50 254 l 50 277 l 84 277 l 84 285 l 43 285 l 43 218 m 121 224 q 108 230 113 224 q 102 244 102 235 l 102 285 l 95 285 l 95 244 q 102 224 95 231 q 121 217 109 217 q 141 224 133 217 q 149 244 149 232 l 149 285 l 140 285 l 140 244 q 135 229 140 234 q 121 224 130 224 m 166 218 l 202 218 l 202 225 l 174 225 l 174 285 l 166 285 l 166 218 m 217 218 l 254 218 l 254 225 l 223 225 l 223 285 l 217 285 l 217 218 m 346 285 q 343 284 345 285 q 342 282 342 284 l 321 233 q 320 226 320 230 l 319 226 q 318 233 319 230 l 296 282 q 291 285 296 285 l 286 285 l 316 218 l 323 218 l 351 285 l 346 285 m 403 218 l 403 225 l 368 225 l 368 248 l 397 248 l 397 256 l 368 256 l 368 277 l 403 277 l 403 285 l 362 285 l 362 218 l 403 218 m 426 246 l 435 246 l 455 221 q 463 218 459 218 l 467 218 l 447 245 q 444 247 447 247 l 444 247 q 455 253 450 248 q 461 265 461 258 q 455 279 461 273 q 441 285 449 285 l 417 285 l 417 218 l 426 218 l 426 246 m 472 227 q 482 220 476 223 q 493 217 488 217 q 509 222 503 217 q 514 237 514 228 q 495 257 514 252 q 484 268 484 262 q 494 278 484 278 q 506 275 500 278 q 510 277 508 274 l 511 279 q 494 285 506 285 q 481 281 486 285 q 475 268 475 276 q 493 250 475 257 q 508 237 508 244 q 504 227 508 231 q 493 224 500 224 q 479 230 486 226 q 476 230 479 231 q 473 228 474 230 l 472 227 m 536 218 l 536 285 l 530 285 l 530 218 l 536 218 m 586 285 q 561 275 571 285 q 551 251 551 265 q 561 227 551 237 q 586 217 571 217 q 611 226 601 217 q 621 251 621 236 q 611 276 621 266 q 586 285 601 285 m 680 235 q 681 230 680 231 l 646 283 q 640 285 643 285 l 634 285 l 634 218 l 642 218 l 642 270 l 641 275 l 680 220 q 682 218 680 218 l 689 218 l 689 285 l 680 285 l 680 235 m 586 224 q 567 232 576 224 q 558 251 558 240 q 566 270 558 262 q 586 278 575 278 q 605 270 597 278 q 613 251 613 262 q 605 232 613 240 q 586 224 597 224 m 441 277 q 449 274 445 277 q 453 265 453 270 q 449 257 453 261 q 441 254 445 254 l 426 254 l 426 277 l 441 277 m 1198 252 q 1196 256 1198 254 l 1178 273 l 1176 270 q 1177 264 1173 267 l 1186 255 l 727 255 l 727 248 l 1185 248 l 1177 239 q 1176 233 1174 236 l 1178 230 l 1196 248 q 1198 252 1198 249 m 514 184 q 479 170 493 184 q 464 134 464 156 q 478 99 464 113 q 514 84 492 84 q 551 99 536 84 q 566 134 566 113 q 551 170 566 155 q 514 184 536 184 m 761 100 q 800 84 780 84 q 826 93 816 84 q 836 116 836 102 q 806 149 836 143 q 796 155 796 152 q 800 158 796 158 q 806 157 801 158 q 812 155 810 155 q 825 163 821 155 l 830 172 q 817 181 825 178 q 800 184 808 184 q 776 176 786 184 q 767 155 767 168 q 775 136 767 143 q 800 123 783 129 q 806 116 806 121 q 800 111 806 111 q 791 113 795 111 q 786 116 787 115 q 778 118 783 118 q 765 111 771 118 l 761 100 m 883 134 q 897 99 883 113 q 932 84 911 84 q 954 90 944 84 q 969 104 965 96 l 963 113 q 953 117 959 117 q 944 114 947 117 q 931 111 936 111 q 916 117 922 111 q 910 134 910 124 q 916 151 910 144 q 931 158 922 158 q 939 156 936 158 q 944 154 942 155 q 952 151 947 151 q 963 155 959 151 l 969 164 q 954 178 965 172 q 932 184 944 184 q 897 170 911 184 q 883 134 883 155 m 1027 184 q 991 170 1005 184 q 976 134 976 156 q 991 99 976 113 q 1027 84 1005 84 q 1063 99 1049 84 q 1078 134 1078 113 q 1063 170 1078 156 q 1027 184 1049 184 m 116 85 l 116 113 l 89 113 q 75 108 81 113 l 113 158 q 116 170 116 162 l 116 183 l 41 183 l 41 157 l 69 157 q 78 161 75 157 l 43 111 q 38 106 40 108 q 37 99 37 103 l 37 85 l 116 85 m 196 85 l 196 113 l 157 113 l 157 122 l 189 122 l 189 146 l 157 146 l 157 157 l 196 157 l 196 183 l 130 183 l 130 85 l 196 85 m 202 157 l 228 157 l 228 85 l 256 85 l 256 157 l 279 157 l 279 183 l 202 183 l 202 157 m 313 183 l 270 85 l 292 85 q 299 88 296 85 q 304 96 302 91 l 307 102 l 342 102 l 345 96 q 351 88 346 91 q 358 85 355 85 l 380 85 l 338 183 l 313 183 m 388 85 l 417 85 l 417 119 l 449 119 l 449 143 l 417 143 l 417 157 l 455 157 l 455 183 l 388 183 l 388 85 m 640 149 q 643 131 640 137 l 614 174 q 609 181 612 179 q 601 183 607 183 l 579 183 l 579 85 l 608 85 l 608 125 q 604 142 608 134 l 605 142 l 638 91 q 649 85 642 85 l 669 85 l 669 183 l 640 183 l 640 149 m 680 157 l 704 157 l 704 85 l 733 85 l 733 157 l 759 157 l 759 183 l 680 183 l 680 157 m 1181 183 q 1170 174 1175 183 l 1153 139 q 1150 128 1150 135 l 1148 128 q 1145 139 1148 135 l 1129 174 q 1123 180 1126 178 q 1116 183 1121 183 l 1092 183 l 1092 85 l 1120 85 l 1120 128 q 1116 143 1120 134 l 1118 143 l 1136 102 q 1150 94 1139 94 q 1161 102 1157 94 l 1180 143 q 1178 136 1179 140 q 1178 128 1178 132 l 1178 85 l 1205 85 l 1205 183 l 1181 183 m 514 111 q 498 117 505 111 q 492 134 492 124 q 498 151 492 144 q 514 158 505 158 q 530 151 524 158 q 536 134 536 145 q 530 117 536 124 q 514 111 524 111 m 1027 111 q 1011 117 1018 111 q 1005 134 1005 124 q 1011 151 1005 145 q 1027 158 1018 158 q 1044 151 1036 158 q 1051 134 1051 144 q 1044 117 1051 124 q 1027 111 1036 111 m 321 134 q 324 152 324 141 l 326 152 q 329 134 326 139 l 335 120 l 316 120 l 321 134 m 844 99 q 848 88 844 93 q 859 84 852 84 q 869 88 865 84 q 873 99 873 93 q 869 110 873 105 q 859 114 865 114 q 848 110 852 114 q 844 99 844 105 z "},"3":{"ha":1217,"x_min":37,"x_max":1217,"o":"m 1217 314 l 38 314 l 38 476 l 485 476 l 485 478 l 485 490 q 485 491 485 491 l 485 493 q 486 499 485 496 q 487 505 487 502 q 487 509 487 506 q 489 514 488 511 q 540 591 501 561 q 628 621 578 621 q 700 602 667 621 q 752 550 733 582 q 771 478 771 517 l 771 476 l 1217 476 l 1217 314 m 629 343 q 695 361 665 343 q 743 410 725 379 q 761 476 761 440 q 743 542 761 511 q 695 590 725 572 q 629 607 665 607 q 562 590 593 607 q 514 542 532 572 q 497 476 497 511 q 514 409 497 440 q 562 361 532 379 q 629 343 593 343 m 689 575 q 697 570 693 573 q 706 564 701 567 l 548 564 q 566 577 554 570 q 585 585 579 583 q 628 594 602 594 q 672 585 650 594 l 689 575 m 716 555 q 745 476 745 517 q 739 435 745 454 q 718 399 735 420 l 563 399 l 716 555 m 539 395 q 516 433 523 415 q 509 476 509 453 q 510 494 509 488 q 517 517 511 507 q 537 550 523 536 l 694 550 l 539 395 m 64 423 l 90 423 l 90 347 l 119 347 l 119 423 l 145 423 l 145 450 l 64 450 l 64 423 m 187 379 l 196 379 l 208 356 q 220 347 213 347 l 246 347 l 228 379 q 210 389 220 389 l 213 389 q 228 397 220 389 q 236 414 236 404 q 225 439 236 429 q 199 450 214 450 l 157 450 l 157 347 l 187 347 l 187 379 m 286 347 l 286 450 l 257 450 l 257 347 l 286 347 m 341 450 l 296 347 l 320 347 q 333 357 327 347 l 336 364 l 371 364 l 376 357 q 388 347 381 347 l 411 347 l 367 450 l 341 450 m 422 347 l 487 347 l 487 374 l 450 374 l 450 450 l 422 450 l 422 347 m 847 450 q 809 435 824 450 q 795 397 795 420 q 809 359 795 373 q 847 344 824 344 q 886 359 871 344 q 901 397 901 373 q 886 435 901 420 q 847 450 871 450 m 980 412 q 983 392 980 400 l 951 438 q 946 445 949 444 q 939 447 944 447 l 914 447 l 914 346 l 945 346 l 945 386 q 942 405 945 391 l 976 352 q 989 346 982 346 l 1010 346 l 1010 447 l 980 447 l 980 412 m 1030 346 l 1095 346 l 1095 373 l 1059 373 l 1059 447 l 1030 447 l 1030 346 m 1153 376 q 1155 386 1153 382 l 1192 447 l 1164 447 q 1153 441 1156 447 l 1141 421 q 1139 412 1139 417 q 1136 405 1138 408 q 1133 421 1136 413 l 1122 441 q 1110 447 1118 447 l 1083 447 l 1120 386 q 1122 376 1122 383 l 1122 346 l 1153 346 l 1153 376 m 197 421 q 205 414 205 421 q 203 408 205 411 q 198 406 201 406 l 187 406 l 187 421 l 197 421 m 847 373 q 830 379 837 373 q 823 397 823 386 q 830 414 823 407 q 847 421 837 421 q 864 414 857 421 q 870 397 870 407 q 864 379 870 386 q 847 373 857 373 m 349 398 q 352 405 350 399 q 353 417 353 411 l 355 417 q 358 398 355 404 l 364 385 l 344 385 l 349 398 m 586 364 q 550 386 568 372 l 706 386 q 689 373 691 374 q 681 369 686 372 q 672 364 676 365 q 662 362 668 364 q 649 359 656 360 q 628 356 639 356 q 586 364 604 356 m 43 218 l 50 218 l 50 247 l 78 247 l 78 254 l 50 254 l 50 277 l 84 277 l 84 285 l 43 285 l 43 218 m 121 224 q 108 230 113 224 q 102 244 102 235 l 102 285 l 95 285 l 95 244 q 102 224 95 231 q 121 217 109 217 q 141 224 133 217 q 149 244 149 232 l 149 285 l 140 285 l 140 244 q 135 229 140 234 q 121 224 130 224 m 166 218 l 202 218 l 202 225 l 174 225 l 174 285 l 166 285 l 166 218 m 217 218 l 254 218 l 254 225 l 223 225 l 223 285 l 217 285 l 217 218 m 346 285 q 343 284 345 285 q 342 282 342 284 l 321 233 q 320 226 320 230 l 319 226 q 318 233 319 230 l 296 282 q 291 285 296 285 l 286 285 l 316 218 l 323 218 l 351 285 l 346 285 m 403 218 l 403 225 l 368 225 l 368 248 l 397 248 l 397 256 l 368 256 l 368 277 l 403 277 l 403 285 l 362 285 l 362 218 l 403 218 m 426 246 l 435 246 l 455 221 q 463 218 459 218 l 467 218 l 447 245 q 444 247 447 247 l 444 247 q 455 253 450 248 q 461 265 461 258 q 455 279 461 273 q 441 285 449 285 l 417 285 l 417 218 l 426 218 l 426 246 m 472 227 q 482 220 476 223 q 493 217 488 217 q 509 222 503 217 q 514 237 514 228 q 495 257 514 252 q 484 268 484 262 q 494 278 484 278 q 506 275 500 278 q 510 277 508 274 l 511 279 q 494 285 506 285 q 481 281 486 285 q 475 268 475 276 q 493 250 475 257 q 508 237 508 244 q 504 227 508 231 q 493 224 500 224 q 479 230 486 226 q 476 230 479 231 q 473 228 474 230 l 472 227 m 536 218 l 536 285 l 530 285 l 530 218 l 536 218 m 586 285 q 561 275 571 285 q 551 251 551 265 q 561 227 551 237 q 586 217 571 217 q 611 226 601 217 q 621 251 621 236 q 611 276 621 266 q 586 285 601 285 m 680 235 q 681 230 680 231 l 646 283 q 640 285 643 285 l 634 285 l 634 218 l 642 218 l 642 270 l 641 275 l 680 220 q 682 218 680 218 l 689 218 l 689 285 l 680 285 l 680 235 m 586 224 q 567 232 576 224 q 558 251 558 240 q 566 270 558 262 q 586 278 575 278 q 605 270 597 278 q 613 251 613 262 q 605 232 613 240 q 586 224 597 224 m 441 277 q 449 274 445 277 q 453 265 453 270 q 449 257 453 261 q 441 254 445 254 l 426 254 l 426 277 l 441 277 m 1198 252 q 1196 256 1198 254 l 1178 273 l 1176 270 q 1177 264 1173 267 l 1186 255 l 727 255 l 727 248 l 1185 248 l 1177 239 q 1176 233 1174 236 l 1178 230 l 1196 248 q 1198 252 1198 249 m 514 184 q 479 170 493 184 q 464 134 464 156 q 478 99 464 113 q 514 84 492 84 q 551 99 536 84 q 566 134 566 113 q 551 170 566 155 q 514 184 536 184 m 761 100 q 800 84 780 84 q 826 93 816 84 q 836 116 836 102 q 806 149 836 143 q 796 155 796 152 q 800 158 796 158 q 806 157 801 158 q 812 155 810 155 q 825 163 821 155 l 830 172 q 817 181 825 178 q 800 184 808 184 q 776 176 786 184 q 767 155 767 168 q 775 136 767 143 q 800 123 783 129 q 806 116 806 121 q 800 111 806 111 q 791 113 795 111 q 786 116 787 115 q 778 118 783 118 q 765 111 771 118 l 761 100 m 883 134 q 897 99 883 113 q 932 84 911 84 q 954 90 944 84 q 969 104 965 96 l 963 113 q 953 117 959 117 q 944 114 947 117 q 931 111 936 111 q 916 117 922 111 q 910 134 910 124 q 916 151 910 144 q 931 158 922 158 q 939 156 936 158 q 944 154 942 155 q 952 151 947 151 q 963 155 959 151 l 969 164 q 954 178 965 172 q 932 184 944 184 q 897 170 911 184 q 883 134 883 155 m 1027 184 q 991 170 1005 184 q 976 134 976 156 q 991 99 976 113 q 1027 84 1005 84 q 1063 99 1049 84 q 1078 134 1078 113 q 1063 170 1078 156 q 1027 184 1049 184 m 116 85 l 116 113 l 89 113 q 75 108 81 113 l 113 158 q 116 170 116 162 l 116 183 l 41 183 l 41 157 l 69 157 q 78 161 75 157 l 43 111 q 38 106 40 108 q 37 99 37 103 l 37 85 l 116 85 m 196 85 l 196 113 l 157 113 l 157 122 l 189 122 l 189 146 l 157 146 l 157 157 l 196 157 l 196 183 l 130 183 l 130 85 l 196 85 m 202 157 l 228 157 l 228 85 l 256 85 l 256 157 l 279 157 l 279 183 l 202 183 l 202 157 m 313 183 l 270 85 l 292 85 q 299 88 296 85 q 304 96 302 91 l 307 102 l 342 102 l 345 96 q 351 88 346 91 q 358 85 355 85 l 380 85 l 338 183 l 313 183 m 388 85 l 417 85 l 417 119 l 449 119 l 449 143 l 417 143 l 417 157 l 455 157 l 455 183 l 388 183 l 388 85 m 640 149 q 643 131 640 137 l 614 174 q 609 181 612 179 q 601 183 607 183 l 579 183 l 579 85 l 608 85 l 608 125 q 604 142 608 134 l 605 142 l 638 91 q 649 85 642 85 l 669 85 l 669 183 l 640 183 l 640 149 m 680 157 l 704 157 l 704 85 l 733 85 l 733 157 l 759 157 l 759 183 l 680 183 l 680 157 m 1181 183 q 1170 174 1175 183 l 1153 139 q 1150 128 1150 135 l 1148 128 q 1145 139 1148 135 l 1129 174 q 1123 180 1126 178 q 1116 183 1121 183 l 1092 183 l 1092 85 l 1120 85 l 1120 128 q 1116 143 1120 134 l 1118 143 l 1136 102 q 1150 94 1139 94 q 1161 102 1157 94 l 1180 143 q 1178 136 1179 140 q 1178 128 1178 132 l 1178 85 l 1205 85 l 1205 183 l 1181 183 m 514 111 q 498 117 505 111 q 492 134 492 124 q 498 151 492 144 q 514 158 505 158 q 530 151 524 158 q 536 134 536 145 q 530 117 536 124 q 514 111 524 111 m 1027 111 q 1011 117 1018 111 q 1005 134 1005 124 q 1011 151 1005 145 q 1027 158 1018 158 q 1044 151 1036 158 q 1051 134 1051 144 q 1044 117 1051 124 q 1027 111 1036 111 m 321 134 q 324 152 324 141 l 326 152 q 329 134 326 139 l 335 120 l 316 120 l 321 134 m 844 99 q 848 88 844 93 q 859 84 852 84 q 869 88 865 84 q 873 99 873 93 q 869 110 873 105 q 859 114 865 114 q 848 110 852 114 q 844 99 844 105 z "},"4":{"ha":1217,"x_min":37,"x_max":1217,"o":"m 1217 314 l 38 314 l 38 476 l 485 476 l 485 478 l 485 490 q 485 491 485 491 l 485 493 q 486 499 485 496 q 487 505 487 502 q 487 509 487 506 q 489 514 488 511 q 540 591 501 561 q 628 621 578 621 q 700 602 667 621 q 752 550 733 582 q 771 478 771 517 l 771 476 l 1217 476 l 1217 314 m 629 343 q 695 361 665 343 q 743 410 725 379 q 761 476 761 440 q 743 542 761 511 q 695 590 725 572 q 629 607 665 607 q 562 590 593 607 q 514 542 532 572 q 497 476 497 511 q 514 409 497 440 q 562 361 532 379 q 629 343 593 343 m 689 575 q 697 570 693 573 q 706 564 701 567 l 548 564 q 566 577 554 570 q 585 585 579 583 q 628 594 602 594 q 672 585 650 594 l 689 575 m 716 555 q 745 476 745 517 q 739 435 745 454 q 718 399 735 420 l 563 399 l 716 555 m 539 395 q 516 433 523 415 q 509 476 509 453 q 510 494 509 488 q 517 517 511 507 q 537 550 523 536 l 694 550 l 539 395 m 64 423 l 90 423 l 90 347 l 119 347 l 119 423 l 145 423 l 145 450 l 64 450 l 64 423 m 187 379 l 196 379 l 208 356 q 220 347 213 347 l 246 347 l 228 379 q 210 389 220 389 l 213 389 q 228 397 220 389 q 236 414 236 404 q 225 439 236 429 q 199 450 214 450 l 157 450 l 157 347 l 187 347 l 187 379 m 286 347 l 286 450 l 257 450 l 257 347 l 286 347 m 341 450 l 296 347 l 320 347 q 333 357 327 347 l 336 364 l 371 364 l 376 357 q 388 347 381 347 l 411 347 l 367 450 l 341 450 m 422 347 l 487 347 l 487 374 l 450 374 l 450 450 l 422 450 l 422 347 m 847 450 q 809 435 824 450 q 795 397 795 420 q 809 359 795 373 q 847 344 824 344 q 886 359 871 344 q 901 397 901 373 q 886 435 901 420 q 847 450 871 450 m 980 412 q 983 392 980 400 l 951 438 q 946 445 949 444 q 939 447 944 447 l 914 447 l 914 346 l 945 346 l 945 386 q 942 405 945 391 l 976 352 q 989 346 982 346 l 1010 346 l 1010 447 l 980 447 l 980 412 m 1030 346 l 1095 346 l 1095 373 l 1059 373 l 1059 447 l 1030 447 l 1030 346 m 1153 376 q 1155 386 1153 382 l 1192 447 l 1164 447 q 1153 441 1156 447 l 1141 421 q 1139 412 1139 417 q 1136 405 1138 408 q 1133 421 1136 413 l 1122 441 q 1110 447 1118 447 l 1083 447 l 1120 386 q 1122 376 1122 383 l 1122 346 l 1153 346 l 1153 376 m 197 421 q 205 414 205 421 q 203 408 205 411 q 198 406 201 406 l 187 406 l 187 421 l 197 421 m 847 373 q 830 379 837 373 q 823 397 823 386 q 830 414 823 407 q 847 421 837 421 q 864 414 857 421 q 870 397 870 407 q 864 379 870 386 q 847 373 857 373 m 349 398 q 352 405 350 399 q 353 417 353 411 l 355 417 q 358 398 355 404 l 364 385 l 344 385 l 349 398 m 586 364 q 550 386 568 372 l 706 386 q 689 373 691 374 q 681 369 686 372 q 672 364 676 365 q 662 362 668 364 q 649 359 656 360 q 628 356 639 356 q 586 364 604 356 m 43 218 l 50 218 l 50 247 l 78 247 l 78 254 l 50 254 l 50 277 l 84 277 l 84 285 l 43 285 l 43 218 m 121 224 q 108 230 113 224 q 102 244 102 235 l 102 285 l 95 285 l 95 244 q 102 224 95 231 q 121 217 109 217 q 141 224 133 217 q 149 244 149 232 l 149 285 l 140 285 l 140 244 q 135 229 140 234 q 121 224 130 224 m 166 218 l 202 218 l 202 225 l 174 225 l 174 285 l 166 285 l 166 218 m 217 218 l 254 218 l 254 225 l 223 225 l 223 285 l 217 285 l 217 218 m 346 285 q 343 284 345 285 q 342 282 342 284 l 321 233 q 320 226 320 230 l 319 226 q 318 233 319 230 l 296 282 q 291 285 296 285 l 286 285 l 316 218 l 323 218 l 351 285 l 346 285 m 403 218 l 403 225 l 368 225 l 368 248 l 397 248 l 397 256 l 368 256 l 368 277 l 403 277 l 403 285 l 362 285 l 362 218 l 403 218 m 426 246 l 435 246 l 455 221 q 463 218 459 218 l 467 218 l 447 245 q 444 247 447 247 l 444 247 q 455 253 450 248 q 461 265 461 258 q 455 279 461 273 q 441 285 449 285 l 417 285 l 417 218 l 426 218 l 426 246 m 472 227 q 482 220 476 223 q 493 217 488 217 q 509 222 503 217 q 514 237 514 228 q 495 257 514 252 q 484 268 484 262 q 494 278 484 278 q 506 275 500 278 q 510 277 508 274 l 511 279 q 494 285 506 285 q 481 281 486 285 q 475 268 475 276 q 493 250 475 257 q 508 237 508 244 q 504 227 508 231 q 493 224 500 224 q 479 230 486 226 q 476 230 479 231 q 473 228 474 230 l 472 227 m 536 218 l 536 285 l 530 285 l 530 218 l 536 218 m 586 285 q 561 275 571 285 q 551 251 551 265 q 561 227 551 237 q 586 217 571 217 q 611 226 601 217 q 621 251 621 236 q 611 276 621 266 q 586 285 601 285 m 680 235 q 681 230 680 231 l 646 283 q 640 285 643 285 l 634 285 l 634 218 l 642 218 l 642 270 l 641 275 l 680 220 q 682 218 680 218 l 689 218 l 689 285 l 680 285 l 680 235 m 586 224 q 567 232 576 224 q 558 251 558 240 q 566 270 558 262 q 586 278 575 278 q 605 270 597 278 q 613 251 613 262 q 605 232 613 240 q 586 224 597 224 m 441 277 q 449 274 445 277 q 453 265 453 270 q 449 257 453 261 q 441 254 445 254 l 426 254 l 426 277 l 441 277 m 1198 252 q 1196 256 1198 254 l 1178 273 l 1176 270 q 1177 264 1173 267 l 1186 255 l 727 255 l 727 248 l 1185 248 l 1177 239 q 1176 233 1174 236 l 1178 230 l 1196 248 q 1198 252 1198 249 m 514 184 q 479 170 493 184 q 464 134 464 156 q 478 99 464 113 q 514 84 492 84 q 551 99 536 84 q 566 134 566 113 q 551 170 566 155 q 514 184 536 184 m 761 100 q 800 84 780 84 q 826 93 816 84 q 836 116 836 102 q 806 149 836 143 q 796 155 796 152 q 800 158 796 158 q 806 157 801 158 q 812 155 810 155 q 825 163 821 155 l 830 172 q 817 181 825 178 q 800 184 808 184 q 776 176 786 184 q 767 155 767 168 q 775 136 767 143 q 800 123 783 129 q 806 116 806 121 q 800 111 806 111 q 791 113 795 111 q 786 116 787 115 q 778 118 783 118 q 765 111 771 118 l 761 100 m 883 134 q 897 99 883 113 q 932 84 911 84 q 954 90 944 84 q 969 104 965 96 l 963 113 q 953 117 959 117 q 944 114 947 117 q 931 111 936 111 q 916 117 922 111 q 910 134 910 124 q 916 151 910 144 q 931 158 922 158 q 939 156 936 158 q 944 154 942 155 q 952 151 947 151 q 963 155 959 151 l 969 164 q 954 178 965 172 q 932 184 944 184 q 897 170 911 184 q 883 134 883 155 m 1027 184 q 991 170 1005 184 q 976 134 976 156 q 991 99 976 113 q 1027 84 1005 84 q 1063 99 1049 84 q 1078 134 1078 113 q 1063 170 1078 156 q 1027 184 1049 184 m 116 85 l 116 113 l 89 113 q 75 108 81 113 l 113 158 q 116 170 116 162 l 116 183 l 41 183 l 41 157 l 69 157 q 78 161 75 157 l 43 111 q 38 106 40 108 q 37 99 37 103 l 37 85 l 116 85 m 196 85 l 196 113 l 157 113 l 157 122 l 189 122 l 189 146 l 157 146 l 157 157 l 196 157 l 196 183 l 130 183 l 130 85 l 196 85 m 202 157 l 228 157 l 228 85 l 256 85 l 256 157 l 279 157 l 279 183 l 202 183 l 202 157 m 313 183 l 270 85 l 292 85 q 299 88 296 85 q 304 96 302 91 l 307 102 l 342 102 l 345 96 q 351 88 346 91 q 358 85 355 85 l 380 85 l 338 183 l 313 183 m 388 85 l 417 85 l 417 119 l 449 119 l 449 143 l 417 143 l 417 157 l 455 157 l 455 183 l 388 183 l 388 85 m 640 149 q 643 131 640 137 l 614 174 q 609 181 612 179 q 601 183 607 183 l 579 183 l 579 85 l 608 85 l 608 125 q 604 142 608 134 l 605 142 l 638 91 q 649 85 642 85 l 669 85 l 669 183 l 640 183 l 640 149 m 680 157 l 704 157 l 704 85 l 733 85 l 733 157 l 759 157 l 759 183 l 680 183 l 680 157 m 1181 183 q 1170 174 1175 183 l 1153 139 q 1150 128 1150 135 l 1148 128 q 1145 139 1148 135 l 1129 174 q 1123 180 1126 178 q 1116 183 1121 183 l 1092 183 l 1092 85 l 1120 85 l 1120 128 q 1116 143 1120 134 l 1118 143 l 1136 102 q 1150 94 1139 94 q 1161 102 1157 94 l 1180 143 q 1178 136 1179 140 q 1178 128 1178 132 l 1178 85 l 1205 85 l 1205 183 l 1181 183 m 514 111 q 498 117 505 111 q 492 134 492 124 q 498 151 492 144 q 514 158 505 158 q 530 151 524 158 q 536 134 536 145 q 530 117 536 124 q 514 111 524 111 m 1027 111 q 1011 117 1018 111 q 1005 134 1005 124 q 1011 151 1005 145 q 1027 158 1018 158 q 1044 151 1036 158 q 1051 134 1051 144 q 1044 117 1051 124 q 1027 111 1036 111 m 321 134 q 324 152 324 141 l 326 152 q 329 134 326 139 l 335 120 l 316 120 l 321 134 m 844 99 q 848 88 844 93 q 859 84 852 84 q 869 88 865 84 q 873 99 873 93 q 869 110 873 105 q 859 114 865 114 q 848 110 852 114 q 844 99 844 105 z "},"5":{"ha":1217,"x_min":37,"x_max":1217,"o":"m 1217 314 l 38 314 l 38 476 l 485 476 l 485 478 l 485 490 q 485 491 485 491 l 485 493 q 486 499 485 496 q 487 505 487 502 q 487 509 487 506 q 489 514 488 511 q 540 591 501 561 q 628 621 578 621 q 700 602 667 621 q 752 550 733 582 q 771 478 771 517 l 771 476 l 1217 476 l 1217 314 m 629 343 q 695 361 665 343 q 743 410 725 379 q 761 476 761 440 q 743 542 761 511 q 695 590 725 572 q 629 607 665 607 q 562 590 593 607 q 514 542 532 572 q 497 476 497 511 q 514 409 497 440 q 562 361 532 379 q 629 343 593 343 m 689 575 q 697 570 693 573 q 706 564 701 567 l 548 564 q 566 577 554 570 q 585 585 579 583 q 628 594 602 594 q 672 585 650 594 l 689 575 m 716 555 q 745 476 745 517 q 739 435 745 454 q 718 399 735 420 l 563 399 l 716 555 m 539 395 q 516 433 523 415 q 509 476 509 453 q 510 494 509 488 q 517 517 511 507 q 537 550 523 536 l 694 550 l 539 395 m 64 423 l 90 423 l 90 347 l 119 347 l 119 423 l 145 423 l 145 450 l 64 450 l 64 423 m 187 379 l 196 379 l 208 356 q 220 347 213 347 l 246 347 l 228 379 q 210 389 220 389 l 213 389 q 228 397 220 389 q 236 414 236 404 q 225 439 236 429 q 199 450 214 450 l 157 450 l 157 347 l 187 347 l 187 379 m 286 347 l 286 450 l 257 450 l 257 347 l 286 347 m 341 450 l 296 347 l 320 347 q 333 357 327 347 l 336 364 l 371 364 l 376 357 q 388 347 381 347 l 411 347 l 367 450 l 341 450 m 422 347 l 487 347 l 487 374 l 450 374 l 450 450 l 422 450 l 422 347 m 847 450 q 809 435 824 450 q 795 397 795 420 q 809 359 795 373 q 847 344 824 344 q 886 359 871 344 q 901 397 901 373 q 886 435 901 420 q 847 450 871 450 m 980 412 q 983 392 980 400 l 951 438 q 946 445 949 444 q 939 447 944 447 l 914 447 l 914 346 l 945 346 l 945 386 q 942 405 945 391 l 976 352 q 989 346 982 346 l 1010 346 l 1010 447 l 980 447 l 980 412 m 1030 346 l 1095 346 l 1095 373 l 1059 373 l 1059 447 l 1030 447 l 1030 346 m 1153 376 q 1155 386 1153 382 l 1192 447 l 1164 447 q 1153 441 1156 447 l 1141 421 q 1139 412 1139 417 q 1136 405 1138 408 q 1133 421 1136 413 l 1122 441 q 1110 447 1118 447 l 1083 447 l 1120 386 q 1122 376 1122 383 l 1122 346 l 1153 346 l 1153 376 m 197 421 q 205 414 205 421 q 203 408 205 411 q 198 406 201 406 l 187 406 l 187 421 l 197 421 m 847 373 q 830 379 837 373 q 823 397 823 386 q 830 414 823 407 q 847 421 837 421 q 864 414 857 421 q 870 397 870 407 q 864 379 870 386 q 847 373 857 373 m 349 398 q 352 405 350 399 q 353 417 353 411 l 355 417 q 358 398 355 404 l 364 385 l 344 385 l 349 398 m 586 364 q 550 386 568 372 l 706 386 q 689 373 691 374 q 681 369 686 372 q 672 364 676 365 q 662 362 668 364 q 649 359 656 360 q 628 356 639 356 q 586 364 604 356 m 43 218 l 50 218 l 50 247 l 78 247 l 78 254 l 50 254 l 50 277 l 84 277 l 84 285 l 43 285 l 43 218 m 121 224 q 108 230 113 224 q 102 244 102 235 l 102 285 l 95 285 l 95 244 q 102 224 95 231 q 121 217 109 217 q 141 224 133 217 q 149 244 149 232 l 149 285 l 140 285 l 140 244 q 135 229 140 234 q 121 224 130 224 m 166 218 l 202 218 l 202 225 l 174 225 l 174 285 l 166 285 l 166 218 m 217 218 l 254 218 l 254 225 l 223 225 l 223 285 l 217 285 l 217 218 m 346 285 q 343 284 345 285 q 342 282 342 284 l 321 233 q 320 226 320 230 l 319 226 q 318 233 319 230 l 296 282 q 291 285 296 285 l 286 285 l 316 218 l 323 218 l 351 285 l 346 285 m 403 218 l 403 225 l 368 225 l 368 248 l 397 248 l 397 256 l 368 256 l 368 277 l 403 277 l 403 285 l 362 285 l 362 218 l 403 218 m 426 246 l 435 246 l 455 221 q 463 218 459 218 l 467 218 l 447 245 q 444 247 447 247 l 444 247 q 455 253 450 248 q 461 265 461 258 q 455 279 461 273 q 441 285 449 285 l 417 285 l 417 218 l 426 218 l 426 246 m 472 227 q 482 220 476 223 q 493 217 488 217 q 509 222 503 217 q 514 237 514 228 q 495 257 514 252 q 484 268 484 262 q 494 278 484 278 q 506 275 500 278 q 510 277 508 274 l 511 279 q 494 285 506 285 q 481 281 486 285 q 475 268 475 276 q 493 250 475 257 q 508 237 508 244 q 504 227 508 231 q 493 224 500 224 q 479 230 486 226 q 476 230 479 231 q 473 228 474 230 l 472 227 m 536 218 l 536 285 l 530 285 l 530 218 l 536 218 m 586 285 q 561 275 571 285 q 551 251 551 265 q 561 227 551 237 q 586 217 571 217 q 611 226 601 217 q 621 251 621 236 q 611 276 621 266 q 586 285 601 285 m 680 235 q 681 230 680 231 l 646 283 q 640 285 643 285 l 634 285 l 634 218 l 642 218 l 642 270 l 641 275 l 680 220 q 682 218 680 218 l 689 218 l 689 285 l 680 285 l 680 235 m 586 224 q 567 232 576 224 q 558 251 558 240 q 566 270 558 262 q 586 278 575 278 q 605 270 597 278 q 613 251 613 262 q 605 232 613 240 q 586 224 597 224 m 441 277 q 449 274 445 277 q 453 265 453 270 q 449 257 453 261 q 441 254 445 254 l 426 254 l 426 277 l 441 277 m 1198 252 q 1196 256 1198 254 l 1178 273 l 1176 270 q 1177 264 1173 267 l 1186 255 l 727 255 l 727 248 l 1185 248 l 1177 239 q 1176 233 1174 236 l 1178 230 l 1196 248 q 1198 252 1198 249 m 514 184 q 479 170 493 184 q 464 134 464 156 q 478 99 464 113 q 514 84 492 84 q 551 99 536 84 q 566 134 566 113 q 551 170 566 155 q 514 184 536 184 m 761 100 q 800 84 780 84 q 826 93 816 84 q 836 116 836 102 q 806 149 836 143 q 796 155 796 152 q 800 158 796 158 q 806 157 801 158 q 812 155 810 155 q 825 163 821 155 l 830 172 q 817 181 825 178 q 800 184 808 184 q 776 176 786 184 q 767 155 767 168 q 775 136 767 143 q 800 123 783 129 q 806 116 806 121 q 800 111 806 111 q 791 113 795 111 q 786 116 787 115 q 778 118 783 118 q 765 111 771 118 l 761 100 m 883 134 q 897 99 883 113 q 932 84 911 84 q 954 90 944 84 q 969 104 965 96 l 963 113 q 953 117 959 117 q 944 114 947 117 q 931 111 936 111 q 916 117 922 111 q 910 134 910 124 q 916 151 910 144 q 931 158 922 158 q 939 156 936 158 q 944 154 942 155 q 952 151 947 151 q 963 155 959 151 l 969 164 q 954 178 965 172 q 932 184 944 184 q 897 170 911 184 q 883 134 883 155 m 1027 184 q 991 170 1005 184 q 976 134 976 156 q 991 99 976 113 q 1027 84 1005 84 q 1063 99 1049 84 q 1078 134 1078 113 q 1063 170 1078 156 q 1027 184 1049 184 m 116 85 l 116 113 l 89 113 q 75 108 81 113 l 113 158 q 116 170 116 162 l 116 183 l 41 183 l 41 157 l 69 157 q 78 161 75 157 l 43 111 q 38 106 40 108 q 37 99 37 103 l 37 85 l 116 85 m 196 85 l 196 113 l 157 113 l 157 122 l 189 122 l 189 146 l 157 146 l 157 157 l 196 157 l 196 183 l 130 183 l 130 85 l 196 85 m 202 157 l 228 157 l 228 85 l 256 85 l 256 157 l 279 157 l 279 183 l 202 183 l 202 157 m 313 183 l 270 85 l 292 85 q 299 88 296 85 q 304 96 302 91 l 307 102 l 342 102 l 345 96 q 351 88 346 91 q 358 85 355 85 l 380 85 l 338 183 l 313 183 m 388 85 l 417 85 l 417 119 l 449 119 l 449 143 l 417 143 l 417 157 l 455 157 l 455 183 l 388 183 l 388 85 m 640 149 q 643 131 640 137 l 614 174 q 609 181 612 179 q 601 183 607 183 l 579 183 l 579 85 l 608 85 l 608 125 q 604 142 608 134 l 605 142 l 638 91 q 649 85 642 85 l 669 85 l 669 183 l 640 183 l 640 149 m 680 157 l 704 157 l 704 85 l 733 85 l 733 157 l 759 157 l 759 183 l 680 183 l 680 157 m 1181 183 q 1170 174 1175 183 l 1153 139 q 1150 128 1150 135 l 1148 128 q 1145 139 1148 135 l 1129 174 q 1123 180 1126 178 q 1116 183 1121 183 l 1092 183 l 1092 85 l 1120 85 l 1120 128 q 1116 143 1120 134 l 1118 143 l 1136 102 q 1150 94 1139 94 q 1161 102 1157 94 l 1180 143 q 1178 136 1179 140 q 1178 128 1178 132 l 1178 85 l 1205 85 l 1205 183 l 1181 183 m 514 111 q 498 117 505 111 q 492 134 492 124 q 498 151 492 144 q 514 158 505 158 q 530 151 524 158 q 536 134 536 145 q 530 117 536 124 q 514 111 524 111 m 1027 111 q 1011 117 1018 111 q 1005 134 1005 124 q 1011 151 1005 145 q 1027 158 1018 158 q 1044 151 1036 158 q 1051 134 1051 144 q 1044 117 1051 124 q 1027 111 1036 111 m 321 134 q 324 152 324 141 l 326 152 q 329 134 326 139 l 335 120 l 316 120 l 321 134 m 844 99 q 848 88 844 93 q 859 84 852 84 q 869 88 865 84 q 873 99 873 93 q 869 110 873 105 q 859 114 865 114 q 848 110 852 114 q 844 99 844 105 z "},"6":{"ha":1217,"x_min":37,"x_max":1217,"o":"m 1217 314 l 38 314 l 38 476 l 485 476 l 485 478 l 485 490 q 485 491 485 491 l 485 493 q 486 499 485 496 q 487 505 487 502 q 487 509 487 506 q 489 514 488 511 q 540 591 501 561 q 628 621 578 621 q 700 602 667 621 q 752 550 733 582 q 771 478 771 517 l 771 476 l 1217 476 l 1217 314 m 629 343 q 695 361 665 343 q 743 410 725 379 q 761 476 761 440 q 743 542 761 511 q 695 590 725 572 q 629 607 665 607 q 562 590 593 607 q 514 542 532 572 q 497 476 497 511 q 514 409 497 440 q 562 361 532 379 q 629 343 593 343 m 689 575 q 697 570 693 573 q 706 564 701 567 l 548 564 q 566 577 554 570 q 585 585 579 583 q 628 594 602 594 q 672 585 650 594 l 689 575 m 716 555 q 745 476 745 517 q 739 435 745 454 q 718 399 735 420 l 563 399 l 716 555 m 539 395 q 516 433 523 415 q 509 476 509 453 q 510 494 509 488 q 517 517 511 507 q 537 550 523 536 l 694 550 l 539 395 m 64 423 l 90 423 l 90 347 l 119 347 l 119 423 l 145 423 l 145 450 l 64 450 l 64 423 m 187 379 l 196 379 l 208 356 q 220 347 213 347 l 246 347 l 228 379 q 210 389 220 389 l 213 389 q 228 397 220 389 q 236 414 236 404 q 225 439 236 429 q 199 450 214 450 l 157 450 l 157 347 l 187 347 l 187 379 m 286 347 l 286 450 l 257 450 l 257 347 l 286 347 m 341 450 l 296 347 l 320 347 q 333 357 327 347 l 336 364 l 371 364 l 376 357 q 388 347 381 347 l 411 347 l 367 450 l 341 450 m 422 347 l 487 347 l 487 374 l 450 374 l 450 450 l 422 450 l 422 347 m 847 450 q 809 435 824 450 q 795 397 795 420 q 809 359 795 373 q 847 344 824 344 q 886 359 871 344 q 901 397 901 373 q 886 435 901 420 q 847 450 871 450 m 980 412 q 983 392 980 400 l 951 438 q 946 445 949 444 q 939 447 944 447 l 914 447 l 914 346 l 945 346 l 945 386 q 942 405 945 391 l 976 352 q 989 346 982 346 l 1010 346 l 1010 447 l 980 447 l 980 412 m 1030 346 l 1095 346 l 1095 373 l 1059 373 l 1059 447 l 1030 447 l 1030 346 m 1153 376 q 1155 386 1153 382 l 1192 447 l 1164 447 q 1153 441 1156 447 l 1141 421 q 1139 412 1139 417 q 1136 405 1138 408 q 1133 421 1136 413 l 1122 441 q 1110 447 1118 447 l 1083 447 l 1120 386 q 1122 376 1122 383 l 1122 346 l 1153 346 l 1153 376 m 197 421 q 205 414 205 421 q 203 408 205 411 q 198 406 201 406 l 187 406 l 187 421 l 197 421 m 847 373 q 830 379 837 373 q 823 397 823 386 q 830 414 823 407 q 847 421 837 421 q 864 414 857 421 q 870 397 870 407 q 864 379 870 386 q 847 373 857 373 m 349 398 q 352 405 350 399 q 353 417 353 411 l 355 417 q 358 398 355 404 l 364 385 l 344 385 l 349 398 m 586 364 q 550 386 568 372 l 706 386 q 689 373 691 374 q 681 369 686 372 q 672 364 676 365 q 662 362 668 364 q 649 359 656 360 q 628 356 639 356 q 586 364 604 356 m 43 218 l 50 218 l 50 247 l 78 247 l 78 254 l 50 254 l 50 277 l 84 277 l 84 285 l 43 285 l 43 218 m 121 224 q 108 230 113 224 q 102 244 102 235 l 102 285 l 95 285 l 95 244 q 102 224 95 231 q 121 217 109 217 q 141 224 133 217 q 149 244 149 232 l 149 285 l 140 285 l 140 244 q 135 229 140 234 q 121 224 130 224 m 166 218 l 202 218 l 202 225 l 174 225 l 174 285 l 166 285 l 166 218 m 217 218 l 254 218 l 254 225 l 223 225 l 223 285 l 217 285 l 217 218 m 346 285 q 343 284 345 285 q 342 282 342 284 l 321 233 q 320 226 320 230 l 319 226 q 318 233 319 230 l 296 282 q 291 285 296 285 l 286 285 l 316 218 l 323 218 l 351 285 l 346 285 m 403 218 l 403 225 l 368 225 l 368 248 l 397 248 l 397 256 l 368 256 l 368 277 l 403 277 l 403 285 l 362 285 l 362 218 l 403 218 m 426 246 l 435 246 l 455 221 q 463 218 459 218 l 467 218 l 447 245 q 444 247 447 247 l 444 247 q 455 253 450 248 q 461 265 461 258 q 455 279 461 273 q 441 285 449 285 l 417 285 l 417 218 l 426 218 l 426 246 m 472 227 q 482 220 476 223 q 493 217 488 217 q 509 222 503 217 q 514 237 514 228 q 495 257 514 252 q 484 268 484 262 q 494 278 484 278 q 506 275 500 278 q 510 277 508 274 l 511 279 q 494 285 506 285 q 481 281 486 285 q 475 268 475 276 q 493 250 475 257 q 508 237 508 244 q 504 227 508 231 q 493 224 500 224 q 479 230 486 226 q 476 230 479 231 q 473 228 474 230 l 472 227 m 536 218 l 536 285 l 530 285 l 530 218 l 536 218 m 586 285 q 561 275 571 285 q 551 251 551 265 q 561 227 551 237 q 586 217 571 217 q 611 226 601 217 q 621 251 621 236 q 611 276 621 266 q 586 285 601 285 m 680 235 q 681 230 680 231 l 646 283 q 640 285 643 285 l 634 285 l 634 218 l 642 218 l 642 270 l 641 275 l 680 220 q 682 218 680 218 l 689 218 l 689 285 l 680 285 l 680 235 m 586 224 q 567 232 576 224 q 558 251 558 240 q 566 270 558 262 q 586 278 575 278 q 605 270 597 278 q 613 251 613 262 q 605 232 613 240 q 586 224 597 224 m 441 277 q 449 274 445 277 q 453 265 453 270 q 449 257 453 261 q 441 254 445 254 l 426 254 l 426 277 l 441 277 m 1198 252 q 1196 256 1198 254 l 1178 273 l 1176 270 q 1177 264 1173 267 l 1186 255 l 727 255 l 727 248 l 1185 248 l 1177 239 q 1176 233 1174 236 l 1178 230 l 1196 248 q 1198 252 1198 249 m 514 184 q 479 170 493 184 q 464 134 464 156 q 478 99 464 113 q 514 84 492 84 q 551 99 536 84 q 566 134 566 113 q 551 170 566 155 q 514 184 536 184 m 761 100 q 800 84 780 84 q 826 93 816 84 q 836 116 836 102 q 806 149 836 143 q 796 155 796 152 q 800 158 796 158 q 806 157 801 158 q 812 155 810 155 q 825 163 821 155 l 830 172 q 817 181 825 178 q 800 184 808 184 q 776 176 786 184 q 767 155 767 168 q 775 136 767 143 q 800 123 783 129 q 806 116 806 121 q 800 111 806 111 q 791 113 795 111 q 786 116 787 115 q 778 118 783 118 q 765 111 771 118 l 761 100 m 883 134 q 897 99 883 113 q 932 84 911 84 q 954 90 944 84 q 969 104 965 96 l 963 113 q 953 117 959 117 q 944 114 947 117 q 931 111 936 111 q 916 117 922 111 q 910 134 910 124 q 916 151 910 144 q 931 158 922 158 q 939 156 936 158 q 944 154 942 155 q 952 151 947 151 q 963 155 959 151 l 969 164 q 954 178 965 172 q 932 184 944 184 q 897 170 911 184 q 883 134 883 155 m 1027 184 q 991 170 1005 184 q 976 134 976 156 q 991 99 976 113 q 1027 84 1005 84 q 1063 99 1049 84 q 1078 134 1078 113 q 1063 170 1078 156 q 1027 184 1049 184 m 116 85 l 116 113 l 89 113 q 75 108 81 113 l 113 158 q 116 170 116 162 l 116 183 l 41 183 l 41 157 l 69 157 q 78 161 75 157 l 43 111 q 38 106 40 108 q 37 99 37 103 l 37 85 l 116 85 m 196 85 l 196 113 l 157 113 l 157 122 l 189 122 l 189 146 l 157 146 l 157 157 l 196 157 l 196 183 l 130 183 l 130 85 l 196 85 m 202 157 l 228 157 l 228 85 l 256 85 l 256 157 l 279 157 l 279 183 l 202 183 l 202 157 m 313 183 l 270 85 l 292 85 q 299 88 296 85 q 304 96 302 91 l 307 102 l 342 102 l 345 96 q 351 88 346 91 q 358 85 355 85 l 380 85 l 338 183 l 313 183 m 388 85 l 417 85 l 417 119 l 449 119 l 449 143 l 417 143 l 417 157 l 455 157 l 455 183 l 388 183 l 388 85 m 640 149 q 643 131 640 137 l 614 174 q 609 181 612 179 q 601 183 607 183 l 579 183 l 579 85 l 608 85 l 608 125 q 604 142 608 134 l 605 142 l 638 91 q 649 85 642 85 l 669 85 l 669 183 l 640 183 l 640 149 m 680 157 l 704 157 l 704 85 l 733 85 l 733 157 l 759 157 l 759 183 l 680 183 l 680 157 m 1181 183 q 1170 174 1175 183 l 1153 139 q 1150 128 1150 135 l 1148 128 q 1145 139 1148 135 l 1129 174 q 1123 180 1126 178 q 1116 183 1121 183 l 1092 183 l 1092 85 l 1120 85 l 1120 128 q 1116 143 1120 134 l 1118 143 l 1136 102 q 1150 94 1139 94 q 1161 102 1157 94 l 1180 143 q 1178 136 1179 140 q 1178 128 1178 132 l 1178 85 l 1205 85 l 1205 183 l 1181 183 m 514 111 q 498 117 505 111 q 492 134 492 124 q 498 151 492 144 q 514 158 505 158 q 530 151 524 158 q 536 134 536 145 q 530 117 536 124 q 514 111 524 111 m 1027 111 q 1011 117 1018 111 q 1005 134 1005 124 q 1011 151 1005 145 q 1027 158 1018 158 q 1044 151 1036 158 q 1051 134 1051 144 q 1044 117 1051 124 q 1027 111 1036 111 m 321 134 q 324 152 324 141 l 326 152 q 329 134 326 139 l 335 120 l 316 120 l 321 134 m 844 99 q 848 88 844 93 q 859 84 852 84 q 869 88 865 84 q 873 99 873 93 q 869 110 873 105 q 859 114 865 114 q 848 110 852 114 q 844 99 844 105 z "},"7":{"ha":1217,"x_min":37,"x_max":1217,"o":"m 1217 314 l 38 314 l 38 476 l 485 476 l 485 478 l 485 490 q 485 491 485 491 l 485 493 q 486 499 485 496 q 487 505 487 502 q 487 509 487 506 q 489 514 488 511 q 540 591 501 561 q 628 621 578 621 q 700 602 667 621 q 752 550 733 582 q 771 478 771 517 l 771 476 l 1217 476 l 1217 314 m 629 343 q 695 361 665 343 q 743 410 725 379 q 761 476 761 440 q 743 542 761 511 q 695 590 725 572 q 629 607 665 607 q 562 590 593 607 q 514 542 532 572 q 497 476 497 511 q 514 409 497 440 q 562 361 532 379 q 629 343 593 343 m 689 575 q 697 570 693 573 q 706 564 701 567 l 548 564 q 566 577 554 570 q 585 585 579 583 q 628 594 602 594 q 672 585 650 594 l 689 575 m 716 555 q 745 476 745 517 q 739 435 745 454 q 718 399 735 420 l 563 399 l 716 555 m 539 395 q 516 433 523 415 q 509 476 509 453 q 510 494 509 488 q 517 517 511 507 q 537 550 523 536 l 694 550 l 539 395 m 64 423 l 90 423 l 90 347 l 119 347 l 119 423 l 145 423 l 145 450 l 64 450 l 64 423 m 187 379 l 196 379 l 208 356 q 220 347 213 347 l 246 347 l 228 379 q 210 389 220 389 l 213 389 q 228 397 220 389 q 236 414 236 404 q 225 439 236 429 q 199 450 214 450 l 157 450 l 157 347 l 187 347 l 187 379 m 286 347 l 286 450 l 257 450 l 257 347 l 286 347 m 341 450 l 296 347 l 320 347 q 333 357 327 347 l 336 364 l 371 364 l 376 357 q 388 347 381 347 l 411 347 l 367 450 l 341 450 m 422 347 l 487 347 l 487 374 l 450 374 l 450 450 l 422 450 l 422 347 m 847 450 q 809 435 824 450 q 795 397 795 420 q 809 359 795 373 q 847 344 824 344 q 886 359 871 344 q 901 397 901 373 q 886 435 901 420 q 847 450 871 450 m 980 412 q 983 392 980 400 l 951 438 q 946 445 949 444 q 939 447 944 447 l 914 447 l 914 346 l 945 346 l 945 386 q 942 405 945 391 l 976 352 q 989 346 982 346 l 1010 346 l 1010 447 l 980 447 l 980 412 m 1030 346 l 1095 346 l 1095 373 l 1059 373 l 1059 447 l 1030 447 l 1030 346 m 1153 376 q 1155 386 1153 382 l 1192 447 l 1164 447 q 1153 441 1156 447 l 1141 421 q 1139 412 1139 417 q 1136 405 1138 408 q 1133 421 1136 413 l 1122 441 q 1110 447 1118 447 l 1083 447 l 1120 386 q 1122 376 1122 383 l 1122 346 l 1153 346 l 1153 376 m 197 421 q 205 414 205 421 q 203 408 205 411 q 198 406 201 406 l 187 406 l 187 421 l 197 421 m 847 373 q 830 379 837 373 q 823 397 823 386 q 830 414 823 407 q 847 421 837 421 q 864 414 857 421 q 870 397 870 407 q 864 379 870 386 q 847 373 857 373 m 349 398 q 352 405 350 399 q 353 417 353 411 l 355 417 q 358 398 355 404 l 364 385 l 344 385 l 349 398 m 586 364 q 550 386 568 372 l 706 386 q 689 373 691 374 q 681 369 686 372 q 672 364 676 365 q 662 362 668 364 q 649 359 656 360 q 628 356 639 356 q 586 364 604 356 m 43 218 l 50 218 l 50 247 l 78 247 l 78 254 l 50 254 l 50 277 l 84 277 l 84 285 l 43 285 l 43 218 m 121 224 q 108 230 113 224 q 102 244 102 235 l 102 285 l 95 285 l 95 244 q 102 224 95 231 q 121 217 109 217 q 141 224 133 217 q 149 244 149 232 l 149 285 l 140 285 l 140 244 q 135 229 140 234 q 121 224 130 224 m 166 218 l 202 218 l 202 225 l 174 225 l 174 285 l 166 285 l 166 218 m 217 218 l 254 218 l 254 225 l 223 225 l 223 285 l 217 285 l 217 218 m 346 285 q 343 284 345 285 q 342 282 342 284 l 321 233 q 320 226 320 230 l 319 226 q 318 233 319 230 l 296 282 q 291 285 296 285 l 286 285 l 316 218 l 323 218 l 351 285 l 346 285 m 403 218 l 403 225 l 368 225 l 368 248 l 397 248 l 397 256 l 368 256 l 368 277 l 403 277 l 403 285 l 362 285 l 362 218 l 403 218 m 426 246 l 435 246 l 455 221 q 463 218 459 218 l 467 218 l 447 245 q 444 247 447 247 l 444 247 q 455 253 450 248 q 461 265 461 258 q 455 279 461 273 q 441 285 449 285 l 417 285 l 417 218 l 426 218 l 426 246 m 472 227 q 482 220 476 223 q 493 217 488 217 q 509 222 503 217 q 514 237 514 228 q 495 257 514 252 q 484 268 484 262 q 494 278 484 278 q 506 275 500 278 q 510 277 508 274 l 511 279 q 494 285 506 285 q 481 281 486 285 q 475 268 475 276 q 493 250 475 257 q 508 237 508 244 q 504 227 508 231 q 493 224 500 224 q 479 230 486 226 q 476 230 479 231 q 473 228 474 230 l 472 227 m 536 218 l 536 285 l 530 285 l 530 218 l 536 218 m 586 285 q 561 275 571 285 q 551 251 551 265 q 561 227 551 237 q 586 217 571 217 q 611 226 601 217 q 621 251 621 236 q 611 276 621 266 q 586 285 601 285 m 680 235 q 681 230 680 231 l 646 283 q 640 285 643 285 l 634 285 l 634 218 l 642 218 l 642 270 l 641 275 l 680 220 q 682 218 680 218 l 689 218 l 689 285 l 680 285 l 680 235 m 586 224 q 567 232 576 224 q 558 251 558 240 q 566 270 558 262 q 586 278 575 278 q 605 270 597 278 q 613 251 613 262 q 605 232 613 240 q 586 224 597 224 m 441 277 q 449 274 445 277 q 453 265 453 270 q 449 257 453 261 q 441 254 445 254 l 426 254 l 426 277 l 441 277 m 1198 252 q 1196 256 1198 254 l 1178 273 l 1176 270 q 1177 264 1173 267 l 1186 255 l 727 255 l 727 248 l 1185 248 l 1177 239 q 1176 233 1174 236 l 1178 230 l 1196 248 q 1198 252 1198 249 m 514 184 q 479 170 493 184 q 464 134 464 156 q 478 99 464 113 q 514 84 492 84 q 551 99 536 84 q 566 134 566 113 q 551 170 566 155 q 514 184 536 184 m 761 100 q 800 84 780 84 q 826 93 816 84 q 836 116 836 102 q 806 149 836 143 q 796 155 796 152 q 800 158 796 158 q 806 157 801 158 q 812 155 810 155 q 825 163 821 155 l 830 172 q 817 181 825 178 q 800 184 808 184 q 776 176 786 184 q 767 155 767 168 q 775 136 767 143 q 800 123 783 129 q 806 116 806 121 q 800 111 806 111 q 791 113 795 111 q 786 116 787 115 q 778 118 783 118 q 765 111 771 118 l 761 100 m 883 134 q 897 99 883 113 q 932 84 911 84 q 954 90 944 84 q 969 104 965 96 l 963 113 q 953 117 959 117 q 944 114 947 117 q 931 111 936 111 q 916 117 922 111 q 910 134 910 124 q 916 151 910 144 q 931 158 922 158 q 939 156 936 158 q 944 154 942 155 q 952 151 947 151 q 963 155 959 151 l 969 164 q 954 178 965 172 q 932 184 944 184 q 897 170 911 184 q 883 134 883 155 m 1027 184 q 991 170 1005 184 q 976 134 976 156 q 991 99 976 113 q 1027 84 1005 84 q 1063 99 1049 84 q 1078 134 1078 113 q 1063 170 1078 156 q 1027 184 1049 184 m 116 85 l 116 113 l 89 113 q 75 108 81 113 l 113 158 q 116 170 116 162 l 116 183 l 41 183 l 41 157 l 69 157 q 78 161 75 157 l 43 111 q 38 106 40 108 q 37 99 37 103 l 37 85 l 116 85 m 196 85 l 196 113 l 157 113 l 157 122 l 189 122 l 189 146 l 157 146 l 157 157 l 196 157 l 196 183 l 130 183 l 130 85 l 196 85 m 202 157 l 228 157 l 228 85 l 256 85 l 256 157 l 279 157 l 279 183 l 202 183 l 202 157 m 313 183 l 270 85 l 292 85 q 299 88 296 85 q 304 96 302 91 l 307 102 l 342 102 l 345 96 q 351 88 346 91 q 358 85 355 85 l 380 85 l 338 183 l 313 183 m 388 85 l 417 85 l 417 119 l 449 119 l 449 143 l 417 143 l 417 157 l 455 157 l 455 183 l 388 183 l 388 85 m 640 149 q 643 131 640 137 l 614 174 q 609 181 612 179 q 601 183 607 183 l 579 183 l 579 85 l 608 85 l 608 125 q 604 142 608 134 l 605 142 l 638 91 q 649 85 642 85 l 669 85 l 669 183 l 640 183 l 640 149 m 680 157 l 704 157 l 704 85 l 733 85 l 733 157 l 759 157 l 759 183 l 680 183 l 680 157 m 1181 183 q 1170 174 1175 183 l 1153 139 q 1150 128 1150 135 l 1148 128 q 1145 139 1148 135 l 1129 174 q 1123 180 1126 178 q 1116 183 1121 183 l 1092 183 l 1092 85 l 1120 85 l 1120 128 q 1116 143 1120 134 l 1118 143 l 1136 102 q 1150 94 1139 94 q 1161 102 1157 94 l 1180 143 q 1178 136 1179 140 q 1178 128 1178 132 l 1178 85 l 1205 85 l 1205 183 l 1181 183 m 514 111 q 498 117 505 111 q 492 134 492 124 q 498 151 492 144 q 514 158 505 158 q 530 151 524 158 q 536 134 536 145 q 530 117 536 124 q 514 111 524 111 m 1027 111 q 1011 117 1018 111 q 1005 134 1005 124 q 1011 151 1005 145 q 1027 158 1018 158 q 1044 151 1036 158 q 1051 134 1051 144 q 1044 117 1051 124 q 1027 111 1036 111 m 321 134 q 324 152 324 141 l 326 152 q 329 134 326 139 l 335 120 l 316 120 l 321 134 m 844 99 q 848 88 844 93 q 859 84 852 84 q 869 88 865 84 q 873 99 873 93 q 869 110 873 105 q 859 114 865 114 q 848 110 852 114 q 844 99 844 105 z "},"8":{"ha":1217,"x_min":37,"x_max":1217,"o":"m 1217 314 l 38 314 l 38 476 l 485 476 l 485 478 l 485 490 q 485 491 485 491 l 485 493 q 486 499 485 496 q 487 505 487 502 q 487 509 487 506 q 489 514 488 511 q 540 591 501 561 q 628 621 578 621 q 700 602 667 621 q 752 550 733 582 q 771 478 771 517 l 771 476 l 1217 476 l 1217 314 m 629 343 q 695 361 665 343 q 743 410 725 379 q 761 476 761 440 q 743 542 761 511 q 695 590 725 572 q 629 607 665 607 q 562 590 593 607 q 514 542 532 572 q 497 476 497 511 q 514 409 497 440 q 562 361 532 379 q 629 343 593 343 m 689 575 q 697 570 693 573 q 706 564 701 567 l 548 564 q 566 577 554 570 q 585 585 579 583 q 628 594 602 594 q 672 585 650 594 l 689 575 m 716 555 q 745 476 745 517 q 739 435 745 454 q 718 399 735 420 l 563 399 l 716 555 m 539 395 q 516 433 523 415 q 509 476 509 453 q 510 494 509 488 q 517 517 511 507 q 537 550 523 536 l 694 550 l 539 395 m 64 423 l 90 423 l 90 347 l 119 347 l 119 423 l 145 423 l 145 450 l 64 450 l 64 423 m 187 379 l 196 379 l 208 356 q 220 347 213 347 l 246 347 l 228 379 q 210 389 220 389 l 213 389 q 228 397 220 389 q 236 414 236 404 q 225 439 236 429 q 199 450 214 450 l 157 450 l 157 347 l 187 347 l 187 379 m 286 347 l 286 450 l 257 450 l 257 347 l 286 347 m 341 450 l 296 347 l 320 347 q 333 357 327 347 l 336 364 l 371 364 l 376 357 q 388 347 381 347 l 411 347 l 367 450 l 341 450 m 422 347 l 487 347 l 487 374 l 450 374 l 450 450 l 422 450 l 422 347 m 847 450 q 809 435 824 450 q 795 397 795 420 q 809 359 795 373 q 847 344 824 344 q 886 359 871 344 q 901 397 901 373 q 886 435 901 420 q 847 450 871 450 m 980 412 q 983 392 980 400 l 951 438 q 946 445 949 444 q 939 447 944 447 l 914 447 l 914 346 l 945 346 l 945 386 q 942 405 945 391 l 976 352 q 989 346 982 346 l 1010 346 l 1010 447 l 980 447 l 980 412 m 1030 346 l 1095 346 l 1095 373 l 1059 373 l 1059 447 l 1030 447 l 1030 346 m 1153 376 q 1155 386 1153 382 l 1192 447 l 1164 447 q 1153 441 1156 447 l 1141 421 q 1139 412 1139 417 q 1136 405 1138 408 q 1133 421 1136 413 l 1122 441 q 1110 447 1118 447 l 1083 447 l 1120 386 q 1122 376 1122 383 l 1122 346 l 1153 346 l 1153 376 m 197 421 q 205 414 205 421 q 203 408 205 411 q 198 406 201 406 l 187 406 l 187 421 l 197 421 m 847 373 q 830 379 837 373 q 823 397 823 386 q 830 414 823 407 q 847 421 837 421 q 864 414 857 421 q 870 397 870 407 q 864 379 870 386 q 847 373 857 373 m 349 398 q 352 405 350 399 q 353 417 353 411 l 355 417 q 358 398 355 404 l 364 385 l 344 385 l 349 398 m 586 364 q 550 386 568 372 l 706 386 q 689 373 691 374 q 681 369 686 372 q 672 364 676 365 q 662 362 668 364 q 649 359 656 360 q 628 356 639 356 q 586 364 604 356 m 43 218 l 50 218 l 50 247 l 78 247 l 78 254 l 50 254 l 50 277 l 84 277 l 84 285 l 43 285 l 43 218 m 121 224 q 108 230 113 224 q 102 244 102 235 l 102 285 l 95 285 l 95 244 q 102 224 95 231 q 121 217 109 217 q 141 224 133 217 q 149 244 149 232 l 149 285 l 140 285 l 140 244 q 135 229 140 234 q 121 224 130 224 m 166 218 l 202 218 l 202 225 l 174 225 l 174 285 l 166 285 l 166 218 m 217 218 l 254 218 l 254 225 l 223 225 l 223 285 l 217 285 l 217 218 m 346 285 q 343 284 345 285 q 342 282 342 284 l 321 233 q 320 226 320 230 l 319 226 q 318 233 319 230 l 296 282 q 291 285 296 285 l 286 285 l 316 218 l 323 218 l 351 285 l 346 285 m 403 218 l 403 225 l 368 225 l 368 248 l 397 248 l 397 256 l 368 256 l 368 277 l 403 277 l 403 285 l 362 285 l 362 218 l 403 218 m 426 246 l 435 246 l 455 221 q 463 218 459 218 l 467 218 l 447 245 q 444 247 447 247 l 444 247 q 455 253 450 248 q 461 265 461 258 q 455 279 461 273 q 441 285 449 285 l 417 285 l 417 218 l 426 218 l 426 246 m 472 227 q 482 220 476 223 q 493 217 488 217 q 509 222 503 217 q 514 237 514 228 q 495 257 514 252 q 484 268 484 262 q 494 278 484 278 q 506 275 500 278 q 510 277 508 274 l 511 279 q 494 285 506 285 q 481 281 486 285 q 475 268 475 276 q 493 250 475 257 q 508 237 508 244 q 504 227 508 231 q 493 224 500 224 q 479 230 486 226 q 476 230 479 231 q 473 228 474 230 l 472 227 m 536 218 l 536 285 l 530 285 l 530 218 l 536 218 m 586 285 q 561 275 571 285 q 551 251 551 265 q 561 227 551 237 q 586 217 571 217 q 611 226 601 217 q 621 251 621 236 q 611 276 621 266 q 586 285 601 285 m 680 235 q 681 230 680 231 l 646 283 q 640 285 643 285 l 634 285 l 634 218 l 642 218 l 642 270 l 641 275 l 680 220 q 682 218 680 218 l 689 218 l 689 285 l 680 285 l 680 235 m 586 224 q 567 232 576 224 q 558 251 558 240 q 566 270 558 262 q 586 278 575 278 q 605 270 597 278 q 613 251 613 262 q 605 232 613 240 q 586 224 597 224 m 441 277 q 449 274 445 277 q 453 265 453 270 q 449 257 453 261 q 441 254 445 254 l 426 254 l 426 277 l 441 277 m 1198 252 q 1196 256 1198 254 l 1178 273 l 1176 270 q 1177 264 1173 267 l 1186 255 l 727 255 l 727 248 l 1185 248 l 1177 239 q 1176 233 1174 236 l 1178 230 l 1196 248 q 1198 252 1198 249 m 514 184 q 479 170 493 184 q 464 134 464 156 q 478 99 464 113 q 514 84 492 84 q 551 99 536 84 q 566 134 566 113 q 551 170 566 155 q 514 184 536 184 m 761 100 q 800 84 780 84 q 826 93 816 84 q 836 116 836 102 q 806 149 836 143 q 796 155 796 152 q 800 158 796 158 q 806 157 801 158 q 812 155 810 155 q 825 163 821 155 l 830 172 q 817 181 825 178 q 800 184 808 184 q 776 176 786 184 q 767 155 767 168 q 775 136 767 143 q 800 123 783 129 q 806 116 806 121 q 800 111 806 111 q 791 113 795 111 q 786 116 787 115 q 778 118 783 118 q 765 111 771 118 l 761 100 m 883 134 q 897 99 883 113 q 932 84 911 84 q 954 90 944 84 q 969 104 965 96 l 963 113 q 953 117 959 117 q 944 114 947 117 q 931 111 936 111 q 916 117 922 111 q 910 134 910 124 q 916 151 910 144 q 931 158 922 158 q 939 156 936 158 q 944 154 942 155 q 952 151 947 151 q 963 155 959 151 l 969 164 q 954 178 965 172 q 932 184 944 184 q 897 170 911 184 q 883 134 883 155 m 1027 184 q 991 170 1005 184 q 976 134 976 156 q 991 99 976 113 q 1027 84 1005 84 q 1063 99 1049 84 q 1078 134 1078 113 q 1063 170 1078 156 q 1027 184 1049 184 m 116 85 l 116 113 l 89 113 q 75 108 81 113 l 113 158 q 116 170 116 162 l 116 183 l 41 183 l 41 157 l 69 157 q 78 161 75 157 l 43 111 q 38 106 40 108 q 37 99 37 103 l 37 85 l 116 85 m 196 85 l 196 113 l 157 113 l 157 122 l 189 122 l 189 146 l 157 146 l 157 157 l 196 157 l 196 183 l 130 183 l 130 85 l 196 85 m 202 157 l 228 157 l 228 85 l 256 85 l 256 157 l 279 157 l 279 183 l 202 183 l 202 157 m 313 183 l 270 85 l 292 85 q 299 88 296 85 q 304 96 302 91 l 307 102 l 342 102 l 345 96 q 351 88 346 91 q 358 85 355 85 l 380 85 l 338 183 l 313 183 m 388 85 l 417 85 l 417 119 l 449 119 l 449 143 l 417 143 l 417 157 l 455 157 l 455 183 l 388 183 l 388 85 m 640 149 q 643 131 640 137 l 614 174 q 609 181 612 179 q 601 183 607 183 l 579 183 l 579 85 l 608 85 l 608 125 q 604 142 608 134 l 605 142 l 638 91 q 649 85 642 85 l 669 85 l 669 183 l 640 183 l 640 149 m 680 157 l 704 157 l 704 85 l 733 85 l 733 157 l 759 157 l 759 183 l 680 183 l 680 157 m 1181 183 q 1170 174 1175 183 l 1153 139 q 1150 128 1150 135 l 1148 128 q 1145 139 1148 135 l 1129 174 q 1123 180 1126 178 q 1116 183 1121 183 l 1092 183 l 1092 85 l 1120 85 l 1120 128 q 1116 143 1120 134 l 1118 143 l 1136 102 q 1150 94 1139 94 q 1161 102 1157 94 l 1180 143 q 1178 136 1179 140 q 1178 128 1178 132 l 1178 85 l 1205 85 l 1205 183 l 1181 183 m 514 111 q 498 117 505 111 q 492 134 492 124 q 498 151 492 144 q 514 158 505 158 q 530 151 524 158 q 536 134 536 145 q 530 117 536 124 q 514 111 524 111 m 1027 111 q 1011 117 1018 111 q 1005 134 1005 124 q 1011 151 1005 145 q 1027 158 1018 158 q 1044 151 1036 158 q 1051 134 1051 144 q 1044 117 1051 124 q 1027 111 1036 111 m 321 134 q 324 152 324 141 l 326 152 q 329 134 326 139 l 335 120 l 316 120 l 321 134 m 844 99 q 848 88 844 93 q 859 84 852 84 q 869 88 865 84 q 873 99 873 93 q 869 110 873 105 q 859 114 865 114 q 848 110 852 114 q 844 99 844 105 z "},"9":{"ha":1217,"x_min":37,"x_max":1217,"o":"m 1217 314 l 38 314 l 38 476 l 485 476 l 485 478 l 485 490 q 485 491 485 491 l 485 493 q 486 499 485 496 q 487 505 487 502 q 487 509 487 506 q 489 514 488 511 q 540 591 501 561 q 628 621 578 621 q 700 602 667 621 q 752 550 733 582 q 771 478 771 517 l 771 476 l 1217 476 l 1217 314 m 629 343 q 695 361 665 343 q 743 410 725 379 q 761 476 761 440 q 743 542 761 511 q 695 590 725 572 q 629 607 665 607 q 562 590 593 607 q 514 542 532 572 q 497 476 497 511 q 514 409 497 440 q 562 361 532 379 q 629 343 593 343 m 689 575 q 697 570 693 573 q 706 564 701 567 l 548 564 q 566 577 554 570 q 585 585 579 583 q 628 594 602 594 q 672 585 650 594 l 689 575 m 716 555 q 745 476 745 517 q 739 435 745 454 q 718 399 735 420 l 563 399 l 716 555 m 539 395 q 516 433 523 415 q 509 476 509 453 q 510 494 509 488 q 517 517 511 507 q 537 550 523 536 l 694 550 l 539 395 m 64 423 l 90 423 l 90 347 l 119 347 l 119 423 l 145 423 l 145 450 l 64 450 l 64 423 m 187 379 l 196 379 l 208 356 q 220 347 213 347 l 246 347 l 228 379 q 210 389 220 389 l 213 389 q 228 397 220 389 q 236 414 236 404 q 225 439 236 429 q 199 450 214 450 l 157 450 l 157 347 l 187 347 l 187 379 m 286 347 l 286 450 l 257 450 l 257 347 l 286 347 m 341 450 l 296 347 l 320 347 q 333 357 327 347 l 336 364 l 371 364 l 376 357 q 388 347 381 347 l 411 347 l 367 450 l 341 450 m 422 347 l 487 347 l 487 374 l 450 374 l 450 450 l 422 450 l 422 347 m 847 450 q 809 435 824 450 q 795 397 795 420 q 809 359 795 373 q 847 344 824 344 q 886 359 871 344 q 901 397 901 373 q 886 435 901 420 q 847 450 871 450 m 980 412 q 983 392 980 400 l 951 438 q 946 445 949 444 q 939 447 944 447 l 914 447 l 914 346 l 945 346 l 945 386 q 942 405 945 391 l 976 352 q 989 346 982 346 l 1010 346 l 1010 447 l 980 447 l 980 412 m 1030 346 l 1095 346 l 1095 373 l 1059 373 l 1059 447 l 1030 447 l 1030 346 m 1153 376 q 1155 386 1153 382 l 1192 447 l 1164 447 q 1153 441 1156 447 l 1141 421 q 1139 412 1139 417 q 1136 405 1138 408 q 1133 421 1136 413 l 1122 441 q 1110 447 1118 447 l 1083 447 l 1120 386 q 1122 376 1122 383 l 1122 346 l 1153 346 l 1153 376 m 197 421 q 205 414 205 421 q 203 408 205 411 q 198 406 201 406 l 187 406 l 187 421 l 197 421 m 847 373 q 830 379 837 373 q 823 397 823 386 q 830 414 823 407 q 847 421 837 421 q 864 414 857 421 q 870 397 870 407 q 864 379 870 386 q 847 373 857 373 m 349 398 q 352 405 350 399 q 353 417 353 411 l 355 417 q 358 398 355 404 l 364 385 l 344 385 l 349 398 m 586 364 q 550 386 568 372 l 706 386 q 689 373 691 374 q 681 369 686 372 q 672 364 676 365 q 662 362 668 364 q 649 359 656 360 q 628 356 639 356 q 586 364 604 356 m 43 218 l 50 218 l 50 247 l 78 247 l 78 254 l 50 254 l 50 277 l 84 277 l 84 285 l 43 285 l 43 218 m 121 224 q 108 230 113 224 q 102 244 102 235 l 102 285 l 95 285 l 95 244 q 102 224 95 231 q 121 217 109 217 q 141 224 133 217 q 149 244 149 232 l 149 285 l 140 285 l 140 244 q 135 229 140 234 q 121 224 130 224 m 166 218 l 202 218 l 202 225 l 174 225 l 174 285 l 166 285 l 166 218 m 217 218 l 254 218 l 254 225 l 223 225 l 223 285 l 217 285 l 217 218 m 346 285 q 343 284 345 285 q 342 282 342 284 l 321 233 q 320 226 320 230 l 319 226 q 318 233 319 230 l 296 282 q 291 285 296 285 l 286 285 l 316 218 l 323 218 l 351 285 l 346 285 m 403 218 l 403 225 l 368 225 l 368 248 l 397 248 l 397 256 l 368 256 l 368 277 l 403 277 l 403 285 l 362 285 l 362 218 l 403 218 m 426 246 l 435 246 l 455 221 q 463 218 459 218 l 467 218 l 447 245 q 444 247 447 247 l 444 247 q 455 253 450 248 q 461 265 461 258 q 455 279 461 273 q 441 285 449 285 l 417 285 l 417 218 l 426 218 l 426 246 m 472 227 q 482 220 476 223 q 493 217 488 217 q 509 222 503 217 q 514 237 514 228 q 495 257 514 252 q 484 268 484 262 q 494 278 484 278 q 506 275 500 278 q 510 277 508 274 l 511 279 q 494 285 506 285 q 481 281 486 285 q 475 268 475 276 q 493 250 475 257 q 508 237 508 244 q 504 227 508 231 q 493 224 500 224 q 479 230 486 226 q 476 230 479 231 q 473 228 474 230 l 472 227 m 536 218 l 536 285 l 530 285 l 530 218 l 536 218 m 586 285 q 561 275 571 285 q 551 251 551 265 q 561 227 551 237 q 586 217 571 217 q 611 226 601 217 q 621 251 621 236 q 611 276 621 266 q 586 285 601 285 m 680 235 q 681 230 680 231 l 646 283 q 640 285 643 285 l 634 285 l 634 218 l 642 218 l 642 270 l 641 275 l 680 220 q 682 218 680 218 l 689 218 l 689 285 l 680 285 l 680 235 m 586 224 q 567 232 576 224 q 558 251 558 240 q 566 270 558 262 q 586 278 575 278 q 605 270 597 278 q 613 251 613 262 q 605 232 613 240 q 586 224 597 224 m 441 277 q 449 274 445 277 q 453 265 453 270 q 449 257 453 261 q 441 254 445 254 l 426 254 l 426 277 l 441 277 m 1198 252 q 1196 256 1198 254 l 1178 273 l 1176 270 q 1177 264 1173 267 l 1186 255 l 727 255 l 727 248 l 1185 248 l 1177 239 q 1176 233 1174 236 l 1178 230 l 1196 248 q 1198 252 1198 249 m 514 184 q 479 170 493 184 q 464 134 464 156 q 478 99 464 113 q 514 84 492 84 q 551 99 536 84 q 566 134 566 113 q 551 170 566 155 q 514 184 536 184 m 761 100 q 800 84 780 84 q 826 93 816 84 q 836 116 836 102 q 806 149 836 143 q 796 155 796 152 q 800 158 796 158 q 806 157 801 158 q 812 155 810 155 q 825 163 821 155 l 830 172 q 817 181 825 178 q 800 184 808 184 q 776 176 786 184 q 767 155 767 168 q 775 136 767 143 q 800 123 783 129 q 806 116 806 121 q 800 111 806 111 q 791 113 795 111 q 786 116 787 115 q 778 118 783 118 q 765 111 771 118 l 761 100 m 883 134 q 897 99 883 113 q 932 84 911 84 q 954 90 944 84 q 969 104 965 96 l 963 113 q 953 117 959 117 q 944 114 947 117 q 931 111 936 111 q 916 117 922 111 q 910 134 910 124 q 916 151 910 144 q 931 158 922 158 q 939 156 936 158 q 944 154 942 155 q 952 151 947 151 q 963 155 959 151 l 969 164 q 954 178 965 172 q 932 184 944 184 q 897 170 911 184 q 883 134 883 155 m 1027 184 q 991 170 1005 184 q 976 134 976 156 q 991 99 976 113 q 1027 84 1005 84 q 1063 99 1049 84 q 1078 134 1078 113 q 1063 170 1078 156 q 1027 184 1049 184 m 116 85 l 116 113 l 89 113 q 75 108 81 113 l 113 158 q 116 170 116 162 l 116 183 l 41 183 l 41 157 l 69 157 q 78 161 75 157 l 43 111 q 38 106 40 108 q 37 99 37 103 l 37 85 l 116 85 m 196 85 l 196 113 l 157 113 l 157 122 l 189 122 l 189 146 l 157 146 l 157 157 l 196 157 l 196 183 l 130 183 l 130 85 l 196 85 m 202 157 l 228 157 l 228 85 l 256 85 l 256 157 l 279 157 l 279 183 l 202 183 l 202 157 m 313 183 l 270 85 l 292 85 q 299 88 296 85 q 304 96 302 91 l 307 102 l 342 102 l 345 96 q 351 88 346 91 q 358 85 355 85 l 380 85 l 338 183 l 313 183 m 388 85 l 417 85 l 417 119 l 449 119 l 449 143 l 417 143 l 417 157 l 455 157 l 455 183 l 388 183 l 388 85 m 640 149 q 643 131 640 137 l 614 174 q 609 181 612 179 q 601 183 607 183 l 579 183 l 579 85 l 608 85 l 608 125 q 604 142 608 134 l 605 142 l 638 91 q 649 85 642 85 l 669 85 l 669 183 l 640 183 l 640 149 m 680 157 l 704 157 l 704 85 l 733 85 l 733 157 l 759 157 l 759 183 l 680 183 l 680 157 m 1181 183 q 1170 174 1175 183 l 1153 139 q 1150 128 1150 135 l 1148 128 q 1145 139 1148 135 l 1129 174 q 1123 180 1126 178 q 1116 183 1121 183 l 1092 183 l 1092 85 l 1120 85 l 1120 128 q 1116 143 1120 134 l 1118 143 l 1136 102 q 1150 94 1139 94 q 1161 102 1157 94 l 1180 143 q 1178 136 1179 140 q 1178 128 1178 132 l 1178 85 l 1205 85 l 1205 183 l 1181 183 m 514 111 q 498 117 505 111 q 492 134 492 124 q 498 151 492 144 q 514 158 505 158 q 530 151 524 158 q 536 134 536 145 q 530 117 536 124 q 514 111 524 111 m 1027 111 q 1011 117 1018 111 q 1005 134 1005 124 q 1011 151 1005 145 q 1027 158 1018 158 q 1044 151 1036 158 q 1051 134 1051 144 q 1044 117 1051 124 q 1027 111 1036 111 m 321 134 q 324 152 324 141 l 326 152 q 329 134 326 139 l 335 120 l 316 120 l 321 134 m 844 99 q 848 88 844 93 q 859 84 852 84 q 869 88 865 84 q 873 99 873 93 q 869 110 873 105 q 859 114 865 114 q 848 110 852 114 q 844 99 844 105 z "}," ":{"ha":373,"x_min":0,"x_max":0,"o":""},"":{"ha":1217,"x_min":37,"x_max":1217,"o":"m 1217 314 l 38 314 l 38 476 l 485 476 l 485 478 l 485 490 q 485 491 485 491 l 485 493 q 486 499 485 496 q 487 505 487 502 q 487 509 487 506 q 489 514 488 511 q 540 591 501 561 q 628 621 578 621 q 700 602 667 621 q 752 550 733 582 q 771 478 771 517 l 771 476 l 1217 476 l 1217 314 m 629 343 q 695 361 665 343 q 743 410 725 379 q 761 476 761 440 q 743 542 761 511 q 695 590 725 572 q 629 607 665 607 q 562 590 593 607 q 514 542 532 572 q 497 476 497 511 q 514 409 497 440 q 562 361 532 379 q 629 343 593 343 m 689 575 q 697 570 693 573 q 706 564 701 567 l 548 564 q 566 577 554 570 q 585 585 579 583 q 628 594 602 594 q 672 585 650 594 l 689 575 m 716 555 q 745 476 745 517 q 739 435 745 454 q 718 399 735 420 l 563 399 l 716 555 m 539 395 q 516 433 523 415 q 509 476 509 453 q 510 494 509 488 q 517 517 511 507 q 537 550 523 536 l 694 550 l 539 395 m 64 423 l 90 423 l 90 347 l 119 347 l 119 423 l 145 423 l 145 450 l 64 450 l 64 423 m 187 379 l 196 379 l 208 356 q 220 347 213 347 l 246 347 l 228 379 q 210 389 220 389 l 213 389 q 228 397 220 389 q 236 414 236 404 q 225 439 236 429 q 199 450 214 450 l 157 450 l 157 347 l 187 347 l 187 379 m 286 347 l 286 450 l 257 450 l 257 347 l 286 347 m 341 450 l 296 347 l 320 347 q 333 357 327 347 l 336 364 l 371 364 l 376 357 q 388 347 381 347 l 411 347 l 367 450 l 341 450 m 422 347 l 487 347 l 487 374 l 450 374 l 450 450 l 422 450 l 422 347 m 847 450 q 809 435 824 450 q 795 397 795 420 q 809 359 795 373 q 847 344 824 344 q 886 359 871 344 q 901 397 901 373 q 886 435 901 420 q 847 450 871 450 m 980 412 q 983 392 980 400 l 951 438 q 946 445 949 444 q 939 447 944 447 l 914 447 l 914 346 l 945 346 l 945 386 q 942 405 945 391 l 976 352 q 989 346 982 346 l 1010 346 l 1010 447 l 980 447 l 980 412 m 1030 346 l 1095 346 l 1095 373 l 1059 373 l 1059 447 l 1030 447 l 1030 346 m 1153 376 q 1155 386 1153 382 l 1192 447 l 1164 447 q 1153 441 1156 447 l 1141 421 q 1139 412 1139 417 q 1136 405 1138 408 q 1133 421 1136 413 l 1122 441 q 1110 447 1118 447 l 1083 447 l 1120 386 q 1122 376 1122 383 l 1122 346 l 1153 346 l 1153 376 m 197 421 q 205 414 205 421 q 203 408 205 411 q 198 406 201 406 l 187 406 l 187 421 l 197 421 m 847 373 q 830 379 837 373 q 823 397 823 386 q 830 414 823 407 q 847 421 837 421 q 864 414 857 421 q 870 397 870 407 q 864 379 870 386 q 847 373 857 373 m 349 398 q 352 405 350 399 q 353 417 353 411 l 355 417 q 358 398 355 404 l 364 385 l 344 385 l 349 398 m 586 364 q 550 386 568 372 l 706 386 q 689 373 691 374 q 681 369 686 372 q 672 364 676 365 q 662 362 668 364 q 649 359 656 360 q 628 356 639 356 q 586 364 604 356 m 43 218 l 50 218 l 50 247 l 78 247 l 78 254 l 50 254 l 50 277 l 84 277 l 84 285 l 43 285 l 43 218 m 121 224 q 108 230 113 224 q 102 244 102 235 l 102 285 l 95 285 l 95 244 q 102 224 95 231 q 121 217 109 217 q 141 224 133 217 q 149 244 149 232 l 149 285 l 140 285 l 140 244 q 135 229 140 234 q 121 224 130 224 m 166 218 l 202 218 l 202 225 l 174 225 l 174 285 l 166 285 l 166 218 m 217 218 l 254 218 l 254 225 l 223 225 l 223 285 l 217 285 l 217 218 m 346 285 q 343 284 345 285 q 342 282 342 284 l 321 233 q 320 226 320 230 l 319 226 q 318 233 319 230 l 296 282 q 291 285 296 285 l 286 285 l 316 218 l 323 218 l 351 285 l 346 285 m 403 218 l 403 225 l 368 225 l 368 248 l 397 248 l 397 256 l 368 256 l 368 277 l 403 277 l 403 285 l 362 285 l 362 218 l 403 218 m 426 246 l 435 246 l 455 221 q 463 218 459 218 l 467 218 l 447 245 q 444 247 447 247 l 444 247 q 455 253 450 248 q 461 265 461 258 q 455 279 461 273 q 441 285 449 285 l 417 285 l 417 218 l 426 218 l 426 246 m 472 227 q 482 220 476 223 q 493 217 488 217 q 509 222 503 217 q 514 237 514 228 q 495 257 514 252 q 484 268 484 262 q 494 278 484 278 q 506 275 500 278 q 510 277 508 274 l 511 279 q 494 285 506 285 q 481 281 486 285 q 475 268 475 276 q 493 250 475 257 q 508 237 508 244 q 504 227 508 231 q 493 224 500 224 q 479 230 486 226 q 476 230 479 231 q 473 228 474 230 l 472 227 m 536 218 l 536 285 l 530 285 l 530 218 l 536 218 m 586 285 q 561 275 571 285 q 551 251 551 265 q 561 227 551 237 q 586 217 571 217 q 611 226 601 217 q 621 251 621 236 q 611 276 621 266 q 586 285 601 285 m 680 235 q 681 230 680 231 l 646 283 q 640 285 643 285 l 634 285 l 634 218 l 642 218 l 642 270 l 641 275 l 680 220 q 682 218 680 218 l 689 218 l 689 285 l 680 285 l 680 235 m 586 224 q 567 232 576 224 q 558 251 558 240 q 566 270 558 262 q 586 278 575 278 q 605 270 597 278 q 613 251 613 262 q 605 232 613 240 q 586 224 597 224 m 441 277 q 449 274 445 277 q 453 265 453 270 q 449 257 453 261 q 441 254 445 254 l 426 254 l 426 277 l 441 277 m 1198 252 q 1196 256 1198 254 l 1178 273 l 1176 270 q 1177 264 1173 267 l 1186 255 l 727 255 l 727 248 l 1185 248 l 1177 239 q 1176 233 1174 236 l 1178 230 l 1196 248 q 1198 252 1198 249 m 514 184 q 479 170 493 184 q 464 134 464 156 q 478 99 464 113 q 514 84 492 84 q 551 99 536 84 q 566 134 566 113 q 551 170 566 155 q 514 184 536 184 m 761 100 q 800 84 780 84 q 826 93 816 84 q 836 116 836 102 q 806 149 836 143 q 796 155 796 152 q 800 158 796 158 q 806 157 801 158 q 812 155 810 155 q 825 163 821 155 l 830 172 q 817 181 825 178 q 800 184 808 184 q 776 176 786 184 q 767 155 767 168 q 775 136 767 143 q 800 123 783 129 q 806 116 806 121 q 800 111 806 111 q 791 113 795 111 q 786 116 787 115 q 778 118 783 118 q 765 111 771 118 l 761 100 m 883 134 q 897 99 883 113 q 932 84 911 84 q 954 90 944 84 q 969 104 965 96 l 963 113 q 953 117 959 117 q 944 114 947 117 q 931 111 936 111 q 916 117 922 111 q 910 134 910 124 q 916 151 910 144 q 931 158 922 158 q 939 156 936 158 q 944 154 942 155 q 952 151 947 151 q 963 155 959 151 l 969 164 q 954 178 965 172 q 932 184 944 184 q 897 170 911 184 q 883 134 883 155 m 1027 184 q 991 170 1005 184 q 976 134 976 156 q 991 99 976 113 q 1027 84 1005 84 q 1063 99 1049 84 q 1078 134 1078 113 q 1063 170 1078 156 q 1027 184 1049 184 m 116 85 l 116 113 l 89 113 q 75 108 81 113 l 113 158 q 116 170 116 162 l 116 183 l 41 183 l 41 157 l 69 157 q 78 161 75 157 l 43 111 q 38 106 40 108 q 37 99 37 103 l 37 85 l 116 85 m 196 85 l 196 113 l 157 113 l 157 122 l 189 122 l 189 146 l 157 146 l 157 157 l 196 157 l 196 183 l 130 183 l 130 85 l 196 85 m 202 157 l 228 157 l 228 85 l 256 85 l 256 157 l 279 157 l 279 183 l 202 183 l 202 157 m 313 183 l 270 85 l 292 85 q 299 88 296 85 q 304 96 302 91 l 307 102 l 342 102 l 345 96 q 351 88 346 91 q 358 85 355 85 l 380 85 l 338 183 l 313 183 m 388 85 l 417 85 l 417 119 l 449 119 l 449 143 l 417 143 l 417 157 l 455 157 l 455 183 l 388 183 l 388 85 m 640 149 q 643 131 640 137 l 614 174 q 609 181 612 179 q 601 183 607 183 l 579 183 l 579 85 l 608 85 l 608 125 q 604 142 608 134 l 605 142 l 638 91 q 649 85 642 85 l 669 85 l 669 183 l 640 183 l 640 149 m 680 157 l 704 157 l 704 85 l 733 85 l 733 157 l 759 157 l 759 183 l 680 183 l 680 157 m 1181 183 q 1170 174 1175 183 l 1153 139 q 1150 128 1150 135 l 1148 128 q 1145 139 1148 135 l 1129 174 q 1123 180 1126 178 q 1116 183 1121 183 l 1092 183 l 1092 85 l 1120 85 l 1120 128 q 1116 143 1120 134 l 1118 143 l 1136 102 q 1150 94 1139 94 q 1161 102 1157 94 l 1180 143 q 1178 136 1179 140 q 1178 128 1178 132 l 1178 85 l 1205 85 l 1205 183 l 1181 183 m 514 111 q 498 117 505 111 q 492 134 492 124 q 498 151 492 144 q 514 158 505 158 q 530 151 524 158 q 536 134 536 145 q 530 117 536 124 q 514 111 524 111 m 1027 111 q 1011 117 1018 111 q 1005 134 1005 124 q 1011 151 1005 145 q 1027 158 1018 158 q 1044 151 1036 158 q 1051 134 1051 144 q 1044 117 1051 124 q 1027 111 1036 111 m 321 134 q 324 152 324 141 l 326 152 q 329 134 326 139 l 335 120 l 316 120 l 321 134 m 844 99 q 848 88 844 93 q 859 84 852 84 q 869 88 865 84 q 873 99 873 93 q 869 110 873 105 q 859 114 865 114 q 848 110 852 114 q 844 99 844 105 z "},"A":{"ha":1059,"x_min":19,"x_max":1039,"o":"m 1037 34 q 1039 22 1039 28 q 1033 6 1039 11 q 1014 0 1026 0 l 799 0 q 765 25 774 0 l 718 164 l 341 164 l 293 25 q 260 0 286 0 l 46 0 q 27 6 34 0 q 19 22 19 11 q 22 34 19 28 l 404 1027 q 438 1051 413 1051 l 623 1051 q 657 1027 648 1051 l 1037 34 m 642 388 l 542 682 l 529 730 l 517 682 l 417 388 l 642 388 z "},"B":{"ha":990,"x_min":105,"x_max":939,"o":"m 134 0 q 105 30 105 0 l 105 1019 q 134 1049 105 1049 l 539 1049 q 724 1014 644 1049 q 848 913 804 978 q 892 762 892 848 q 876 678 892 719 q 833 606 860 637 q 774 562 806 576 q 860 507 822 546 q 918 417 898 469 q 939 308 939 365 q 895 147 939 217 q 770 38 851 77 q 582 0 689 0 l 134 0 m 515 641 q 592 668 563 641 q 621 733 621 694 q 594 795 621 771 q 522 818 567 818 l 373 818 l 373 641 l 515 641 m 559 224 q 638 255 609 224 q 668 338 668 286 q 653 391 668 366 q 611 431 638 416 q 549 446 584 446 l 373 446 l 373 224 l 559 224 z "},"C":{"ha":984,"x_min":52,"x_max":942,"o":"m 598 -19 q 321 55 447 -19 q 124 252 196 128 q 52 526 52 377 q 124 800 52 676 q 321 997 196 925 q 598 1069 446 1069 q 775 1041 691 1069 q 929 961 860 1013 q 942 939 942 951 q 934 919 942 929 l 813 761 q 791 748 803 748 q 771 755 781 748 q 688 796 733 781 q 598 812 644 812 q 463 774 526 812 q 363 671 400 736 q 325 526 325 605 q 363 381 325 447 q 463 277 400 315 q 598 239 526 239 q 689 252 650 239 q 773 297 728 265 q 793 304 783 304 q 815 291 806 304 l 934 132 q 942 111 942 120 q 931 92 942 101 q 777 10 862 39 q 598 -19 691 -19 z "},"D":{"ha":1104,"x_min":105,"x_max":1052,"o":"m 134 0 q 105 30 105 0 l 105 1019 q 134 1049 105 1049 l 500 1049 q 778 980 652 1049 q 979 792 905 912 q 1052 525 1052 672 q 979 258 1052 378 q 780 69 906 137 q 502 0 653 0 l 134 0 m 511 258 q 649 291 588 258 q 745 386 710 325 q 780 525 780 447 q 745 663 780 602 q 649 758 710 724 q 510 792 587 792 l 373 792 l 373 258 l 511 258 z "},"E":{"ha":930,"x_min":105,"x_max":878,"o":"m 878 30 q 848 0 878 0 l 134 0 q 105 30 105 0 l 105 1019 q 134 1049 105 1049 l 837 1049 q 867 1019 867 1049 l 867 836 q 837 806 867 806 l 373 806 l 373 643 l 730 643 q 759 613 759 643 l 759 445 q 730 415 759 415 l 373 415 l 373 243 l 848 243 q 878 213 878 243 l 878 30 z "},"F":{"ha":855,"x_min":105,"x_max":824,"o":"m 373 30 q 343 0 373 0 l 134 0 q 105 30 105 0 l 105 1019 q 134 1049 105 1049 l 794 1049 q 824 1019 824 1049 l 824 836 q 794 806 824 806 l 373 806 l 373 583 l 686 583 q 716 553 716 583 l 716 385 q 686 355 716 355 l 373 355 l 373 30 z "},"G":{"ha":1027,"x_min":52,"x_max":960,"o":"m 706 455 q 736 485 706 485 l 930 485 q 960 455 960 485 l 960 119 q 942 83 960 96 q 782 8 871 34 q 598 -19 693 -19 q 321 55 447 -19 q 124 252 196 128 q 52 526 52 377 q 124 800 52 676 q 321 997 196 925 q 598 1069 446 1069 q 775 1041 691 1069 q 929 961 860 1013 q 942 939 942 951 q 934 919 942 929 l 813 761 q 791 748 803 748 q 771 755 781 748 q 688 796 733 781 q 598 812 644 812 q 463 774 526 812 q 363 671 400 736 q 325 526 325 605 q 363 378 325 446 q 463 271 400 311 q 598 231 526 231 q 706 247 658 231 l 706 455 z "},"H":{"ha":1130,"x_min":105,"x_max":1025,"o":"m 373 30 q 343 0 373 0 l 134 0 q 105 30 105 0 l 105 1019 q 134 1049 105 1049 l 343 1049 q 373 1019 373 1049 l 373 677 l 756 677 l 756 1019 q 786 1049 756 1049 l 995 1049 q 1025 1019 1025 1049 l 1025 30 q 995 0 1025 0 l 786 0 q 756 30 756 0 l 756 420 l 373 420 l 373 30 z "},"I":{"ha":478,"x_min":105,"x_max":373,"o":"m 373 30 q 343 0 373 0 l 134 0 q 105 30 105 0 l 105 1019 q 134 1049 105 1049 l 343 1049 q 373 1019 373 1049 l 373 30 z "},"J":{"ha":702,"x_min":5,"x_max":618,"o":"m 270 -22 q 144 2 210 -22 q 17 70 78 26 q 5 91 5 79 q 13 113 5 100 l 123 270 q 145 283 131 283 q 165 276 155 283 q 267 236 225 236 q 328 261 306 236 q 349 338 349 286 l 349 1019 q 379 1049 349 1049 l 588 1049 q 618 1019 618 1049 l 618 319 q 576 137 618 214 q 455 19 534 60 q 270 -22 376 -22 z "},"K":{"ha":1079,"x_min":105,"x_max":1053,"o":"m 1047 36 q 1053 18 1053 27 q 1046 5 1053 10 q 1027 0 1039 0 l 774 0 q 738 19 750 0 l 488 408 l 373 273 l 373 30 q 343 0 373 0 l 134 0 q 105 30 105 0 l 105 1019 q 134 1049 105 1049 l 343 1049 q 373 1019 373 1049 l 373 638 l 691 1032 q 727 1049 705 1049 l 985 1049 q 1004 1045 997 1049 q 1010 1032 1010 1040 q 1001 1013 1010 1023 l 662 613 l 1047 36 z "},"L":{"ha":829,"x_min":105,"x_max":808,"o":"m 808 30 q 778 0 808 0 l 134 0 q 105 30 105 0 l 105 1019 q 134 1049 105 1049 l 343 1049 q 373 1019 373 1049 l 373 257 l 778 257 q 808 227 808 257 l 808 30 z "},"M":{"ha":1357,"x_min":56,"x_max":1301,"o":"m 329 28 q 297 0 325 0 l 86 0 q 63 8 71 0 q 57 31 56 16 l 185 1022 q 195 1042 187 1035 q 217 1049 204 1049 l 464 1049 q 497 1024 491 1049 l 678 372 l 858 1024 q 891 1049 865 1049 l 1139 1049 q 1161 1042 1152 1049 q 1171 1022 1169 1035 l 1299 31 q 1293 7 1301 16 q 1271 -1 1286 -1 l 1059 -1 q 1027 28 1031 -1 l 965 618 l 803 25 q 771 0 797 0 l 588 0 q 556 25 562 0 l 394 618 l 329 28 z "},"N":{"ha":1125,"x_min":105,"x_max":1020,"o":"m 366 30 q 336 0 366 0 l 134 0 q 105 30 105 0 l 105 1019 q 134 1049 105 1049 l 365 1049 q 401 1030 389 1049 l 759 456 l 759 1019 q 789 1049 759 1049 l 990 1049 q 1020 1019 1020 1049 l 1020 30 q 990 0 1020 0 l 785 0 q 749 19 762 0 l 366 626 l 366 30 z "},"O":{"ha":1195,"x_min":52,"x_max":1143,"o":"m 598 -19 q 321 55 447 -19 q 124 252 196 128 q 52 526 52 377 q 124 800 52 676 q 321 997 196 925 q 598 1069 446 1069 q 874 997 750 1069 q 1071 800 999 924 q 1143 526 1143 676 q 1071 253 1143 378 q 874 55 999 128 q 598 -19 749 -19 m 598 239 q 733 277 671 239 q 833 380 796 314 q 871 526 871 447 q 833 671 871 605 q 733 774 795 736 q 598 812 670 812 q 463 774 526 812 q 363 671 400 736 q 325 526 325 605 q 363 381 325 447 q 463 277 400 315 q 598 239 526 239 z "},"P":{"ha":951,"x_min":105,"x_max":916,"o":"m 373 30 q 343 0 373 0 l 134 0 q 105 30 105 0 l 105 1019 q 134 1049 105 1049 l 538 1049 q 737 1004 652 1049 q 870 878 823 958 q 916 697 916 797 q 871 505 916 588 q 742 376 827 422 q 541 330 657 330 l 373 330 l 373 30 m 520 573 q 585 588 556 573 q 631 632 614 604 q 647 694 647 660 q 631 753 647 727 q 585 792 614 778 q 520 806 556 806 l 373 806 l 373 573 l 520 573 z "},"Q":{"ha":1195,"x_min":52,"x_max":1143,"o":"m 1143 526 q 1090 289 1143 399 q 943 102 1037 178 q 729 -4 849 25 l 729 -187 q 699 -217 729 -217 l 490 -217 q 460 -187 460 -217 l 460 -1 q 249 105 341 28 q 104 291 156 181 q 52 526 52 401 q 124 800 52 676 q 321 997 196 925 q 598 1069 446 1069 q 874 997 750 1069 q 1071 800 999 924 q 1143 526 1143 676 m 598 239 q 733 277 671 239 q 833 380 796 314 q 871 526 871 447 q 833 671 871 605 q 733 774 795 736 q 598 812 670 812 q 463 774 526 812 q 363 671 400 736 q 325 526 325 605 q 363 381 325 447 q 463 277 400 315 q 598 239 526 239 z "},"R":{"ha":1002,"x_min":105,"x_max":960,"o":"m 134 0 q 105 30 105 0 l 105 1019 q 134 1049 105 1049 l 558 1049 q 750 1004 666 1049 q 880 878 833 959 q 927 692 927 797 q 886 521 927 592 q 771 405 845 450 l 956 35 q 960 19 960 26 q 953 5 960 10 q 934 0 946 0 l 695 0 q 660 22 671 0 l 514 335 q 482 335 503 335 l 373 335 l 373 30 q 343 0 373 0 l 134 0 m 533 562 q 595 580 568 562 q 638 628 623 598 q 654 691 654 658 q 620 782 654 750 q 535 814 585 814 l 373 814 l 373 562 l 533 562 z "},"S":{"ha":897,"x_min":37,"x_max":850,"o":"m 458 -18 q 231 28 338 -18 q 46 164 125 75 q 37 184 37 174 q 48 206 37 195 l 180 332 q 200 341 190 341 q 222 330 212 341 q 329 256 270 281 q 451 231 388 231 q 546 252 514 231 q 577 311 577 274 q 563 355 577 337 q 510 393 550 374 q 396 434 471 411 q 174 551 271 470 q 76 768 76 631 q 117 918 76 849 q 243 1028 158 986 q 450 1069 327 1069 q 649 1032 554 1069 q 818 931 744 995 q 829 909 829 921 q 820 889 829 899 l 699 753 q 677 741 689 741 q 657 749 668 741 q 562 805 615 782 q 458 827 509 827 q 352 765 352 827 q 370 721 352 739 q 416 691 387 703 q 504 657 444 678 q 529 649 512 655 q 704 569 635 612 q 812 465 774 526 q 850 317 850 403 q 801 141 850 217 q 664 24 753 65 q 458 -18 575 -18 z "},"T":{"ha":885,"x_min":26,"x_max":859,"o":"m 576 30 q 547 0 576 0 l 338 0 q 308 30 308 0 l 308 799 l 56 799 q 26 829 26 799 l 26 1019 q 56 1049 26 1049 l 829 1049 q 859 1019 859 1049 l 859 829 q 829 799 859 799 l 576 799 l 576 30 z "},"U":{"ha":1072,"x_min":84,"x_max":988,"o":"m 535 -22 q 292 33 394 -22 q 137 187 190 89 q 84 411 84 286 l 84 1019 q 114 1049 84 1049 l 323 1049 q 352 1019 352 1049 l 352 450 q 374 332 352 382 q 438 255 397 282 q 535 228 479 228 q 632 255 591 228 q 697 332 674 282 q 719 450 719 382 l 719 1019 q 749 1049 719 1049 l 958 1049 q 988 1019 988 1049 l 988 411 q 934 187 988 286 q 778 33 880 89 q 535 -22 676 -22 z "},"V":{"ha":1044,"x_min":19,"x_max":1024,"o":"m 644 24 q 609 0 635 0 l 435 0 q 401 24 410 0 l 22 1015 q 19 1027 19 1022 q 26 1044 19 1038 q 45 1049 33 1049 l 270 1049 q 304 1024 296 1049 l 520 380 l 523 380 l 739 1024 q 773 1049 747 1049 l 999 1049 q 1018 1044 1011 1049 q 1024 1027 1024 1038 q 1022 1015 1024 1022 l 644 24 z "},"W":{"ha":1518,"x_min":19,"x_max":1499,"o":"m 647 24 q 612 0 638 0 l 434 0 q 399 24 408 0 l 22 1015 q 19 1027 19 1022 q 26 1044 19 1038 q 45 1049 33 1049 l 272 1049 q 305 1025 296 1049 l 527 379 l 731 1024 q 765 1049 739 1049 l 987 1049 q 1007 1043 1000 1049 q 1014 1027 1014 1037 q 1012 1015 1014 1022 l 898 673 l 995 379 l 1213 1024 q 1246 1049 1221 1049 l 1473 1049 q 1492 1044 1484 1049 q 1499 1027 1499 1038 q 1496 1015 1499 1022 l 1115 24 q 1080 0 1106 0 l 905 0 q 871 24 880 0 l 760 324 l 647 24 z "},"X":{"ha":1039,"x_min":26,"x_max":1013,"o":"m 337 21 q 301 0 326 0 l 52 0 q 33 5 40 0 q 26 19 26 10 q 32 36 26 25 l 353 535 l 52 1013 q 46 1030 46 1024 q 53 1044 46 1039 q 72 1049 60 1049 l 325 1049 q 360 1028 349 1049 l 520 736 l 676 1028 q 711 1049 686 1049 l 966 1049 q 984 1044 977 1049 q 991 1030 991 1039 q 986 1013 991 1022 l 695 535 l 1007 36 q 1013 19 1013 25 q 1006 5 1013 10 q 987 0 999 0 l 736 0 q 700 21 712 0 l 519 341 l 337 21 z "},"Y":{"ha":1007,"x_min":19,"x_max":987,"o":"m 638 30 q 608 0 638 0 l 399 0 q 369 30 369 0 l 369 400 l 24 1013 q 19 1030 19 1022 q 26 1044 19 1039 q 45 1049 33 1049 l 290 1049 q 325 1027 314 1049 l 506 651 l 680 1027 q 715 1049 690 1049 l 962 1049 q 980 1044 974 1049 q 987 1030 987 1039 q 983 1013 987 1022 l 638 402 l 638 30 z "},"Z":{"ha":949,"x_min":52,"x_max":897,"o":"m 897 30 q 867 0 897 0 l 82 0 q 52 30 52 0 l 52 175 q 65 213 52 196 l 514 806 l 91 806 q 61 836 61 806 l 61 1019 q 91 1049 61 1049 l 842 1049 q 872 1019 872 1049 l 872 886 q 859 849 872 866 l 402 243 l 867 243 q 897 213 897 243 l 897 30 z "},"":{"ha":1636,"x_min":19,"x_max":1584,"o":"m 1554 243 q 1584 213 1584 243 l 1584 30 q 1554 0 1584 0 l 840 0 q 810 30 810 0 l 810 156 l 418 156 l 326 19 q 290 -1 314 -1 l 46 -1 q 27 4 34 -1 q 19 18 19 10 q 26 36 19 26 l 730 1030 q 767 1049 743 1049 l 1543 1049 q 1573 1019 1573 1049 l 1573 836 q 1543 806 1573 806 l 1079 806 l 1079 643 l 1435 643 q 1465 613 1465 643 l 1465 445 q 1435 415 1465 415 l 1079 415 l 1079 243 l 1554 243 m 810 404 l 810 744 l 584 404 l 810 404 z "},"":{"ha":1730,"x_min":52,"x_max":1678,"o":"m 1648 243 q 1678 213 1678 243 l 1678 30 q 1648 0 1678 0 l 934 0 q 904 30 904 0 l 904 73 q 761 5 838 28 q 598 -19 683 -19 q 321 55 447 -19 q 124 252 196 128 q 52 526 52 377 q 124 800 52 676 q 321 997 196 925 q 598 1069 446 1069 q 760 1046 682 1069 q 904 978 838 1022 l 904 1019 q 934 1049 904 1049 l 1637 1049 q 1667 1019 1667 1049 l 1667 836 q 1637 806 1667 806 l 1173 806 l 1173 643 l 1529 643 q 1559 613 1559 643 l 1559 445 q 1529 415 1559 415 l 1173 415 l 1173 243 l 1648 243 m 598 239 q 733 277 671 239 q 833 380 796 314 q 871 526 871 447 q 833 671 871 605 q 733 774 795 736 q 598 812 670 812 q 463 774 526 812 q 363 671 400 736 q 325 526 325 605 q 363 381 325 447 q 463 277 400 315 q 598 239 526 239 z "},"":{"ha":1104,"x_min":-24,"x_max":1052,"o":"m 105 1019 q 134 1049 105 1049 l 500 1049 q 778 980 652 1049 q 979 792 905 912 q 1052 525 1052 672 q 979 258 1052 378 q 780 69 906 137 q 502 0 653 0 l 134 0 q 105 30 105 0 l 105 425 l 6 425 q -24 455 -24 425 l -24 605 q 6 635 -24 635 l 105 635 l 105 1019 m 511 258 q 649 291 588 258 q 745 386 710 325 q 780 525 780 447 q 745 663 780 602 q 649 758 710 724 q 510 792 587 792 l 373 792 l 373 635 l 511 635 q 541 605 541 635 l 541 455 q 511 425 541 425 l 373 425 l 373 258 l 511 258 z "},"":{"ha":921,"x_min":105,"x_max":869,"o":"m 502 895 q 699 850 617 895 q 825 723 782 806 q 869 526 869 640 q 824 329 869 413 q 697 201 779 246 q 506 156 615 156 l 376 156 l 376 30 q 346 0 376 0 l 134 0 q 105 30 105 0 l 105 1019 q 134 1049 105 1049 l 346 1049 q 376 1019 376 1049 l 376 895 l 502 895 m 471 405 q 571 436 532 405 q 610 526 610 467 q 571 616 610 585 q 472 646 532 646 l 376 646 l 376 405 l 471 405 z "},"":{"ha":1103,"x_min":84,"x_max":1051,"o":"m 710 -22 q 588 -13 647 -22 q 491 11 530 -4 q 473 37 473 19 q 475 50 473 43 l 528 208 q 554 228 535 228 q 566 226 562 228 q 677 209 625 209 q 727 224 704 209 q 764 263 750 238 q 777 318 777 288 q 740 400 777 370 q 640 431 703 431 q 533 429 568 431 q 510 436 518 428 q 503 458 503 444 l 503 567 q 514 604 503 588 l 649 784 q 504 820 582 820 q 389 770 425 820 q 352 645 352 721 l 352 30 q 323 0 352 0 l 114 0 q 84 30 84 0 l 84 688 q 134 897 84 811 q 280 1027 185 983 q 506 1072 375 1072 q 711 1042 610 1072 q 900 961 812 1013 q 920 925 920 949 l 920 799 q 906 762 920 779 l 771 611 q 789 612 777 612 q 913 575 852 612 q 1012 471 974 537 q 1051 326 1051 405 q 1005 152 1051 232 q 880 25 959 72 q 710 -22 802 -22 z "},"a":{"ha":1083,"x_min":45,"x_max":979,"o":"m 771 880 q 806 904 781 904 l 949 904 q 979 874 979 904 l 979 30 q 949 0 979 0 l 800 0 q 766 23 776 0 l 747 68 q 513 -19 654 -19 q 278 44 385 -19 q 108 215 170 107 q 45 451 45 323 q 108 686 45 579 q 279 856 171 793 q 513 918 386 918 q 750 830 656 918 l 771 880 m 517 223 q 631 252 579 223 q 711 332 682 281 q 741 447 741 383 q 712 564 741 512 q 632 646 682 616 q 519 676 581 676 q 407 646 457 676 q 327 565 356 617 q 299 447 299 512 q 327 332 299 382 q 405 252 355 281 q 517 223 455 223 z "},"b":{"ha":1083,"x_min":105,"x_max":1039,"o":"m 570 918 q 805 856 697 918 q 976 686 912 793 q 1039 451 1039 579 q 976 215 1039 323 q 806 44 913 107 q 570 -19 698 -19 q 336 68 429 -19 l 317 23 q 283 0 308 0 l 134 0 q 105 30 105 0 l 105 1139 q 134 1169 105 1169 l 329 1169 q 358 1139 358 1169 l 358 851 q 570 918 446 918 m 566 223 q 678 252 629 223 q 756 332 728 281 q 785 447 785 382 q 756 565 785 512 q 677 646 727 617 q 565 676 626 676 q 452 646 503 676 q 372 564 401 616 q 343 447 343 512 q 372 332 343 383 q 453 252 402 281 q 566 223 504 223 z "},"c":{"ha":883,"x_min":45,"x_max":830,"o":"m 511 -22 q 271 41 378 -22 q 105 211 165 104 q 45 447 45 319 q 105 684 45 576 q 271 855 164 792 q 512 918 378 918 q 678 892 600 918 q 816 818 755 866 q 829 796 829 808 q 822 777 829 787 l 727 641 q 705 627 718 627 q 685 635 697 627 q 609 674 647 661 q 522 688 571 688 q 410 656 461 688 q 328 570 358 625 q 297 447 297 515 q 328 325 297 379 q 411 239 359 270 q 523 208 463 208 q 610 221 571 208 q 685 261 648 234 q 705 268 697 268 q 727 254 718 268 l 822 119 q 830 99 830 108 q 821 81 830 89 q 680 4 759 31 q 511 -22 602 -22 z "},"d":{"ha":1083,"x_min":45,"x_max":979,"o":"m 725 1139 q 755 1169 725 1169 l 949 1169 q 979 1139 979 1169 l 979 30 q 949 0 979 0 l 800 0 q 766 23 776 0 l 747 68 q 513 -19 654 -19 q 278 44 385 -19 q 108 215 170 107 q 45 451 45 323 q 108 686 45 579 q 279 856 171 793 q 513 918 386 918 q 725 851 638 918 l 725 1139 m 517 223 q 631 252 579 223 q 711 332 682 281 q 741 447 741 383 q 712 564 741 512 q 632 646 682 616 q 519 676 581 676 q 407 646 457 676 q 327 565 356 617 q 299 447 299 512 q 327 332 299 382 q 405 252 355 281 q 517 223 455 223 z "},"e":{"ha":993,"x_min":45,"x_max":948,"o":"m 515 -22 q 273 41 380 -22 q 105 212 165 105 q 45 447 45 320 q 102 683 45 575 q 261 855 159 791 q 494 918 364 918 q 737 858 634 918 q 894 691 840 797 q 948 448 948 584 q 945 389 948 418 q 914 361 942 361 l 305 361 q 390 245 330 287 q 526 203 450 203 q 613 217 574 203 q 690 257 653 231 q 709 264 700 264 q 731 251 721 264 l 823 120 q 830 102 830 111 q 818 79 830 89 q 679 4 756 31 q 515 -22 603 -22 m 697 548 q 626 662 677 622 q 502 701 575 701 q 377 661 430 701 q 303 548 325 621 l 697 548 z "},"f":{"ha":517,"x_min":7,"x_max":517,"o":"m 364 30 q 335 0 364 0 l 140 0 q 111 30 111 0 l 111 668 l 37 668 q 7 698 7 668 l 7 874 q 37 904 7 904 l 111 904 l 111 963 q 146 1116 111 1058 q 257 1200 182 1174 q 452 1227 332 1227 l 485 1227 q 515 1197 515 1227 l 515 1049 q 490 1020 515 1020 l 465 1020 q 387 998 410 1020 q 364 931 364 977 l 364 904 l 488 904 q 517 874 517 904 l 517 698 q 488 668 517 668 l 364 668 l 364 30 z "},"g":{"ha":1061,"x_min":45,"x_max":957,"o":"m 509 -300 q 315 -273 416 -300 q 150 -205 214 -245 q 137 -180 137 -196 q 140 -164 137 -171 l 217 -11 q 242 4 226 4 q 258 0 250 4 q 372 -43 307 -26 q 491 -60 438 -60 q 602 -39 553 -60 q 677 21 650 -18 q 704 112 704 60 l 704 116 q 599 49 651 75 q 488 22 547 22 q 260 82 361 22 q 102 242 159 141 q 45 464 45 343 q 102 701 45 597 q 259 864 158 806 q 489 923 361 923 q 617 898 550 923 q 725 835 683 874 l 744 880 q 757 897 747 891 q 778 904 767 904 l 927 904 q 948 895 939 904 q 957 874 957 886 l 957 144 q 899 -82 957 19 q 740 -242 842 -184 q 509 -300 638 -300 m 509 261 q 617 288 570 261 q 691 362 665 314 q 718 470 718 409 q 692 581 718 532 q 618 657 665 629 q 510 684 570 684 q 401 657 449 684 q 326 581 352 629 q 299 470 299 532 q 326 362 299 409 q 401 288 352 314 q 509 261 449 261 z "},"h":{"ha":1074,"x_min":105,"x_max":990,"o":"m 624 918 q 816 868 733 918 q 945 727 899 818 q 990 515 990 635 l 990 30 q 960 0 990 0 l 766 0 q 736 30 736 0 l 736 487 q 714 592 736 547 q 652 662 692 637 q 559 686 612 686 q 457 660 503 686 q 383 590 410 633 q 356 498 356 547 l 356 30 q 326 0 356 0 l 134 0 q 105 30 105 0 l 105 1137 q 134 1167 105 1167 l 326 1167 q 356 1137 356 1167 l 356 812 q 482 889 408 859 q 624 918 556 918 z "},"i":{"ha":467,"x_min":105,"x_max":362,"o":"m 134 1001 q 105 1030 105 1001 l 105 1206 q 134 1236 105 1236 l 332 1236 q 362 1206 362 1236 l 362 1030 q 332 1001 362 1001 l 134 1001 m 360 30 q 330 0 360 0 l 136 0 q 106 30 106 0 l 106 874 q 136 904 106 904 l 330 904 q 360 874 360 904 l 360 30 z "},"":{"ha":463,"x_min":105,"x_max":358,"o":"m 358 30 q 329 0 358 0 l 134 0 q 105 30 105 0 l 105 874 q 134 904 105 904 l 329 904 q 358 874 358 904 l 358 30 z "},"j":{"ha":461,"x_min":-16,"x_max":356,"o":"m 128 1007 q 99 1036 99 1007 l 99 1212 q 128 1242 99 1242 l 326 1242 q 356 1212 356 1242 l 356 1036 q 326 1007 356 1007 l 128 1007 m 14 -287 q -16 -257 -16 -287 l -16 -87 q 1 -57 -16 -57 q 78 -31 55 -57 q 101 53 101 -4 l 101 874 q 131 904 101 904 l 323 904 q 353 874 353 904 l 353 52 q 266 -199 353 -111 q 14 -287 179 -287 z "},"":{"ha":458,"x_min":-16,"x_max":353,"o":"m 14 -287 q -16 -257 -16 -287 l -16 -87 q -10 -65 -16 -72 q 13 -57 -4 -57 q 80 -30 59 -57 q 101 53 101 -3 l 101 874 q 131 904 101 904 l 323 904 q 353 874 353 904 l 353 52 q 266 -199 353 -111 q 14 -287 179 -287 z "},"k":{"ha":996,"x_min":105,"x_max":970,"o":"m 964 36 q 970 18 970 27 q 963 5 970 10 q 945 0 957 0 l 714 0 q 678 19 690 0 l 461 352 l 358 240 l 358 30 q 329 0 358 0 l 134 0 q 105 30 105 0 l 105 1137 q 134 1167 105 1167 l 329 1167 q 358 1137 358 1167 l 358 571 l 618 886 q 655 904 632 904 l 917 904 q 936 899 929 904 q 943 886 943 895 q 933 867 943 877 l 633 540 l 964 36 z "},"l":{"ha":461,"x_min":105,"x_max":356,"o":"m 356 30 q 326 0 356 0 l 134 0 q 105 30 105 0 l 105 1137 q 134 1167 105 1167 l 326 1167 q 356 1137 356 1167 l 356 30 z "},"m":{"ha":1588,"x_min":105,"x_max":1505,"o":"m 1169 926 q 1347 879 1272 926 q 1464 740 1422 833 q 1505 515 1505 648 l 1505 30 q 1475 0 1505 0 l 1281 0 q 1251 30 1251 0 l 1251 506 q 1212 638 1251 590 q 1101 686 1173 686 q 1017 663 1054 686 q 958 600 980 639 q 932 516 936 562 l 932 30 q 902 0 932 0 l 708 0 q 678 30 678 0 l 678 506 q 639 638 678 590 q 528 686 600 686 q 440 660 479 686 q 380 590 402 633 q 358 498 358 547 l 358 30 q 329 0 358 0 l 134 0 q 105 30 105 0 l 105 874 q 134 904 105 904 l 283 904 q 304 898 296 904 q 317 880 312 892 l 337 833 q 455 902 390 878 q 597 926 521 926 q 753 891 685 926 q 865 788 822 856 q 999 890 921 854 q 1169 926 1077 926 z "},"n":{"ha":1076,"x_min":105,"x_max":992,"o":"m 626 918 q 818 868 736 918 q 947 727 901 818 q 992 515 992 635 l 992 30 q 963 0 992 0 l 768 0 q 739 30 739 0 l 739 487 q 693 632 739 578 q 569 686 648 686 q 464 660 513 686 q 387 590 416 633 q 358 498 358 546 l 358 30 q 329 0 358 0 l 134 0 q 105 30 105 0 l 105 874 q 134 904 105 904 l 283 904 q 317 880 308 904 l 349 803 q 479 886 402 853 q 626 918 556 918 z "},"o":{"ha":1051,"x_min":45,"x_max":1006,"o":"m 523 -22 q 282 40 391 -22 q 109 211 172 103 q 45 446 45 318 q 109 684 45 576 q 283 855 173 792 q 525 918 394 918 q 767 855 657 918 q 942 684 877 792 q 1006 446 1006 576 q 941 211 1006 318 q 766 40 877 103 q 523 -22 655 -22 m 526 220 q 640 250 588 220 q 722 332 691 280 q 752 447 752 384 q 722 564 752 511 q 640 646 691 616 q 526 676 588 676 q 411 646 463 676 q 329 564 359 616 q 299 447 299 511 q 329 332 299 384 q 411 250 359 280 q 526 220 463 220 z "},"p":{"ha":1083,"x_min":105,"x_max":1039,"o":"m 570 918 q 805 856 697 918 q 976 686 912 793 q 1039 451 1039 579 q 976 215 1039 323 q 806 44 913 107 q 570 -19 698 -19 q 358 49 446 -19 l 358 -235 q 329 -265 358 -265 l 134 -265 q 105 -235 105 -265 l 105 874 q 134 904 105 904 l 278 904 q 312 880 302 904 l 334 830 q 570 918 428 918 m 566 223 q 678 252 629 223 q 756 332 728 281 q 785 447 785 382 q 756 565 785 512 q 677 646 727 617 q 565 676 626 676 q 452 646 503 676 q 372 564 401 616 q 343 447 343 512 q 372 332 343 383 q 453 252 402 281 q 566 223 504 223 z "},"q":{"ha":1083,"x_min":45,"x_max":979,"o":"m 771 880 q 806 904 781 904 l 949 904 q 979 874 979 904 l 979 -235 q 949 -265 979 -265 l 755 -265 q 725 -235 725 -265 l 725 49 q 513 -19 638 -19 q 278 44 385 -19 q 108 215 170 107 q 45 451 45 323 q 108 686 45 579 q 279 856 171 793 q 513 918 386 918 q 750 830 656 918 l 771 880 m 517 223 q 631 252 579 223 q 711 332 682 281 q 741 447 741 383 q 712 564 741 512 q 632 646 682 616 q 519 676 581 676 q 407 646 457 676 q 327 565 356 617 q 299 447 299 512 q 327 332 299 382 q 405 252 355 281 q 517 223 455 223 z "},"r":{"ha":794,"x_min":105,"x_max":779,"o":"m 582 918 q 763 865 674 918 q 779 842 779 856 q 774 824 779 833 l 688 663 q 665 647 680 647 q 648 652 656 647 q 545 682 594 682 q 455 655 498 682 q 385 575 412 628 q 358 449 358 523 l 358 30 q 329 0 358 0 l 134 0 q 105 30 105 0 l 105 874 q 134 904 105 904 l 283 904 q 317 880 308 904 l 354 793 q 448 885 389 851 q 582 918 507 918 z "},"s":{"ha":777,"x_min":41,"x_max":733,"o":"m 415 -22 q 220 13 309 -22 q 53 117 131 49 q 41 139 41 127 q 49 159 41 149 l 150 285 q 172 298 161 298 q 192 290 180 298 q 300 226 246 249 q 408 204 353 204 q 467 218 445 204 q 490 260 490 233 q 477 293 490 278 q 432 323 464 308 q 341 358 399 338 q 155 462 228 397 q 81 643 81 528 q 118 779 81 716 q 228 880 154 842 q 411 918 302 918 q 564 889 485 918 q 703 801 643 859 q 714 780 714 791 q 703 759 714 771 l 585 638 q 565 627 576 627 q 544 636 555 627 q 476 677 513 661 q 402 693 439 693 q 345 679 364 693 q 325 640 325 665 q 339 609 325 623 q 386 581 354 595 q 476 549 418 568 q 666 443 599 509 q 733 263 733 376 q 696 124 733 189 q 586 18 658 58 q 415 -22 514 -22 z "},"t":{"ha":537,"x_min":7,"x_max":537,"o":"m 366 30 q 336 0 366 0 l 142 0 q 112 30 112 0 l 112 668 l 37 668 q 7 698 7 668 l 7 874 q 37 904 7 904 l 111 904 l 111 1066 q 137 1099 111 1094 l 334 1137 q 341 1138 337 1138 q 360 1131 353 1138 q 367 1110 367 1123 l 367 904 l 507 904 q 537 874 537 904 l 537 698 q 507 668 537 668 l 366 668 l 366 30 z "},"u":{"ha":1076,"x_min":84,"x_max":971,"o":"m 718 874 q 747 904 718 904 l 942 904 q 971 874 971 904 l 971 30 q 942 0 971 0 l 793 0 q 759 23 768 0 l 727 100 q 597 18 674 50 q 450 -15 520 -15 q 258 35 341 -15 q 129 177 175 85 q 84 388 84 268 l 84 874 q 114 904 84 904 l 308 904 q 338 874 338 904 l 338 417 q 360 312 338 357 q 422 242 382 267 q 514 217 461 217 q 617 244 570 217 q 691 314 664 270 q 718 405 718 357 l 718 874 z "},"v":{"ha":955,"x_min":16,"x_max":939,"o":"m 609 24 q 574 0 600 0 l 380 0 q 346 24 355 0 l 19 869 q 16 882 16 875 q 24 898 16 892 q 43 904 31 904 l 261 904 q 296 879 288 904 l 477 307 l 659 879 q 694 904 667 904 l 912 904 q 931 898 924 904 q 939 883 939 892 q 936 869 939 875 l 609 24 z "},"w":{"ha":1403,"x_min":16,"x_max":1387,"o":"m 1110 879 q 1143 904 1117 904 l 1361 904 q 1380 898 1372 904 q 1387 882 1387 892 q 1384 869 1387 876 l 1080 24 q 1046 0 1072 0 l 855 0 q 821 24 830 0 l 697 350 l 585 24 q 551 0 577 0 l 357 0 q 323 24 332 0 l 19 869 q 16 882 16 876 q 24 898 16 892 q 43 904 31 904 l 249 904 q 282 879 275 904 l 455 307 l 603 878 q 615 898 606 892 q 636 904 623 904 l 853 904 q 873 898 866 904 q 880 881 880 892 q 877 869 880 876 l 809 670 l 936 307 l 1110 879 z "},"x":{"ha":960,"x_min":26,"x_max":933,"o":"m 325 20 q 289 0 313 0 l 52 0 q 33 5 40 0 q 26 19 26 10 q 33 37 26 27 l 326 461 l 52 868 q 45 886 45 878 q 52 899 45 894 q 71 904 59 904 l 310 904 q 346 883 335 904 l 480 641 l 614 883 q 628 899 620 894 q 649 904 636 904 l 889 904 q 908 899 901 904 q 915 886 915 894 q 909 868 915 877 l 642 461 l 927 36 q 933 19 933 27 q 927 5 933 10 q 908 0 920 0 l 671 0 q 635 20 647 0 l 479 285 l 325 20 z "},"y":{"ha":954,"x_min":16,"x_max":938,"o":"m 517 -241 q 483 -265 509 -265 l 278 -265 q 258 -260 265 -265 q 252 -245 252 -255 q 255 -231 252 -237 l 349 4 l 19 869 q 16 882 16 876 q 23 898 16 892 q 42 904 30 904 l 260 904 q 294 879 287 904 l 476 324 l 659 879 q 693 904 666 904 l 912 904 q 931 898 924 904 q 938 882 938 892 q 936 869 938 876 l 517 -241 z "},"z":{"ha":861,"x_min":52,"x_max":809,"o":"m 809 30 q 779 0 809 0 l 82 0 q 52 30 52 0 l 52 155 q 65 193 52 175 l 443 673 l 90 673 q 60 703 60 673 l 60 874 q 90 904 60 904 l 760 904 q 790 874 790 904 l 790 757 q 777 720 790 737 l 390 231 l 779 231 q 809 201 809 231 l 809 30 z "},"":{"ha":1721,"x_min":45,"x_max":1676,"o":"m 505 -22 q 272 41 378 -22 q 106 211 167 104 q 45 447 45 319 q 106 683 45 575 q 273 855 167 792 q 504 918 378 918 q 663 888 594 918 q 783 805 733 858 l 812 880 q 847 904 821 904 l 917 904 q 951 880 942 904 l 965 839 q 1084 898 1019 877 q 1222 918 1149 918 q 1465 858 1362 918 q 1622 691 1568 797 q 1676 448 1676 584 q 1673 389 1676 418 q 1642 361 1670 361 l 1033 361 q 1118 245 1058 287 q 1254 203 1178 203 q 1341 217 1302 203 q 1418 257 1381 231 q 1437 264 1428 264 q 1459 251 1449 264 l 1551 120 q 1558 102 1558 111 q 1546 79 1558 89 q 1407 4 1484 31 q 1243 -22 1331 -22 q 1094 0 1164 -22 q 966 63 1024 22 l 951 24 q 917 0 942 0 l 842 0 q 807 24 816 0 l 783 89 q 505 -22 676 -22 m 1425 548 q 1354 662 1405 622 q 1230 701 1303 701 q 1106 661 1158 701 q 1031 548 1053 621 l 1425 548 m 531 210 q 649 240 596 210 q 733 324 703 270 q 764 447 764 378 q 734 570 764 515 q 650 655 703 624 q 531 685 597 685 q 414 655 467 685 q 329 570 361 624 q 297 447 297 515 q 329 324 297 379 q 414 240 360 270 q 531 210 467 210 z "},"":{"ha":1702,"x_min":45,"x_max":1657,"o":"m 523 -22 q 282 40 391 -22 q 109 211 172 103 q 45 446 45 318 q 109 684 45 576 q 283 855 173 792 q 525 918 394 918 q 717 880 626 918 q 874 774 807 842 q 1019 880 935 842 q 1202 918 1103 918 q 1446 858 1343 918 q 1603 691 1549 797 q 1657 448 1657 584 q 1654 389 1657 418 q 1623 361 1651 361 l 1014 361 q 1098 245 1039 287 q 1234 203 1158 203 q 1322 217 1283 203 q 1399 257 1361 231 q 1418 264 1408 264 q 1440 251 1430 264 l 1532 120 q 1538 102 1538 111 q 1526 79 1538 89 q 1388 4 1464 31 q 1224 -22 1311 -22 q 1029 17 1119 -22 q 876 125 940 56 q 718 17 809 56 q 523 -22 626 -22 m 1406 548 q 1334 662 1385 622 q 1210 701 1284 701 q 1086 661 1139 701 q 1012 548 1033 621 l 1406 548 m 526 220 q 640 250 588 220 q 722 332 691 280 q 752 447 752 384 q 722 564 752 511 q 640 646 691 616 q 526 676 588 676 q 411 646 463 676 q 329 564 359 616 q 299 447 299 511 q 329 332 299 384 q 411 250 359 280 q 526 220 463 220 z "},"":{"ha":1007,"x_min":45,"x_max":962,"o":"m 846 1101 q 852 1083 852 1091 q 836 1060 852 1070 l 739 1009 q 902 724 842 865 q 962 429 962 583 q 902 195 962 298 q 736 35 842 92 q 500 -22 631 -22 q 272 33 376 -22 q 106 185 167 88 q 45 400 45 282 q 97 600 45 506 q 244 749 149 693 q 458 806 338 806 q 566 792 511 806 q 505 884 536 841 l 458 859 q 441 853 447 853 q 417 869 427 853 l 376 932 q 370 950 370 942 q 387 973 370 963 l 422 992 l 385 1039 q 376 1057 376 1049 q 393 1080 376 1070 l 575 1177 q 592 1182 583 1182 q 616 1168 605 1182 q 657 1116 645 1132 l 765 1175 q 783 1179 774 1179 q 806 1164 798 1179 l 846 1101 m 502 211 q 595 235 555 211 q 658 305 635 259 q 681 414 681 350 q 663 565 681 488 q 507 595 593 595 q 407 570 452 595 q 336 500 362 544 q 311 400 311 455 q 336 294 311 336 q 405 231 362 252 q 502 211 448 211 z "},"":{"ha":1083,"x_min":105,"x_max":1039,"o":"m 570 918 q 805 856 697 918 q 976 686 912 793 q 1039 451 1039 579 q 976 215 1039 323 q 806 44 913 107 q 570 -19 698 -19 q 358 49 446 -19 l 358 -235 q 329 -265 358 -265 l 134 -265 q 105 -235 105 -265 l 105 1137 q 134 1167 105 1167 l 326 1167 q 356 1137 356 1167 l 356 849 q 570 918 444 918 m 566 223 q 678 252 629 223 q 756 332 728 281 q 785 447 785 382 q 756 565 785 512 q 677 646 727 617 q 565 676 626 676 q 452 646 503 676 q 372 564 401 616 q 343 447 343 512 q 372 332 343 383 q 453 252 402 281 q 566 223 504 223 z "},"":{"ha":976,"x_min":105,"x_max":931,"o":"m 134 0 q 105 30 105 0 l 105 808 q 154 1019 105 936 q 286 1140 204 1101 q 469 1178 368 1178 q 671 1136 585 1178 q 803 1022 757 1093 q 848 868 848 951 q 730 635 848 706 q 878 532 825 602 q 931 367 931 462 q 882 173 931 256 q 743 45 833 90 q 535 0 653 0 l 482 0 q 453 30 453 0 l 453 213 q 482 243 453 243 l 536 243 q 639 275 600 243 q 677 362 677 308 q 513 481 677 481 q 483 511 483 481 l 483 683 q 489 706 483 700 q 513 713 494 713 q 553 727 533 713 q 587 765 573 741 q 600 820 600 789 q 564 904 600 872 q 470 936 529 936 q 386 897 414 936 q 358 801 358 859 l 358 30 q 329 0 358 0 l 134 0 z "},"":{"ha":1059,"x_min":19,"x_max":1039,"o":"m 1037 34 q 1039 22 1039 28 q 1033 6 1039 11 q 1014 0 1026 0 l 799 0 q 765 25 774 0 l 718 164 l 341 164 l 293 25 q 260 0 286 0 l 46 0 q 27 6 34 0 q 19 22 19 11 q 22 34 19 28 l 404 1027 q 438 1051 413 1051 l 623 1051 q 657 1027 648 1051 l 1037 34 m 642 388 l 542 682 l 529 730 l 517 682 l 417 388 l 642 388 m 707 1307 q 726 1303 719 1307 q 733 1290 733 1298 q 723 1271 733 1281 l 588 1134 q 551 1118 573 1118 l 419 1118 q 400 1123 407 1118 q 394 1136 394 1128 q 400 1154 394 1145 l 497 1289 q 533 1307 510 1307 l 707 1307 z "},"":{"ha":1059,"x_min":19,"x_max":1039,"o":"m 1037 34 q 1039 22 1039 28 q 1033 6 1039 11 q 1014 0 1026 0 l 799 0 q 765 25 774 0 l 718 164 l 341 164 l 293 25 q 260 0 286 0 l 46 0 q 27 6 34 0 q 19 22 19 11 q 22 34 19 28 l 404 1027 q 438 1051 413 1051 l 623 1051 q 657 1027 648 1051 l 1037 34 m 642 388 l 542 682 l 529 730 l 517 682 l 417 388 l 642 388 m 517 1119 q 360 1166 416 1119 q 294 1292 304 1214 q 300 1314 292 1306 q 323 1322 308 1322 l 429 1322 q 449 1316 442 1322 q 460 1294 456 1309 q 517 1250 471 1250 q 576 1294 565 1250 q 587 1316 579 1309 q 607 1322 594 1322 l 712 1322 q 735 1316 727 1322 q 741 1299 742 1310 q 678 1168 734 1218 q 517 1119 622 1119 z "},"":{"ha":1059,"x_min":19,"x_max":1039,"o":"m 1037 34 q 1039 22 1039 28 q 1033 6 1039 11 q 1014 0 1026 0 l 799 0 q 765 25 774 0 l 718 164 l 341 164 l 293 25 q 260 0 286 0 l 46 0 q 27 6 34 0 q 19 22 19 11 q 22 34 19 28 l 404 1027 q 438 1051 413 1051 l 623 1051 q 657 1027 648 1051 l 1037 34 m 642 388 l 542 682 l 529 730 l 517 682 l 417 388 l 642 388 m 656 1523 q 676 1519 669 1524 q 682 1506 682 1514 q 675 1487 682 1497 l 588 1372 q 573 1359 581 1363 q 553 1355 565 1355 l 473 1353 q 453 1358 460 1352 q 447 1373 447 1364 q 450 1387 447 1381 l 500 1499 q 534 1522 510 1522 l 656 1523 m 517 1110 q 357 1161 414 1110 q 292 1298 301 1212 q 298 1320 290 1312 q 321 1328 306 1328 l 426 1328 q 458 1299 453 1328 q 476 1261 462 1272 q 517 1249 491 1249 q 559 1261 544 1249 q 578 1299 573 1272 q 609 1328 582 1328 l 713 1328 q 736 1322 728 1328 q 743 1302 744 1315 q 680 1162 736 1213 q 517 1110 624 1110 z "},"":{"ha":1059,"x_min":19,"x_max":1039,"o":"m 1037 34 q 1039 22 1039 28 q 1033 6 1039 11 q 1014 0 1026 0 l 799 0 q 765 25 774 0 l 718 164 l 341 164 l 293 25 q 260 0 286 0 l 46 0 q 27 6 34 0 q 19 22 19 11 q 22 34 19 28 l 404 1027 q 438 1051 413 1051 l 623 1051 q 657 1027 648 1051 l 1037 34 m 642 388 l 542 682 l 529 730 l 517 682 l 417 388 l 642 388 m 630 -235 q 600 -265 630 -265 l 441 -265 q 411 -235 411 -265 l 411 -95 q 441 -65 411 -65 l 600 -65 q 630 -95 630 -65 l 630 -235 m 517 1119 q 360 1166 416 1119 q 294 1292 304 1214 q 300 1314 292 1306 q 323 1322 308 1322 l 429 1322 q 449 1316 442 1322 q 460 1294 456 1309 q 517 1250 471 1250 q 576 1294 565 1250 q 587 1316 579 1309 q 607 1322 594 1322 l 712 1322 q 735 1316 727 1322 q 741 1299 742 1310 q 678 1168 734 1218 q 517 1119 622 1119 z "},"":{"ha":1059,"x_min":19,"x_max":1039,"o":"m 1037 34 q 1039 22 1039 28 q 1033 6 1039 11 q 1014 0 1026 0 l 799 0 q 765 25 774 0 l 718 164 l 341 164 l 293 25 q 260 0 286 0 l 46 0 q 27 6 34 0 q 19 22 19 11 q 22 34 19 28 l 404 1027 q 438 1051 413 1051 l 623 1051 q 657 1027 648 1051 l 1037 34 m 642 388 l 542 682 l 529 730 l 517 682 l 417 388 l 642 388 m 585 1387 q 588 1373 588 1381 q 581 1358 588 1364 q 562 1353 574 1353 l 482 1355 q 461 1359 470 1355 q 446 1372 453 1363 l 359 1487 q 352 1506 352 1497 q 358 1519 352 1514 q 378 1523 365 1524 l 500 1522 q 535 1499 524 1522 l 585 1387 m 517 1110 q 356 1160 412 1110 q 292 1298 300 1210 q 298 1320 290 1312 q 321 1328 306 1328 l 426 1328 q 456 1299 452 1328 q 475 1261 461 1272 q 517 1249 490 1249 q 558 1261 544 1249 q 576 1299 572 1272 q 608 1328 581 1328 l 713 1328 q 736 1322 728 1328 q 742 1303 743 1315 q 679 1162 736 1214 q 517 1110 622 1110 z "},"":{"ha":1059,"x_min":19,"x_max":1039,"o":"m 1037 34 q 1039 22 1039 28 q 1033 6 1039 11 q 1014 0 1026 0 l 799 0 q 765 25 774 0 l 718 164 l 341 164 l 293 25 q 260 0 286 0 l 46 0 q 27 6 34 0 q 19 22 19 11 q 22 34 19 28 l 404 1027 q 438 1051 413 1051 l 623 1051 q 657 1027 648 1051 l 1037 34 m 642 388 l 542 682 l 529 730 l 517 682 l 417 388 l 642 388 m 569 1358 q 532 1340 556 1340 q 500 1344 511 1340 q 490 1356 490 1347 q 494 1369 490 1360 q 501 1400 501 1387 q 484 1420 501 1420 q 473 1419 480 1420 q 458 1417 465 1417 q 437 1436 441 1417 q 435 1451 435 1445 q 453 1478 435 1470 q 520 1494 486 1494 q 583 1480 559 1494 q 608 1440 608 1465 q 598 1403 608 1421 q 569 1358 589 1385 m 517 1111 q 357 1162 414 1111 q 292 1299 301 1213 q 298 1321 290 1313 q 321 1329 306 1329 l 426 1329 q 458 1300 453 1329 q 476 1262 462 1273 q 517 1250 491 1250 q 559 1262 544 1250 q 578 1300 573 1273 q 609 1329 582 1329 l 713 1329 q 736 1322 728 1329 q 743 1303 744 1316 q 680 1163 736 1214 q 517 1111 624 1111 z "},"":{"ha":1059,"x_min":19,"x_max":1039,"o":"m 1037 34 q 1039 22 1039 28 q 1033 6 1039 11 q 1014 0 1026 0 l 799 0 q 765 25 774 0 l 718 164 l 341 164 l 293 25 q 260 0 286 0 l 46 0 q 27 6 34 0 q 19 22 19 11 q 22 34 19 28 l 404 1027 q 438 1051 413 1051 l 623 1051 q 657 1027 648 1051 l 1037 34 m 642 388 l 542 682 l 529 730 l 517 682 l 417 388 l 642 388 m 453 1380 q 430 1369 441 1369 q 414 1374 422 1369 q 386 1393 394 1386 q 378 1408 378 1399 q 383 1425 378 1416 q 427 1480 403 1464 q 476 1496 450 1496 q 515 1491 497 1496 q 556 1477 533 1486 q 598 1465 585 1465 q 616 1473 608 1465 q 641 1486 630 1486 q 653 1483 646 1486 q 665 1477 659 1480 q 675 1471 671 1473 q 692 1446 692 1461 q 688 1430 692 1439 q 594 1358 651 1358 q 554 1364 573 1358 q 514 1378 535 1369 q 498 1385 512 1379 q 473 1390 483 1390 q 453 1380 463 1390 m 517 1112 q 357 1163 414 1112 q 292 1299 301 1213 q 298 1322 290 1313 q 321 1330 306 1330 l 426 1330 q 458 1301 453 1330 q 476 1262 462 1274 q 517 1251 491 1251 q 559 1262 544 1251 q 578 1301 573 1274 q 609 1330 582 1330 l 713 1330 q 736 1323 728 1330 q 743 1304 744 1316 q 680 1163 736 1215 q 517 1112 624 1112 z "},"":{"ha":1059,"x_min":19,"x_max":1039,"o":"m 1037 34 q 1039 22 1039 28 q 1033 6 1039 11 q 1014 0 1026 0 l 799 0 q 765 25 774 0 l 718 164 l 341 164 l 293 25 q 260 0 286 0 l 46 0 q 27 6 34 0 q 19 22 19 11 q 22 34 19 28 l 404 1027 q 438 1051 413 1051 l 623 1051 q 657 1027 648 1051 l 1037 34 m 642 388 l 542 682 l 529 730 l 517 682 l 417 388 l 642 388 m 314 1252 q 300 1275 300 1263 q 308 1294 300 1286 l 356 1358 q 379 1370 366 1370 q 398 1364 388 1370 l 518 1277 l 638 1364 q 657 1370 648 1370 q 680 1357 670 1370 l 728 1294 q 735 1275 735 1285 q 722 1252 735 1262 l 556 1125 q 519 1113 541 1113 q 481 1125 497 1113 l 314 1252 z "},"":{"ha":1059,"x_min":19,"x_max":1039,"o":"m 1037 34 q 1039 22 1039 28 q 1033 6 1039 11 q 1014 0 1026 0 l 799 0 q 765 25 774 0 l 718 164 l 341 164 l 293 25 q 260 0 286 0 l 46 0 q 27 6 34 0 q 19 22 19 11 q 22 34 19 28 l 404 1027 q 438 1051 413 1051 l 623 1051 q 657 1027 648 1051 l 1037 34 m 642 388 l 542 682 l 529 730 l 517 682 l 417 388 l 642 388 m 396 1119 q 376 1113 386 1113 q 354 1125 364 1113 l 305 1189 q 298 1207 298 1197 q 311 1231 298 1221 l 479 1358 q 517 1370 494 1370 q 554 1358 538 1370 l 720 1231 q 733 1207 733 1221 q 726 1189 733 1198 l 678 1125 q 656 1113 668 1113 q 636 1119 646 1113 l 516 1206 l 396 1119 z "},"":{"ha":1059,"x_min":19,"x_max":1039,"o":"m 1037 34 q 1039 22 1039 28 q 1033 6 1039 11 q 1014 0 1026 0 l 799 0 q 765 25 774 0 l 718 164 l 341 164 l 293 25 q 260 0 286 0 l 46 0 q 27 6 34 0 q 19 22 19 11 q 22 34 19 28 l 404 1027 q 438 1051 413 1051 l 623 1051 q 657 1027 648 1051 l 1037 34 m 642 388 l 542 682 l 529 730 l 517 682 l 417 388 l 642 388 z "},"":{"ha":1059,"x_min":19,"x_max":1039,"o":"m 1037 34 q 1039 22 1039 28 q 1033 6 1039 11 q 1014 0 1026 0 l 799 0 q 765 25 774 0 l 718 164 l 341 164 l 293 25 q 260 0 286 0 l 46 0 q 27 6 34 0 q 19 22 19 11 q 22 34 19 28 l 404 1027 q 438 1051 413 1051 l 623 1051 q 657 1027 648 1051 l 1037 34 m 642 388 l 542 682 l 529 730 l 517 682 l 417 388 l 642 388 m 630 -235 q 600 -265 630 -265 l 441 -265 q 411 -235 411 -265 l 411 -95 q 441 -65 411 -65 l 600 -65 q 630 -95 630 -65 l 630 -235 m 396 1119 q 376 1113 386 1113 q 354 1125 364 1113 l 305 1189 q 298 1207 298 1197 q 311 1231 298 1221 l 479 1358 q 517 1370 494 1370 q 554 1358 538 1370 l 720 1231 q 733 1207 733 1221 q 726 1189 733 1198 l 678 1125 q 656 1113 668 1113 q 636 1119 646 1113 l 516 1206 l 396 1119 z "},"":{"ha":1059,"x_min":19,"x_max":1039,"o":"m 1037 34 q 1039 22 1039 28 q 1033 6 1039 11 q 1014 0 1026 0 l 799 0 q 765 25 774 0 l 718 164 l 341 164 l 293 25 q 260 0 286 0 l 46 0 q 27 6 34 0 q 19 22 19 11 q 22 34 19 28 l 404 1027 q 438 1051 413 1051 l 623 1051 q 657 1027 648 1051 l 1037 34 m 642 388 l 542 682 l 529 730 l 517 682 l 417 388 l 642 388 m 703 1233 q 718 1209 718 1224 q 713 1192 718 1200 l 677 1129 q 653 1113 668 1113 q 636 1117 645 1113 l 504 1187 l 371 1117 q 355 1113 363 1113 q 331 1129 340 1113 l 295 1193 q 290 1210 290 1201 q 305 1233 290 1224 l 383 1278 l 299 1277 q 262 1295 276 1277 l 196 1376 q 188 1395 188 1387 q 195 1408 188 1403 q 214 1413 202 1412 l 299 1414 q 335 1393 324 1414 l 387 1287 q 388 1281 389 1284 l 464 1326 q 502 1337 481 1337 q 523 1335 514 1337 q 542 1327 532 1333 l 703 1233 z "},"":{"ha":1059,"x_min":19,"x_max":1039,"o":"m 1037 34 q 1039 22 1039 28 q 1033 6 1039 11 q 1014 0 1026 0 l 799 0 q 765 25 774 0 l 718 164 l 341 164 l 293 25 q 260 0 286 0 l 46 0 q 27 6 34 0 q 19 22 19 11 q 22 34 19 28 l 404 1027 q 438 1051 413 1051 l 623 1051 q 657 1027 648 1051 l 1037 34 m 642 388 l 542 682 l 529 730 l 517 682 l 417 388 l 642 388 m 739 1287 q 703 1269 726 1269 q 668 1284 668 1269 q 671 1295 668 1290 q 677 1322 677 1312 q 662 1340 677 1340 q 655 1340 657 1340 q 641 1338 644 1338 q 627 1342 632 1338 q 620 1355 622 1346 q 618 1366 618 1363 q 637 1393 618 1384 q 694 1406 665 1406 q 751 1393 729 1406 q 773 1358 773 1381 q 765 1325 773 1341 q 739 1287 756 1310 m 391 1107 q 374 1103 382 1103 q 349 1119 358 1103 l 314 1182 q 308 1199 308 1190 q 324 1223 308 1214 l 485 1317 q 503 1325 494 1323 q 525 1327 512 1327 q 562 1316 546 1327 l 721 1223 q 737 1199 737 1214 q 732 1182 737 1190 l 696 1119 q 671 1103 687 1103 q 656 1107 663 1103 l 523 1177 l 391 1107 z "},"":{"ha":1059,"x_min":19,"x_max":1039,"o":"m 1037 34 q 1039 22 1039 28 q 1033 6 1039 11 q 1014 0 1026 0 l 799 0 q 765 25 774 0 l 718 164 l 341 164 l 293 25 q 260 0 286 0 l 46 0 q 27 6 34 0 q 19 22 19 11 q 22 34 19 28 l 404 1027 q 438 1051 413 1051 l 623 1051 q 657 1027 648 1051 l 1037 34 m 642 388 l 542 682 l 529 730 l 517 682 l 417 388 l 642 388 m 443 1377 q 423 1367 434 1367 q 405 1372 415 1367 q 383 1389 390 1382 q 376 1405 376 1396 q 381 1420 376 1412 q 420 1468 399 1455 q 464 1482 441 1482 q 500 1477 484 1482 q 537 1464 517 1473 q 553 1458 541 1463 q 575 1454 566 1454 q 590 1459 582 1454 q 615 1472 606 1472 q 643 1461 624 1472 q 660 1435 660 1450 q 656 1420 660 1428 q 572 1357 622 1357 q 537 1361 553 1357 q 500 1375 521 1366 q 479 1383 489 1379 q 461 1386 468 1386 q 443 1377 452 1386 m 387 1107 q 370 1102 378 1102 q 346 1119 355 1102 l 310 1181 q 305 1198 305 1190 q 320 1222 305 1213 l 481 1316 q 500 1324 491 1322 q 521 1326 509 1326 q 559 1316 542 1326 l 718 1222 q 733 1198 733 1213 q 728 1181 733 1190 l 692 1119 q 668 1102 683 1102 q 652 1107 660 1102 l 519 1176 l 387 1107 z "},"":{"ha":1059,"x_min":19,"x_max":1039,"o":"m 1037 34 q 1039 22 1039 28 q 1033 6 1039 11 q 1014 0 1026 0 l 799 0 q 765 25 774 0 l 718 164 l 341 164 l 293 25 q 260 0 286 0 l 46 0 q 27 6 34 0 q 19 22 19 11 q 22 34 19 28 l 404 1027 q 438 1051 413 1051 l 623 1051 q 657 1027 648 1051 l 1037 34 m 642 388 l 542 682 l 529 730 l 517 682 l 417 388 l 642 388 m 475 1161 q 482 1142 482 1151 q 475 1128 482 1134 q 455 1123 468 1123 l 343 1123 q 305 1139 321 1123 l 188 1257 q 178 1278 178 1269 q 185 1290 178 1286 q 205 1295 192 1295 l 355 1295 q 393 1275 379 1295 l 475 1161 m 761 1161 q 768 1142 768 1151 q 761 1128 768 1134 q 741 1123 754 1123 l 628 1123 q 590 1139 606 1123 l 473 1257 q 463 1277 463 1267 q 470 1290 463 1285 q 490 1295 477 1295 l 641 1295 q 678 1275 665 1295 l 761 1161 z "},"":{"ha":1059,"x_min":19,"x_max":1039,"o":"m 1037 34 q 1039 22 1039 28 q 1033 6 1039 11 q 1014 0 1026 0 l 799 0 q 765 25 774 0 l 718 164 l 341 164 l 293 25 q 260 0 286 0 l 46 0 q 27 6 34 0 q 19 22 19 11 q 22 34 19 28 l 404 1027 q 438 1051 413 1051 l 623 1051 q 657 1027 648 1051 l 1037 34 m 642 388 l 542 682 l 529 730 l 517 682 l 417 388 l 642 388 m 444 1152 q 414 1122 444 1122 l 271 1122 q 241 1152 241 1122 l 241 1305 q 271 1334 241 1334 l 414 1334 q 444 1305 444 1334 l 444 1152 m 796 1152 q 766 1122 796 1122 l 623 1122 q 593 1152 593 1122 l 593 1305 q 623 1334 593 1334 l 766 1334 q 796 1305 796 1334 l 796 1152 z "},"":{"ha":1059,"x_min":19,"x_max":1039,"o":"m 1037 34 q 1039 22 1039 28 q 1033 6 1039 11 q 1014 0 1026 0 l 799 0 q 765 25 774 0 l 718 164 l 341 164 l 293 25 q 260 0 286 0 l 46 0 q 27 6 34 0 q 19 22 19 11 q 22 34 19 28 l 404 1027 q 438 1051 413 1051 l 623 1051 q 657 1027 648 1051 l 1037 34 m 642 388 l 542 682 l 529 730 l 517 682 l 417 388 l 642 388 m 444 1152 q 414 1122 444 1122 l 271 1122 q 241 1152 241 1122 l 241 1305 q 271 1334 241 1334 l 414 1334 q 444 1305 444 1334 l 444 1152 m 796 1152 q 766 1122 796 1122 l 623 1122 q 593 1152 593 1122 l 593 1305 q 623 1334 593 1334 l 766 1334 q 796 1305 796 1334 l 796 1152 m 733 1427 q 703 1397 733 1397 l 335 1397 q 305 1427 305 1397 l 305 1517 q 335 1546 305 1546 l 703 1546 q 733 1517 733 1546 l 733 1427 z "},"":{"ha":1059,"x_min":19,"x_max":1039,"o":"m 1037 34 q 1039 22 1039 28 q 1033 6 1039 11 q 1014 0 1026 0 l 799 0 q 765 25 774 0 l 718 164 l 341 164 l 293 25 q 260 0 286 0 l 46 0 q 27 6 34 0 q 19 22 19 11 q 22 34 19 28 l 404 1027 q 438 1051 413 1051 l 623 1051 q 657 1027 648 1051 l 1037 34 m 642 388 l 542 682 l 529 730 l 517 682 l 417 388 l 642 388 m 629 1152 q 599 1122 629 1122 l 439 1122 q 409 1152 409 1122 l 409 1293 q 439 1322 409 1322 l 599 1322 q 629 1293 629 1322 l 629 1152 z "},"":{"ha":1059,"x_min":19,"x_max":1039,"o":"m 1037 34 q 1039 22 1039 28 q 1033 6 1039 11 q 1014 0 1026 0 l 799 0 q 765 25 774 0 l 718 164 l 341 164 l 293 25 q 260 0 286 0 l 46 0 q 27 6 34 0 q 19 22 19 11 q 22 34 19 28 l 404 1027 q 438 1051 413 1051 l 623 1051 q 657 1027 648 1051 l 1037 34 m 642 388 l 542 682 l 529 730 l 517 682 l 417 388 l 642 388 m 630 -235 q 600 -265 630 -265 l 441 -265 q 411 -235 411 -265 l 411 -95 q 441 -65 411 -65 l 600 -65 q 630 -95 630 -65 l 630 -235 z "},"":{"ha":1059,"x_min":19,"x_max":1039,"o":"m 1037 34 q 1039 22 1039 28 q 1033 6 1039 11 q 1014 0 1026 0 l 799 0 q 765 25 774 0 l 718 164 l 341 164 l 293 25 q 260 0 286 0 l 46 0 q 27 6 34 0 q 19 22 19 11 q 22 34 19 28 l 404 1027 q 438 1051 413 1051 l 623 1051 q 657 1027 648 1051 l 1037 34 m 642 388 l 542 682 l 529 730 l 517 682 l 417 388 l 642 388 m 629 1152 q 599 1122 629 1122 l 439 1122 q 409 1152 409 1122 l 409 1293 q 439 1322 409 1322 l 599 1322 q 629 1293 629 1322 l 629 1152 m 740 1396 q 710 1366 740 1366 l 343 1366 q 313 1396 313 1366 l 313 1486 q 343 1516 313 1516 l 710 1516 q 740 1486 740 1516 l 740 1396 z "},"":{"ha":1059,"x_min":19,"x_max":1039,"o":"m 1037 34 q 1039 22 1039 28 q 1033 6 1039 11 q 1014 0 1026 0 l 799 0 q 765 25 774 0 l 718 164 l 341 164 l 293 25 q 260 0 286 0 l 46 0 q 27 6 34 0 q 19 22 19 11 q 22 34 19 28 l 404 1027 q 438 1051 413 1051 l 623 1051 q 657 1027 648 1051 l 1037 34 m 642 388 l 542 682 l 529 730 l 517 682 l 417 388 l 642 388 m 615 1154 q 621 1136 621 1145 q 615 1123 621 1128 q 596 1118 608 1118 l 464 1118 q 427 1134 442 1118 l 292 1271 q 282 1291 282 1283 q 289 1303 282 1299 q 308 1307 296 1307 l 482 1307 q 518 1289 505 1307 l 615 1154 z "},"":{"ha":1059,"x_min":19,"x_max":1039,"o":"m 1037 34 q 1039 22 1039 28 q 1033 6 1039 11 q 1014 0 1026 0 l 799 0 q 765 25 774 0 l 718 164 l 341 164 l 293 25 q 260 0 286 0 l 46 0 q 27 6 34 0 q 19 22 19 11 q 22 34 19 28 l 404 1027 q 438 1051 413 1051 l 623 1051 q 657 1027 648 1051 l 1037 34 m 642 388 l 542 682 l 529 730 l 517 682 l 417 388 l 642 388 m 575 1145 q 556 1129 565 1132 q 515 1127 547 1127 q 479 1147 479 1127 q 483 1162 479 1152 q 493 1201 493 1184 q 471 1225 493 1225 q 450 1222 461 1225 q 437 1219 443 1219 q 411 1249 417 1219 q 408 1269 408 1260 q 412 1283 408 1278 q 426 1294 416 1289 q 515 1317 471 1317 q 595 1299 565 1317 q 626 1249 626 1281 q 614 1203 626 1225 q 575 1145 602 1180 z "},"":{"ha":1059,"x_min":19,"x_max":1039,"o":"m 1037 34 q 1039 22 1039 28 q 1033 6 1039 11 q 1014 0 1026 0 l 799 0 q 765 25 774 0 l 718 164 l 341 164 l 293 25 q 260 0 286 0 l 46 0 q 27 6 34 0 q 19 22 19 11 q 22 34 19 28 l 404 1027 q 438 1051 413 1051 l 623 1051 q 657 1027 648 1051 l 1037 34 m 642 388 l 542 682 l 529 730 l 517 682 l 417 388 l 642 388 m 517 1325 q 675 1278 620 1325 q 741 1152 731 1231 q 735 1130 743 1138 q 712 1122 727 1122 l 607 1122 q 587 1128 594 1122 q 576 1150 579 1135 q 517 1194 565 1194 q 460 1150 471 1194 q 449 1128 456 1135 q 429 1122 442 1122 l 323 1122 q 300 1128 308 1122 q 293 1145 293 1134 q 357 1275 301 1225 q 517 1325 414 1325 z "},"":{"ha":1059,"x_min":19,"x_max":1039,"o":"m 1037 34 q 1039 22 1039 28 q 1033 6 1039 11 q 1014 0 1026 0 l 799 0 q 765 25 774 0 l 718 164 l 341 164 l 293 25 q 260 0 286 0 l 46 0 q 27 6 34 0 q 19 22 19 11 q 22 34 19 28 l 404 1027 q 438 1051 413 1051 l 623 1051 q 657 1027 648 1051 l 1037 34 m 642 388 l 542 682 l 529 730 l 517 682 l 417 388 l 642 388 m 740 1153 q 710 1123 740 1123 l 343 1123 q 313 1153 313 1123 l 313 1243 q 343 1272 313 1272 l 710 1272 q 740 1243 740 1272 l 740 1153 z "},"":{"ha":1059,"x_min":19,"x_max":1069,"o":"m 1037 34 q 1039 22 1039 28 q 1033 6 1039 11 q 1014 0 1026 0 l 799 0 q 765 25 774 0 l 718 164 l 341 164 l 293 25 q 260 0 286 0 l 46 0 q 27 6 34 0 q 19 22 19 11 q 22 34 19 28 l 404 1027 q 438 1051 413 1051 l 623 1051 q 657 1027 648 1051 l 1037 34 m 642 388 l 542 682 l 529 730 l 517 682 l 417 388 l 642 388 m 859 -16 q 895 0 872 0 l 973 0 l 1014 0 q 971 -66 982 -43 q 960 -107 960 -89 q 974 -147 960 -131 q 1011 -164 988 -164 q 1025 -163 1020 -164 q 1033 -162 1028 -162 q 1060 -187 1057 -162 l 1066 -235 q 1045 -272 1069 -263 q 998 -283 1023 -279 q 935 -286 972 -286 q 827 -254 860 -286 q 793 -174 793 -223 q 811 -90 793 -129 q 859 -16 830 -52 z "},"":{"ha":1059,"x_min":19,"x_max":1039,"o":"m 1037 34 q 1039 22 1039 28 q 1033 6 1039 11 q 1014 0 1026 0 l 799 0 q 765 25 774 0 l 718 164 l 341 164 l 293 25 q 260 0 286 0 l 46 0 q 27 6 34 0 q 19 22 19 11 q 22 34 19 28 l 404 1027 q 438 1051 413 1051 l 623 1051 q 657 1027 648 1051 l 1037 34 m 642 388 l 542 682 l 529 730 l 517 682 l 417 388 l 642 388 m 520 1122 q 421 1156 459 1122 q 383 1246 383 1190 q 421 1338 383 1305 q 520 1372 459 1372 q 620 1338 582 1372 q 658 1246 658 1305 q 620 1156 658 1190 q 520 1122 582 1122 m 520 1202 q 555 1215 541 1202 q 568 1247 568 1227 q 555 1281 568 1268 q 520 1293 541 1293 q 486 1281 500 1293 q 473 1247 473 1268 q 486 1215 473 1227 q 520 1202 500 1202 z "},"":{"ha":1059,"x_min":19,"x_max":1039,"o":"m 1037 34 q 1039 22 1039 28 q 1033 6 1039 11 q 1014 0 1026 0 l 799 0 q 765 25 774 0 l 718 164 l 341 164 l 293 25 q 260 0 286 0 l 46 0 q 27 6 34 0 q 19 22 19 11 q 22 34 19 28 l 404 1027 q 438 1051 413 1051 l 623 1051 q 657 1027 648 1051 l 1037 34 m 642 388 l 542 682 l 529 730 l 517 682 l 417 388 l 642 388 m 520 1122 q 421 1156 459 1122 q 383 1246 383 1190 q 421 1338 383 1305 q 520 1372 459 1372 q 620 1338 582 1372 q 658 1246 658 1305 q 620 1156 658 1190 q 520 1122 582 1122 m 520 1202 q 555 1215 541 1202 q 568 1247 568 1227 q 555 1281 568 1268 q 520 1293 541 1293 q 486 1281 500 1293 q 473 1247 473 1268 q 486 1215 473 1227 q 520 1202 500 1202 m 700 1596 q 719 1592 712 1596 q 726 1579 726 1587 q 715 1560 726 1570 l 580 1422 q 544 1407 565 1407 l 411 1407 q 393 1412 399 1407 q 386 1425 386 1417 q 393 1443 386 1434 l 489 1578 q 526 1596 503 1596 l 700 1596 z "},"":{"ha":1059,"x_min":19,"x_max":1039,"o":"m 1037 34 q 1039 22 1039 28 q 1033 6 1039 11 q 1014 0 1026 0 l 799 0 q 765 25 774 0 l 718 164 l 341 164 l 293 25 q 260 0 286 0 l 46 0 q 27 6 34 0 q 19 22 19 11 q 22 34 19 28 l 404 1027 q 438 1051 413 1051 l 623 1051 q 657 1027 648 1051 l 1037 34 m 642 388 l 542 682 l 529 730 l 517 682 l 417 388 l 642 388 m 525 -315 q 417 -279 458 -315 q 376 -180 376 -242 q 417 -80 376 -117 q 525 -43 458 -43 q 633 -80 591 -43 q 674 -180 674 -117 q 633 -279 674 -242 q 525 -315 591 -315 m 525 -228 q 563 -215 548 -228 q 577 -179 577 -202 q 563 -143 577 -157 q 525 -129 548 -129 q 488 -143 503 -129 q 473 -179 473 -157 q 488 -215 473 -202 q 525 -228 503 -228 z "},"":{"ha":1059,"x_min":19,"x_max":1039,"o":"m 1037 34 q 1039 22 1039 28 q 1033 6 1039 11 q 1014 0 1026 0 l 799 0 q 765 25 774 0 l 718 164 l 341 164 l 293 25 q 260 0 286 0 l 46 0 q 27 6 34 0 q 19 22 19 11 q 22 34 19 28 l 404 1027 q 438 1051 413 1051 l 623 1051 q 657 1027 648 1051 l 1037 34 m 642 388 l 542 682 l 529 730 l 517 682 l 417 388 l 642 388 m 382 1140 q 356 1126 370 1126 q 341 1131 349 1126 l 291 1157 q 275 1182 275 1166 q 279 1198 275 1191 q 345 1290 309 1263 q 422 1316 382 1316 q 478 1309 453 1316 q 539 1287 504 1302 q 575 1274 561 1278 q 600 1269 588 1269 q 635 1289 618 1269 q 660 1304 648 1304 q 677 1299 668 1304 l 725 1272 q 741 1247 741 1263 q 738 1231 741 1238 q 671 1139 707 1166 q 595 1113 635 1113 q 539 1120 565 1113 q 478 1142 513 1128 q 442 1155 456 1151 q 417 1160 429 1160 q 382 1140 400 1160 z "},"":{"ha":1636,"x_min":19,"x_max":1584,"o":"m 1554 243 q 1584 213 1584 243 l 1584 30 q 1554 0 1584 0 l 840 0 q 810 30 810 0 l 810 156 l 418 156 l 326 19 q 290 -1 314 -1 l 46 -1 q 27 4 34 -1 q 19 18 19 10 q 26 36 19 26 l 730 1030 q 767 1049 743 1049 l 1543 1049 q 1573 1019 1573 1049 l 1573 836 q 1543 806 1573 806 l 1079 806 l 1079 643 l 1435 643 q 1465 613 1465 643 l 1465 445 q 1435 415 1465 415 l 1079 415 l 1079 243 l 1554 243 m 810 404 l 810 744 l 584 404 l 810 404 m 1353 1307 q 1372 1303 1365 1307 q 1379 1290 1379 1298 q 1369 1271 1379 1281 l 1234 1134 q 1197 1118 1219 1118 l 1065 1118 q 1046 1123 1053 1118 q 1039 1136 1039 1128 q 1046 1154 1039 1145 l 1142 1289 q 1179 1307 1156 1307 l 1353 1307 z "},"":{"ha":1636,"x_min":19,"x_max":1584,"o":"m 1554 243 q 1584 213 1584 243 l 1584 30 q 1554 0 1584 0 l 840 0 q 810 30 810 0 l 810 156 l 418 156 l 326 19 q 290 -1 314 -1 l 46 -1 q 27 4 34 -1 q 19 18 19 10 q 26 36 19 26 l 730 1030 q 767 1049 743 1049 l 1543 1049 q 1573 1019 1573 1049 l 1573 836 q 1543 806 1573 806 l 1079 806 l 1079 643 l 1435 643 q 1465 613 1465 643 l 1465 445 q 1435 415 1465 415 l 1079 415 l 1079 243 l 1554 243 m 810 404 l 810 744 l 584 404 l 810 404 m 1386 1153 q 1356 1123 1386 1123 l 989 1123 q 959 1153 959 1123 l 959 1243 q 989 1272 959 1272 l 1356 1272 q 1386 1243 1386 1272 l 1386 1153 z "},"":{"ha":990,"x_min":105,"x_max":939,"o":"m 134 0 q 105 30 105 0 l 105 1019 q 134 1049 105 1049 l 539 1049 q 724 1014 644 1049 q 848 913 804 978 q 892 762 892 848 q 876 678 892 719 q 833 606 860 637 q 774 562 806 576 q 860 507 822 546 q 918 417 898 469 q 939 308 939 365 q 895 147 939 217 q 770 38 851 77 q 582 0 689 0 l 134 0 m 515 641 q 592 668 563 641 q 621 733 621 694 q 594 795 621 771 q 522 818 567 818 l 373 818 l 373 641 l 515 641 m 559 224 q 638 255 609 224 q 668 338 668 286 q 653 391 668 366 q 611 431 638 416 q 549 446 584 446 l 373 446 l 373 224 l 559 224 m 524 1152 q 494 1122 524 1122 l 335 1122 q 305 1152 305 1122 l 305 1293 q 335 1322 305 1322 l 494 1322 q 524 1293 524 1322 l 524 1152 z "},"":{"ha":990,"x_min":105,"x_max":939,"o":"m 134 0 q 105 30 105 0 l 105 1019 q 134 1049 105 1049 l 539 1049 q 724 1014 644 1049 q 848 913 804 978 q 892 762 892 848 q 876 678 892 719 q 833 606 860 637 q 774 562 806 576 q 860 507 822 546 q 918 417 898 469 q 939 308 939 365 q 895 147 939 217 q 770 38 851 77 q 582 0 689 0 l 134 0 m 515 641 q 592 668 563 641 q 621 733 621 694 q 594 795 621 771 q 522 818 567 818 l 373 818 l 373 641 l 515 641 m 559 224 q 638 255 609 224 q 668 338 668 286 q 653 391 668 366 q 611 431 638 416 q 549 446 584 446 l 373 446 l 373 224 l 559 224 m 568 -235 q 538 -265 568 -265 l 378 -265 q 348 -235 348 -265 l 348 -95 q 378 -65 348 -65 l 538 -65 q 568 -95 568 -65 l 568 -235 z "},"":{"ha":990,"x_min":105,"x_max":939,"o":"m 134 0 q 105 30 105 0 l 105 1019 q 134 1049 105 1049 l 539 1049 q 724 1014 644 1049 q 848 913 804 978 q 892 762 892 848 q 876 678 892 719 q 833 606 860 637 q 774 562 806 576 q 860 507 822 546 q 918 417 898 469 q 939 308 939 365 q 895 147 939 217 q 770 38 851 77 q 582 0 689 0 l 134 0 m 515 641 q 592 668 563 641 q 621 733 621 694 q 594 795 621 771 q 522 818 567 818 l 373 818 l 373 641 l 515 641 m 559 224 q 638 255 609 224 q 668 338 668 286 q 653 391 668 366 q 611 431 638 416 q 549 446 584 446 l 373 446 l 373 224 l 559 224 m 681 -208 q 651 -237 681 -237 l 284 -237 q 254 -208 254 -237 l 254 -118 q 284 -88 254 -88 l 651 -88 q 681 -118 681 -88 l 681 -208 z "},"":{"ha":984,"x_min":52,"x_max":942,"o":"m 598 -19 q 321 55 447 -19 q 124 252 196 128 q 52 526 52 377 q 124 800 52 676 q 321 997 196 925 q 598 1069 446 1069 q 775 1041 691 1069 q 929 961 860 1013 q 942 939 942 951 q 934 919 942 929 l 813 761 q 791 748 803 748 q 771 755 781 748 q 688 796 733 781 q 598 812 644 812 q 463 774 526 812 q 363 671 400 736 q 325 526 325 605 q 363 381 325 447 q 463 277 400 315 q 598 239 526 239 q 689 252 650 239 q 773 297 728 265 q 793 304 783 304 q 815 291 806 304 l 934 132 q 942 111 942 120 q 931 92 942 101 q 777 10 862 39 q 598 -19 691 -19 m 792 1320 q 811 1315 803 1320 q 818 1303 818 1310 q 807 1284 818 1294 l 672 1146 q 635 1131 657 1131 l 503 1131 q 485 1135 491 1131 q 478 1148 478 1140 q 485 1167 478 1157 l 581 1302 q 618 1320 594 1320 l 792 1320 z "},"":{"ha":984,"x_min":52,"x_max":942,"o":"m 598 -19 q 321 55 447 -19 q 124 252 196 128 q 52 526 52 377 q 124 800 52 676 q 321 997 196 925 q 598 1069 446 1069 q 775 1041 691 1069 q 929 961 860 1013 q 942 939 942 951 q 934 919 942 929 l 813 761 q 791 748 803 748 q 771 755 781 748 q 688 796 733 781 q 598 812 644 812 q 463 774 526 812 q 363 671 400 736 q 325 526 325 605 q 363 381 325 447 q 463 277 400 315 q 598 239 526 239 q 689 252 650 239 q 773 297 728 265 q 793 304 783 304 q 815 291 806 304 l 934 132 q 942 111 942 120 q 931 92 942 101 q 777 10 862 39 q 598 -19 691 -19 m 398 1265 q 385 1288 385 1275 q 392 1307 385 1299 l 441 1370 q 463 1383 450 1383 q 482 1376 473 1383 l 603 1290 l 723 1376 q 741 1383 733 1383 q 765 1369 754 1383 l 812 1307 q 819 1288 819 1298 q 806 1265 819 1275 l 641 1138 q 603 1125 625 1125 q 565 1138 581 1125 l 398 1265 z "},"":{"ha":984,"x_min":52,"x_max":942,"o":"m 934 132 q 942 111 942 120 q 931 92 942 101 q 805 20 873 48 q 661 -15 736 -7 q 699 -98 683 -57 q 715 -169 715 -139 q 699 -235 715 -207 q 637 -284 682 -264 q 509 -311 592 -304 q 473 -283 478 -313 l 466 -226 l 465 -220 q 494 -190 465 -196 q 540 -170 529 -183 q 550 -136 550 -158 q 535 -82 550 -119 q 501 -10 520 -44 q 270 88 373 12 q 110 279 168 164 q 52 526 52 394 q 124 800 52 676 q 321 997 196 925 q 598 1069 446 1069 q 775 1041 691 1069 q 929 961 860 1013 q 942 939 942 951 q 934 919 942 929 l 813 761 q 791 748 803 748 q 771 755 781 748 q 688 796 733 781 q 598 812 644 812 q 463 774 526 812 q 363 671 400 736 q 325 526 325 605 q 363 381 325 447 q 463 277 400 315 q 598 239 526 239 q 689 252 650 239 q 773 297 728 265 q 793 304 783 304 q 815 291 806 304 l 934 132 z "},"":{"ha":984,"x_min":52,"x_max":942,"o":"m 503 1131 q 485 1135 491 1131 q 478 1148 478 1140 q 485 1167 478 1157 l 581 1302 q 618 1320 594 1320 l 792 1320 q 811 1315 803 1320 q 818 1303 818 1310 q 807 1284 818 1294 l 672 1146 q 635 1131 657 1131 l 503 1131 m 934 132 q 942 111 942 120 q 931 92 942 101 q 805 20 873 48 q 661 -15 736 -7 q 699 -98 683 -57 q 715 -169 715 -139 q 699 -235 715 -207 q 637 -284 682 -264 q 509 -311 592 -304 q 473 -283 478 -313 l 466 -226 l 465 -220 q 494 -190 465 -196 q 540 -170 529 -183 q 550 -136 550 -158 q 535 -82 550 -119 q 501 -10 520 -44 q 270 88 373 12 q 110 279 168 164 q 52 526 52 394 q 124 800 52 676 q 321 997 196 925 q 598 1069 446 1069 q 775 1041 691 1069 q 929 961 860 1013 q 942 939 942 951 q 934 919 942 929 l 813 761 q 791 748 803 748 q 771 755 781 748 q 688 796 733 781 q 598 812 644 812 q 463 774 526 812 q 363 671 400 736 q 325 526 325 605 q 363 381 325 447 q 463 277 400 315 q 598 239 526 239 q 689 252 650 239 q 773 297 728 265 q 793 304 783 304 q 815 291 806 304 l 934 132 z "},"":{"ha":984,"x_min":52,"x_max":942,"o":"m 598 -19 q 321 55 447 -19 q 124 252 196 128 q 52 526 52 377 q 124 800 52 676 q 321 997 196 925 q 598 1069 446 1069 q 775 1041 691 1069 q 929 961 860 1013 q 942 939 942 951 q 934 919 942 929 l 813 761 q 791 748 803 748 q 771 755 781 748 q 688 796 733 781 q 598 812 644 812 q 463 774 526 812 q 363 671 400 736 q 325 526 325 605 q 363 381 325 447 q 463 277 400 315 q 598 239 526 239 q 689 252 650 239 q 773 297 728 265 q 793 304 783 304 q 815 291 806 304 l 934 132 q 942 111 942 120 q 931 92 942 101 q 777 10 862 39 q 598 -19 691 -19 m 480 1132 q 461 1125 470 1125 q 438 1138 448 1125 l 390 1201 q 382 1220 382 1210 q 396 1243 382 1234 l 563 1370 q 601 1383 579 1383 q 638 1370 623 1383 l 804 1243 q 817 1220 817 1234 q 810 1201 817 1210 l 762 1138 q 740 1125 753 1125 q 721 1132 730 1125 l 600 1219 l 480 1132 z "},"":{"ha":984,"x_min":52,"x_max":942,"o":"m 598 -19 q 321 55 447 -19 q 124 252 196 128 q 52 526 52 377 q 124 800 52 676 q 321 997 196 925 q 598 1069 446 1069 q 775 1041 691 1069 q 929 961 860 1013 q 942 939 942 951 q 934 919 942 929 l 813 761 q 791 748 803 748 q 771 755 781 748 q 688 796 733 781 q 598 812 644 812 q 463 774 526 812 q 363 671 400 736 q 325 526 325 605 q 363 381 325 447 q 463 277 400 315 q 598 239 526 239 q 689 252 650 239 q 773 297 728 265 q 793 304 783 304 q 815 291 806 304 l 934 132 q 942 111 942 120 q 931 92 942 101 q 777 10 862 39 q 598 -19 691 -19 m 713 1165 q 683 1135 713 1135 l 523 1135 q 494 1165 494 1135 l 494 1305 q 523 1335 494 1335 l 683 1335 q 713 1305 713 1335 l 713 1165 z "},"":{"ha":2019,"x_min":105,"x_max":1967,"o":"m 134 0 q 105 30 105 0 l 105 1019 q 134 1049 105 1049 l 500 1049 q 778 980 652 1049 q 979 792 905 912 q 1052 525 1052 672 q 979 258 1052 378 q 780 69 906 137 q 502 0 653 0 l 134 0 m 511 258 q 649 291 588 258 q 745 386 710 325 q 780 525 780 447 q 745 663 780 602 q 649 758 710 724 q 510 792 587 792 l 373 792 l 373 258 l 511 258 m 1967 30 q 1937 0 1967 0 l 1152 0 q 1122 30 1122 0 l 1122 175 q 1135 213 1122 196 l 1585 806 l 1161 806 q 1131 836 1131 806 l 1131 1019 q 1161 1049 1131 1049 l 1912 1049 q 1942 1019 1942 1049 l 1942 886 q 1930 849 1942 866 l 1472 243 l 1937 243 q 1967 213 1967 243 l 1967 30 z "},"":{"ha":2019,"x_min":105,"x_max":1967,"o":"m 134 0 q 105 30 105 0 l 105 1019 q 134 1049 105 1049 l 500 1049 q 778 980 652 1049 q 979 792 905 912 q 1052 525 1052 672 q 979 258 1052 378 q 780 69 906 137 q 502 0 653 0 l 134 0 m 511 258 q 649 291 588 258 q 745 386 710 325 q 780 525 780 447 q 745 663 780 602 q 649 758 710 724 q 510 792 587 792 l 373 792 l 373 258 l 511 258 z "},"":{"ha":1104,"x_min":-24,"x_max":1052,"o":"m 105 1019 q 134 1049 105 1049 l 500 1049 q 778 980 652 1049 q 979 792 905 912 q 1052 525 1052 672 q 979 258 1052 378 q 780 69 906 137 q 502 0 653 0 l 134 0 q 105 30 105 0 l 105 425 l 6 425 q -24 455 -24 425 l -24 605 q 6 635 -24 635 l 105 635 l 105 1019 m 511 258 q 649 291 588 258 q 745 386 710 325 q 780 525 780 447 q 745 663 780 602 q 649 758 710 724 q 510 792 587 792 l 373 792 l 373 635 l 511 635 q 541 605 541 635 l 541 455 q 511 425 541 425 l 373 425 l 373 258 l 511 258 z "},"":{"ha":1104,"x_min":-24,"x_max":1052,"o":"m 105 1019 q 134 1049 105 1049 l 500 1049 q 778 980 652 1049 q 979 792 905 912 q 1052 525 1052 672 q 979 258 1052 378 q 780 69 906 137 q 502 0 653 0 l 134 0 q 105 30 105 0 l 105 425 l 6 425 q -24 455 -24 425 l -24 605 q 6 635 -24 635 l 105 635 l 105 1019 m 511 258 q 649 291 588 258 q 745 386 710 325 q 780 525 780 447 q 745 663 780 602 q 649 758 710 724 q 510 792 587 792 l 373 792 l 373 635 l 511 635 q 541 605 541 635 l 541 455 q 511 425 541 425 l 373 425 l 373 258 l 511 258 z "},"":{"ha":1104,"x_min":105,"x_max":1052,"o":"m 134 0 q 105 30 105 0 l 105 1019 q 134 1049 105 1049 l 500 1049 q 778 980 652 1049 q 979 792 905 912 q 1052 525 1052 672 q 979 258 1052 378 q 780 69 906 137 q 502 0 653 0 l 134 0 m 511 258 q 649 291 588 258 q 745 386 710 325 q 780 525 780 447 q 745 663 780 602 q 649 758 710 724 q 510 792 587 792 l 373 792 l 373 258 l 511 258 m 225 1252 q 211 1275 211 1263 q 219 1294 211 1286 l 267 1358 q 290 1370 277 1370 q 309 1364 299 1370 l 429 1277 l 550 1364 q 568 1370 559 1370 q 591 1357 581 1370 l 639 1294 q 646 1275 646 1285 q 633 1252 646 1262 l 467 1125 q 430 1113 452 1113 q 392 1125 408 1113 l 225 1252 z "},"":{"ha":1104,"x_min":105,"x_max":1052,"o":"m 134 0 q 105 30 105 0 l 105 1019 q 134 1049 105 1049 l 500 1049 q 778 980 652 1049 q 979 792 905 912 q 1052 525 1052 672 q 979 258 1052 378 q 780 69 906 137 q 502 0 653 0 l 134 0 m 511 258 q 649 291 588 258 q 745 386 710 325 q 780 525 780 447 q 745 663 780 602 q 649 758 710 724 q 510 792 587 792 l 373 792 l 373 258 l 511 258 m 444 -441 q 416 -453 431 -453 q 387 -439 400 -453 q 373 -412 373 -427 q 387 -382 373 -397 q 426 -331 414 -353 q 438 -290 438 -308 l 438 -284 l 384 -284 q 354 -274 364 -284 q 344 -244 344 -264 l 344 -141 q 354 -112 344 -122 q 384 -102 364 -102 l 502 -102 q 542 -141 542 -102 l 542 -247 q 515 -351 542 -302 q 444 -441 488 -399 z "},"":{"ha":1104,"x_min":105,"x_max":1052,"o":"m 134 0 q 105 30 105 0 l 105 1019 q 134 1049 105 1049 l 500 1049 q 778 980 652 1049 q 979 792 905 912 q 1052 525 1052 672 q 979 258 1052 378 q 780 69 906 137 q 502 0 653 0 l 134 0 m 511 258 q 649 291 588 258 q 745 386 710 325 q 780 525 780 447 q 745 663 780 602 q 649 758 710 724 q 510 792 587 792 l 373 792 l 373 258 l 511 258 m 295 -285 q 279 -290 286 -290 q 254 -273 263 -290 l 218 -211 q 213 -193 213 -202 q 228 -170 213 -178 l 389 -75 q 408 -68 399 -69 q 429 -66 417 -66 q 467 -76 450 -66 l 626 -170 q 641 -193 641 -178 q 636 -211 641 -202 l 600 -273 q 576 -290 591 -290 q 560 -285 568 -290 l 427 -216 l 295 -285 z "},"":{"ha":1104,"x_min":-24,"x_max":1052,"o":"m 105 1019 q 134 1049 105 1049 l 500 1049 q 778 980 652 1049 q 979 792 905 912 q 1052 525 1052 672 q 979 258 1052 378 q 780 69 906 137 q 502 0 653 0 l 134 0 q 105 30 105 0 l 105 425 l 6 425 q -24 455 -24 425 l -24 605 q 6 635 -24 635 l 105 635 l 105 1019 m 511 258 q 649 291 588 258 q 745 386 710 325 q 780 525 780 447 q 745 663 780 602 q 649 758 710 724 q 510 792 587 792 l 373 792 l 373 635 l 511 635 q 541 605 541 635 l 541 455 q 511 425 541 425 l 373 425 l 373 258 l 511 258 z "},"":{"ha":1104,"x_min":105,"x_max":1052,"o":"m 134 0 q 105 30 105 0 l 105 1019 q 134 1049 105 1049 l 500 1049 q 778 980 652 1049 q 979 792 905 912 q 1052 525 1052 672 q 979 258 1052 378 q 780 69 906 137 q 502 0 653 0 l 134 0 m 511 258 q 649 291 588 258 q 745 386 710 325 q 780 525 780 447 q 745 663 780 602 q 649 758 710 724 q 510 792 587 792 l 373 792 l 373 258 l 511 258 m 540 1152 q 510 1122 540 1122 l 350 1122 q 320 1152 320 1122 l 320 1293 q 350 1322 320 1322 l 510 1322 q 540 1293 540 1322 l 540 1152 z "},"":{"ha":1104,"x_min":105,"x_max":1052,"o":"m 134 0 q 105 30 105 0 l 105 1019 q 134 1049 105 1049 l 500 1049 q 778 980 652 1049 q 979 792 905 912 q 1052 525 1052 672 q 979 258 1052 378 q 780 69 906 137 q 502 0 653 0 l 134 0 m 511 258 q 649 291 588 258 q 745 386 710 325 q 780 525 780 447 q 745 663 780 602 q 649 758 710 724 q 510 792 587 792 l 373 792 l 373 258 l 511 258 m 544 -235 q 514 -265 544 -265 l 355 -265 q 325 -235 325 -265 l 325 -95 q 355 -65 325 -65 l 514 -65 q 544 -95 544 -65 l 544 -235 z "},"":{"ha":1104,"x_min":105,"x_max":1052,"o":"m 134 0 q 105 30 105 0 l 105 1019 q 134 1049 105 1049 l 500 1049 q 778 980 652 1049 q 979 792 905 912 q 1052 525 1052 672 q 979 258 1052 378 q 780 69 906 137 q 502 0 653 0 l 134 0 m 511 258 q 649 291 588 258 q 745 386 710 325 q 780 525 780 447 q 745 663 780 602 q 649 758 710 724 q 510 792 587 792 l 373 792 l 373 258 l 511 258 m 658 -208 q 628 -237 658 -237 l 261 -237 q 231 -208 231 -237 l 231 -118 q 261 -88 231 -88 l 628 -88 q 658 -118 658 -88 l 658 -208 z "},"":{"ha":1965,"x_min":105,"x_max":1913,"o":"m 134 0 q 105 30 105 0 l 105 1019 q 134 1049 105 1049 l 500 1049 q 778 980 652 1049 q 979 792 905 912 q 1052 525 1052 672 q 979 258 1052 378 q 780 69 906 137 q 502 0 653 0 l 134 0 m 511 258 q 649 291 588 258 q 745 386 710 325 q 780 525 780 447 q 745 663 780 602 q 649 758 710 724 q 510 792 587 792 l 373 792 l 373 258 l 511 258 m 1913 30 q 1883 0 1913 0 l 1187 0 q 1157 30 1157 0 l 1157 155 q 1169 193 1157 175 l 1547 673 l 1194 673 q 1164 703 1164 673 l 1164 874 q 1194 904 1164 904 l 1865 904 q 1894 874 1894 904 l 1894 757 q 1882 720 1894 737 l 1494 231 l 1883 231 q 1913 201 1913 231 l 1913 30 z "},"":{"ha":1965,"x_min":105,"x_max":1913,"o":"m 134 0 q 105 30 105 0 l 105 1019 q 134 1049 105 1049 l 500 1049 q 778 980 652 1049 q 979 792 905 912 q 1052 525 1052 672 q 979 258 1052 378 q 780 69 906 137 q 502 0 653 0 l 134 0 m 511 258 q 649 291 588 258 q 745 386 710 325 q 780 525 780 447 q 745 663 780 602 q 649 758 710 724 q 510 792 587 792 l 373 792 l 373 258 l 511 258 z "},"":{"ha":930,"x_min":105,"x_max":878,"o":"m 878 30 q 848 0 878 0 l 134 0 q 105 30 105 0 l 105 1019 q 134 1049 105 1049 l 837 1049 q 867 1019 867 1049 l 867 836 q 837 806 867 806 l 373 806 l 373 643 l 730 643 q 759 613 759 643 l 759 445 q 730 415 759 415 l 373 415 l 373 243 l 848 243 q 878 213 878 243 l 878 30 m 692 1307 q 711 1303 704 1307 q 718 1290 718 1298 q 708 1271 718 1281 l 573 1134 q 536 1118 558 1118 l 404 1118 q 385 1123 392 1118 q 379 1136 379 1128 q 385 1154 379 1145 l 482 1289 q 518 1307 495 1307 l 692 1307 z "},"":{"ha":930,"x_min":105,"x_max":878,"o":"m 878 30 q 848 0 878 0 l 134 0 q 105 30 105 0 l 105 1019 q 134 1049 105 1049 l 837 1049 q 867 1019 867 1049 l 867 836 q 837 806 867 806 l 373 806 l 373 643 l 730 643 q 759 613 759 643 l 759 445 q 730 415 759 415 l 373 415 l 373 243 l 848 243 q 878 213 878 243 l 878 30 m 503 1119 q 345 1166 401 1119 q 279 1292 289 1214 q 285 1314 277 1306 q 308 1322 293 1322 l 414 1322 q 434 1316 427 1322 q 445 1294 441 1309 q 503 1250 456 1250 q 561 1294 550 1250 q 572 1316 565 1309 q 592 1322 579 1322 l 697 1322 q 720 1316 712 1322 q 727 1299 727 1310 q 663 1168 719 1218 q 503 1119 607 1119 z "},"":{"ha":930,"x_min":105,"x_max":878,"o":"m 878 30 q 848 0 878 0 l 134 0 q 105 30 105 0 l 105 1019 q 134 1049 105 1049 l 837 1049 q 867 1019 867 1049 l 867 836 q 837 806 867 806 l 373 806 l 373 643 l 730 643 q 759 613 759 643 l 759 445 q 730 415 759 415 l 373 415 l 373 243 l 848 243 q 878 213 878 243 l 878 30 m 299 1252 q 285 1275 285 1263 q 293 1294 285 1286 l 341 1358 q 364 1370 351 1370 q 383 1364 373 1370 l 503 1277 l 624 1364 q 642 1370 633 1370 q 665 1357 655 1370 l 713 1294 q 720 1275 720 1285 q 707 1252 720 1262 l 541 1125 q 504 1113 526 1113 q 466 1125 482 1113 l 299 1252 z "},"":{"ha":930,"x_min":105,"x_max":878,"o":"m 848 243 q 878 213 878 243 l 878 30 q 848 0 878 0 l 582 0 q 625 -87 606 -40 q 644 -167 644 -134 q 628 -234 644 -205 q 567 -282 612 -262 q 439 -309 522 -302 q 403 -282 408 -311 l 396 -224 l 395 -218 q 424 -189 395 -195 q 470 -169 459 -181 q 480 -134 480 -156 q 463 -75 480 -116 q 425 0 447 -34 l 134 0 q 105 30 105 0 l 105 1019 q 134 1049 105 1049 l 837 1049 q 867 1019 867 1049 l 867 836 q 837 806 867 806 l 373 806 l 373 643 l 730 643 q 759 613 759 643 l 759 445 q 730 415 759 415 l 373 415 l 373 243 l 848 243 z "},"":{"ha":930,"x_min":105,"x_max":878,"o":"m 503 1119 q 345 1166 401 1119 q 279 1292 289 1214 q 285 1314 277 1306 q 308 1322 293 1322 l 414 1322 q 434 1316 427 1322 q 445 1294 441 1309 q 503 1250 456 1250 q 561 1294 550 1250 q 572 1316 565 1309 q 592 1322 579 1322 l 697 1322 q 720 1316 712 1322 q 727 1299 727 1310 q 663 1168 719 1218 q 503 1119 607 1119 m 848 243 q 878 213 878 243 l 878 30 q 848 0 878 0 l 582 0 q 625 -87 606 -40 q 644 -167 644 -134 q 628 -234 644 -205 q 567 -282 612 -262 q 439 -309 522 -302 q 403 -282 408 -311 l 396 -224 l 395 -218 q 424 -189 395 -195 q 470 -169 459 -181 q 480 -134 480 -156 q 463 -75 480 -116 q 425 0 447 -34 l 134 0 q 105 30 105 0 l 105 1019 q 134 1049 105 1049 l 837 1049 q 867 1019 867 1049 l 867 836 q 837 806 867 806 l 373 806 l 373 643 l 730 643 q 759 613 759 643 l 759 445 q 730 415 759 415 l 373 415 l 373 243 l 848 243 z "},"":{"ha":930,"x_min":105,"x_max":878,"o":"m 878 30 q 848 0 878 0 l 134 0 q 105 30 105 0 l 105 1019 q 134 1049 105 1049 l 837 1049 q 867 1019 867 1049 l 867 836 q 837 806 867 806 l 373 806 l 373 643 l 730 643 q 759 613 759 643 l 759 445 q 730 415 759 415 l 373 415 l 373 243 l 848 243 q 878 213 878 243 l 878 30 m 381 1119 q 361 1113 371 1113 q 339 1125 349 1113 l 290 1189 q 283 1207 283 1197 q 296 1231 283 1221 l 464 1358 q 502 1370 479 1370 q 539 1358 523 1370 l 705 1231 q 718 1207 718 1221 q 711 1189 718 1198 l 663 1125 q 641 1113 653 1113 q 621 1119 631 1113 l 501 1206 l 381 1119 z "},"":{"ha":930,"x_min":105,"x_max":878,"o":"m 878 30 q 848 0 878 0 l 134 0 q 105 30 105 0 l 105 1019 q 134 1049 105 1049 l 837 1049 q 867 1019 867 1049 l 867 836 q 837 806 867 806 l 373 806 l 373 643 l 730 643 q 759 613 759 643 l 759 445 q 730 415 759 415 l 373 415 l 373 243 l 848 243 q 878 213 878 243 l 878 30 z "},"":{"ha":930,"x_min":105,"x_max":878,"o":"m 878 30 q 848 0 878 0 l 134 0 q 105 30 105 0 l 105 1019 q 134 1049 105 1049 l 837 1049 q 867 1019 867 1049 l 867 836 q 837 806 867 806 l 373 806 l 373 643 l 730 643 q 759 613 759 643 l 759 445 q 730 415 759 415 l 373 415 l 373 243 l 848 243 q 878 213 878 243 l 878 30 m 364 -285 q 347 -290 355 -290 q 323 -273 332 -290 l 287 -211 q 282 -193 282 -202 q 297 -170 282 -178 l 458 -75 q 476 -68 467 -69 q 498 -66 485 -66 q 535 -76 519 -66 l 694 -170 q 710 -193 710 -178 q 705 -211 710 -202 l 669 -273 q 644 -290 660 -290 q 629 -285 636 -290 l 496 -216 l 364 -285 z "},"":{"ha":930,"x_min":105,"x_max":878,"o":"m 878 30 q 848 0 878 0 l 134 0 q 105 30 105 0 l 105 1019 q 134 1049 105 1049 l 837 1049 q 867 1019 867 1049 l 867 836 q 837 806 867 806 l 373 806 l 373 643 l 730 643 q 759 613 759 643 l 759 445 q 730 415 759 415 l 373 415 l 373 243 l 848 243 q 878 213 878 243 l 878 30 m 613 -235 q 583 -265 613 -265 l 423 -265 q 394 -235 394 -265 l 394 -95 q 423 -65 394 -65 l 583 -65 q 613 -95 613 -65 l 613 -235 m 381 1119 q 361 1113 371 1113 q 339 1125 349 1113 l 290 1189 q 283 1207 283 1197 q 296 1231 283 1221 l 464 1358 q 502 1370 479 1370 q 539 1358 523 1370 l 705 1231 q 718 1207 718 1221 q 711 1189 718 1198 l 663 1125 q 641 1113 653 1113 q 621 1119 631 1113 l 501 1206 l 381 1119 z "},"":{"ha":930,"x_min":105,"x_max":878,"o":"m 878 30 q 848 0 878 0 l 134 0 q 105 30 105 0 l 105 1019 q 134 1049 105 1049 l 837 1049 q 867 1019 867 1049 l 867 836 q 837 806 867 806 l 373 806 l 373 643 l 730 643 q 759 613 759 643 l 759 445 q 730 415 759 415 l 373 415 l 373 243 l 848 243 q 878 213 878 243 l 878 30 m 688 1233 q 703 1209 703 1224 q 698 1192 703 1200 l 662 1129 q 638 1113 653 1113 q 621 1117 630 1113 l 489 1187 l 356 1117 q 341 1113 348 1113 q 316 1129 325 1113 l 280 1193 q 275 1210 275 1201 q 290 1233 275 1224 l 368 1278 l 284 1277 q 247 1295 261 1277 l 181 1376 q 173 1395 173 1387 q 180 1408 173 1403 q 199 1413 187 1412 l 284 1414 q 320 1393 309 1414 l 372 1287 q 373 1281 374 1284 l 450 1326 q 487 1337 466 1337 q 508 1335 499 1337 q 527 1327 517 1333 l 688 1233 z "},"":{"ha":930,"x_min":105,"x_max":878,"o":"m 878 30 q 848 0 878 0 l 134 0 q 105 30 105 0 l 105 1019 q 134 1049 105 1049 l 837 1049 q 867 1019 867 1049 l 867 836 q 837 806 867 806 l 373 806 l 373 643 l 730 643 q 759 613 759 643 l 759 445 q 730 415 759 415 l 373 415 l 373 243 l 848 243 q 878 213 878 243 l 878 30 m 724 1287 q 688 1269 711 1269 q 653 1284 653 1269 q 656 1295 653 1290 q 662 1322 662 1312 q 647 1340 662 1340 q 640 1340 642 1340 q 626 1338 629 1338 q 612 1342 617 1338 q 605 1355 607 1346 q 603 1366 603 1363 q 622 1393 603 1384 q 679 1406 650 1406 q 736 1393 714 1406 q 758 1358 758 1381 q 750 1325 758 1341 q 724 1287 741 1310 m 376 1107 q 359 1103 367 1103 q 335 1119 343 1103 l 299 1182 q 293 1199 293 1190 q 309 1223 293 1214 l 470 1317 q 488 1325 479 1323 q 510 1327 497 1327 q 547 1316 531 1327 l 706 1223 q 722 1199 722 1214 q 717 1182 722 1190 l 681 1119 q 656 1103 672 1103 q 641 1107 648 1103 l 508 1177 l 376 1107 z "},"":{"ha":930,"x_min":105,"x_max":878,"o":"m 878 30 q 848 0 878 0 l 134 0 q 105 30 105 0 l 105 1019 q 134 1049 105 1049 l 837 1049 q 867 1019 867 1049 l 867 836 q 837 806 867 806 l 373 806 l 373 643 l 730 643 q 759 613 759 643 l 759 445 q 730 415 759 415 l 373 415 l 373 243 l 848 243 q 878 213 878 243 l 878 30 m 428 1377 q 408 1367 419 1367 q 391 1372 400 1367 q 368 1389 375 1382 q 361 1405 361 1396 q 366 1420 361 1412 q 405 1468 384 1455 q 450 1482 426 1482 q 485 1477 469 1482 q 522 1464 502 1473 q 538 1458 526 1463 q 560 1454 551 1454 q 575 1459 568 1454 q 600 1472 591 1472 q 628 1461 609 1472 q 645 1435 645 1450 q 641 1420 645 1428 q 557 1357 607 1357 q 522 1361 538 1357 q 485 1375 506 1366 q 464 1383 474 1379 q 446 1386 453 1386 q 428 1377 437 1386 m 372 1107 q 355 1102 363 1102 q 331 1119 340 1102 l 295 1181 q 290 1198 290 1190 q 305 1222 290 1213 l 466 1316 q 485 1324 476 1322 q 506 1326 494 1326 q 544 1316 527 1326 l 703 1222 q 718 1198 718 1213 q 713 1181 718 1190 l 677 1119 q 653 1102 668 1102 q 637 1107 645 1102 l 504 1176 l 372 1107 z "},"":{"ha":930,"x_min":105,"x_max":878,"o":"m 878 30 q 848 0 878 0 l 134 0 q 105 30 105 0 l 105 1019 q 134 1049 105 1049 l 837 1049 q 867 1019 867 1049 l 867 836 q 837 806 867 806 l 373 806 l 373 643 l 730 643 q 759 613 759 643 l 759 445 q 730 415 759 415 l 373 415 l 373 243 l 848 243 q 878 213 878 243 l 878 30 m 460 1161 q 467 1142 467 1151 q 460 1128 467 1134 q 441 1123 453 1123 l 328 1123 q 290 1139 306 1123 l 173 1257 q 163 1278 163 1269 q 170 1290 163 1286 q 190 1295 177 1295 l 341 1295 q 378 1275 364 1295 l 460 1161 m 746 1161 q 753 1142 753 1151 q 746 1128 753 1134 q 726 1123 739 1123 l 613 1123 q 575 1139 591 1123 l 458 1257 q 448 1277 448 1267 q 455 1290 448 1285 q 475 1295 462 1295 l 626 1295 q 663 1275 650 1295 l 746 1161 z "},"":{"ha":930,"x_min":105,"x_max":878,"o":"m 878 30 q 848 0 878 0 l 134 0 q 105 30 105 0 l 105 1019 q 134 1049 105 1049 l 837 1049 q 867 1019 867 1049 l 867 836 q 837 806 867 806 l 373 806 l 373 643 l 730 643 q 759 613 759 643 l 759 445 q 730 415 759 415 l 373 415 l 373 243 l 848 243 q 878 213 878 243 l 878 30 m 429 1152 q 399 1122 429 1122 l 256 1122 q 226 1152 226 1122 l 226 1305 q 256 1334 226 1334 l 399 1334 q 429 1305 429 1334 l 429 1152 m 781 1152 q 751 1122 781 1122 l 608 1122 q 578 1152 578 1122 l 578 1305 q 608 1334 578 1334 l 751 1334 q 781 1305 781 1334 l 781 1152 z "},"":{"ha":930,"x_min":105,"x_max":878,"o":"m 878 30 q 848 0 878 0 l 134 0 q 105 30 105 0 l 105 1019 q 134 1049 105 1049 l 837 1049 q 867 1019 867 1049 l 867 836 q 837 806 867 806 l 373 806 l 373 643 l 730 643 q 759 613 759 643 l 759 445 q 730 415 759 415 l 373 415 l 373 243 l 848 243 q 878 213 878 243 l 878 30 m 614 1152 q 584 1122 614 1122 l 424 1122 q 394 1152 394 1122 l 394 1293 q 424 1322 394 1322 l 584 1322 q 614 1293 614 1322 l 614 1152 z "},"":{"ha":930,"x_min":105,"x_max":878,"o":"m 878 30 q 848 0 878 0 l 134 0 q 105 30 105 0 l 105 1019 q 134 1049 105 1049 l 837 1049 q 867 1019 867 1049 l 867 836 q 837 806 867 806 l 373 806 l 373 643 l 730 643 q 759 613 759 643 l 759 445 q 730 415 759 415 l 373 415 l 373 243 l 848 243 q 878 213 878 243 l 878 30 m 613 -235 q 583 -265 613 -265 l 423 -265 q 394 -235 394 -265 l 394 -95 q 423 -65 394 -65 l 583 -65 q 613 -95 613 -65 l 613 -235 z "},"":{"ha":930,"x_min":105,"x_max":878,"o":"m 878 30 q 848 0 878 0 l 134 0 q 105 30 105 0 l 105 1019 q 134 1049 105 1049 l 837 1049 q 867 1019 867 1049 l 867 836 q 837 806 867 806 l 373 806 l 373 643 l 730 643 q 759 613 759 643 l 759 445 q 730 415 759 415 l 373 415 l 373 243 l 848 243 q 878 213 878 243 l 878 30 m 600 1154 q 606 1136 606 1145 q 600 1123 606 1128 q 581 1118 593 1118 l 449 1118 q 412 1134 427 1118 l 277 1271 q 267 1291 267 1283 q 274 1303 267 1299 q 293 1307 281 1307 l 467 1307 q 503 1289 490 1307 l 600 1154 z "},"":{"ha":930,"x_min":105,"x_max":878,"o":"m 878 30 q 848 0 878 0 l 134 0 q 105 30 105 0 l 105 1019 q 134 1049 105 1049 l 837 1049 q 867 1019 867 1049 l 867 836 q 837 806 867 806 l 373 806 l 373 643 l 730 643 q 759 613 759 643 l 759 445 q 730 415 759 415 l 373 415 l 373 243 l 848 243 q 878 213 878 243 l 878 30 m 560 1145 q 541 1129 550 1132 q 500 1127 532 1127 q 464 1147 464 1127 q 468 1162 464 1152 q 478 1201 478 1184 q 456 1225 478 1225 q 435 1222 447 1225 q 422 1219 428 1219 q 396 1249 402 1219 q 393 1269 393 1260 q 397 1283 393 1278 q 411 1294 401 1289 q 500 1317 456 1317 q 580 1299 550 1317 q 611 1249 611 1281 q 599 1203 611 1225 q 560 1145 587 1180 z "},"":{"ha":930,"x_min":105,"x_max":878,"o":"m 878 30 q 848 0 878 0 l 134 0 q 105 30 105 0 l 105 1019 q 134 1049 105 1049 l 837 1049 q 867 1019 867 1049 l 867 836 q 837 806 867 806 l 373 806 l 373 643 l 730 643 q 759 613 759 643 l 759 445 q 730 415 759 415 l 373 415 l 373 243 l 848 243 q 878 213 878 243 l 878 30 m 503 1325 q 660 1278 605 1325 q 726 1152 716 1231 q 720 1130 728 1138 q 697 1122 712 1122 l 592 1122 q 572 1128 579 1122 q 561 1150 565 1135 q 503 1194 550 1194 q 445 1150 456 1194 q 434 1128 441 1135 q 414 1122 427 1122 l 308 1122 q 285 1128 293 1122 q 279 1145 278 1134 q 342 1275 286 1225 q 503 1325 399 1325 z "},"":{"ha":930,"x_min":105,"x_max":878,"o":"m 878 30 q 848 0 878 0 l 134 0 q 105 30 105 0 l 105 1019 q 134 1049 105 1049 l 837 1049 q 867 1019 867 1049 l 867 836 q 837 806 867 806 l 373 806 l 373 643 l 730 643 q 759 613 759 643 l 759 445 q 730 415 759 415 l 373 415 l 373 243 l 848 243 q 878 213 878 243 l 878 30 m 725 1153 q 695 1123 725 1123 l 328 1123 q 298 1153 298 1123 l 298 1243 q 328 1272 298 1272 l 695 1272 q 725 1243 725 1272 l 725 1153 z "},"":{"ha":930,"x_min":105,"x_max":878,"o":"m 878 30 q 848 0 878 0 l 134 0 q 105 30 105 0 l 105 1019 q 134 1049 105 1049 l 837 1049 q 867 1019 867 1049 l 867 836 q 837 806 867 806 l 373 806 l 373 643 l 730 643 q 759 613 759 643 l 759 445 q 730 415 759 415 l 373 415 l 373 243 l 848 243 q 878 213 878 243 l 878 30 m 725 1153 q 695 1123 725 1123 l 328 1123 q 298 1153 298 1123 l 298 1243 q 328 1272 298 1272 l 695 1272 q 725 1243 725 1272 l 725 1153 m 692 1501 q 711 1496 704 1501 q 718 1484 718 1491 q 708 1464 718 1475 l 573 1327 q 536 1311 558 1311 l 404 1311 q 385 1316 392 1311 q 379 1329 379 1321 q 385 1348 379 1338 l 482 1482 q 518 1501 495 1501 l 692 1501 z "},"":{"ha":930,"x_min":105,"x_max":878,"o":"m 878 30 q 848 0 878 0 l 134 0 q 105 30 105 0 l 105 1019 q 134 1049 105 1049 l 837 1049 q 867 1019 867 1049 l 867 836 q 837 806 867 806 l 373 806 l 373 643 l 730 643 q 759 613 759 643 l 759 445 q 730 415 759 415 l 373 415 l 373 243 l 848 243 q 878 213 878 243 l 878 30 m 725 1153 q 695 1123 725 1123 l 328 1123 q 298 1153 298 1123 l 298 1243 q 328 1272 298 1272 l 695 1272 q 725 1243 725 1272 l 725 1153 m 600 1348 q 606 1329 606 1338 q 600 1316 606 1321 q 581 1311 593 1311 l 449 1311 q 412 1327 427 1311 l 277 1464 q 267 1484 267 1476 q 274 1496 267 1492 q 293 1501 281 1501 l 467 1501 q 503 1482 490 1501 l 600 1348 z "},"":{"ha":930,"x_min":105,"x_max":904,"o":"m 878 30 q 848 0 878 0 l 134 0 q 105 30 105 0 l 105 1019 q 134 1049 105 1049 l 837 1049 q 867 1019 867 1049 l 867 836 q 837 806 867 806 l 373 806 l 373 643 l 730 643 q 759 613 759 643 l 759 445 q 730 415 759 415 l 373 415 l 373 243 l 848 243 q 878 213 878 243 l 878 30 m 693 -16 q 730 0 706 0 l 807 0 l 848 0 q 805 -66 816 -43 q 795 -107 795 -89 q 808 -147 795 -131 q 845 -164 822 -164 q 859 -163 854 -164 q 868 -162 862 -162 q 894 -187 891 -162 l 900 -235 q 879 -272 904 -263 q 832 -283 857 -279 q 769 -286 806 -286 q 661 -254 694 -286 q 627 -174 627 -223 q 646 -90 627 -129 q 693 -16 664 -52 z "},"":{"ha":930,"x_min":105,"x_max":878,"o":"m 878 30 q 848 0 878 0 l 134 0 q 105 30 105 0 l 105 1019 q 134 1049 105 1049 l 837 1049 q 867 1019 867 1049 l 867 836 q 837 806 867 806 l 373 806 l 373 643 l 730 643 q 759 613 759 643 l 759 445 q 730 415 759 415 l 373 415 l 373 243 l 848 243 q 878 213 878 243 l 878 30 m 367 1140 q 341 1126 355 1126 q 326 1131 335 1126 l 276 1157 q 260 1182 260 1166 q 264 1198 260 1191 q 330 1290 294 1263 q 407 1316 367 1316 q 463 1309 438 1316 q 524 1287 489 1302 q 560 1274 546 1278 q 585 1269 573 1269 q 621 1289 603 1269 q 645 1304 633 1304 q 662 1299 653 1304 l 710 1272 q 727 1247 727 1263 q 723 1231 727 1238 q 656 1139 692 1166 q 580 1113 620 1113 q 524 1120 550 1113 q 463 1142 498 1128 q 427 1155 441 1151 q 402 1160 414 1160 q 367 1140 385 1160 z "},"":{"ha":930,"x_min":105,"x_max":878,"o":"m 878 30 q 848 0 878 0 l 134 0 q 105 30 105 0 l 105 1019 q 134 1049 105 1049 l 837 1049 q 867 1019 867 1049 l 867 836 q 837 806 867 806 l 373 806 l 373 643 l 730 643 q 759 613 759 643 l 759 445 q 730 415 759 415 l 373 415 l 373 243 l 848 243 q 878 213 878 243 l 878 30 m 372 -230 q 346 -244 360 -244 q 331 -240 340 -244 l 282 -213 q 265 -188 265 -204 q 269 -172 265 -179 q 336 -81 299 -107 q 412 -55 372 -55 q 469 -62 443 -55 q 529 -83 494 -69 q 565 -96 551 -92 q 591 -101 579 -101 q 626 -81 609 -101 q 650 -66 638 -66 q 667 -72 659 -66 l 715 -99 q 732 -123 732 -108 q 728 -140 732 -132 q 661 -231 697 -205 q 585 -257 625 -257 q 529 -250 555 -257 q 468 -228 503 -243 q 433 -215 447 -220 q 407 -211 419 -211 q 372 -230 391 -211 z "},"":{"ha":855,"x_min":105,"x_max":824,"o":"m 373 30 q 343 0 373 0 l 134 0 q 105 30 105 0 l 105 1019 q 134 1049 105 1049 l 794 1049 q 824 1019 824 1049 l 824 836 q 794 806 824 806 l 373 806 l 373 583 l 686 583 q 716 553 716 583 l 716 385 q 686 355 716 355 l 373 355 l 373 30 m 570 1151 q 540 1122 570 1122 l 380 1122 q 350 1151 350 1122 l 350 1292 q 380 1322 350 1322 l 540 1322 q 570 1292 570 1322 l 570 1151 z "},"":{"ha":1027,"x_min":52,"x_max":960,"o":"m 706 455 q 736 485 706 485 l 930 485 q 960 455 960 485 l 960 119 q 942 83 960 96 q 782 8 871 34 q 598 -19 693 -19 q 321 55 447 -19 q 124 252 196 128 q 52 526 52 377 q 124 800 52 676 q 321 997 196 925 q 598 1069 446 1069 q 775 1041 691 1069 q 929 961 860 1013 q 942 939 942 951 q 934 919 942 929 l 813 761 q 791 748 803 748 q 771 755 781 748 q 688 796 733 781 q 598 812 644 812 q 463 774 526 812 q 363 671 400 736 q 325 526 325 605 q 363 378 325 446 q 463 271 400 311 q 598 231 526 231 q 706 247 658 231 l 706 455 m 791 1307 q 810 1303 803 1307 q 817 1290 817 1298 q 806 1271 817 1281 l 671 1134 q 635 1118 656 1118 l 503 1118 q 484 1123 491 1118 q 477 1136 477 1128 q 484 1154 477 1145 l 580 1289 q 617 1307 594 1307 l 791 1307 z "},"":{"ha":1027,"x_min":52,"x_max":960,"o":"m 706 455 q 736 485 706 485 l 930 485 q 960 455 960 485 l 960 119 q 942 83 960 96 q 782 8 871 34 q 598 -19 693 -19 q 321 55 447 -19 q 124 252 196 128 q 52 526 52 377 q 124 800 52 676 q 321 997 196 925 q 598 1069 446 1069 q 775 1041 691 1069 q 929 961 860 1013 q 942 939 942 951 q 934 919 942 929 l 813 761 q 791 748 803 748 q 771 755 781 748 q 688 796 733 781 q 598 812 644 812 q 463 774 526 812 q 363 671 400 736 q 325 526 325 605 q 363 378 325 446 q 463 271 400 311 q 598 231 526 231 q 706 247 658 231 l 706 455 m 601 1119 q 444 1166 500 1119 q 378 1292 388 1214 q 383 1314 376 1306 q 406 1322 391 1322 l 512 1322 q 533 1316 526 1322 q 544 1294 540 1309 q 601 1250 555 1250 q 659 1294 648 1250 q 670 1316 663 1309 q 691 1322 677 1322 l 796 1322 q 818 1316 811 1322 q 825 1299 826 1310 q 762 1168 818 1218 q 601 1119 706 1119 z "},"":{"ha":1027,"x_min":52,"x_max":960,"o":"m 706 455 q 736 485 706 485 l 930 485 q 960 455 960 485 l 960 119 q 942 83 960 96 q 782 8 871 34 q 598 -19 693 -19 q 321 55 447 -19 q 124 252 196 128 q 52 526 52 377 q 124 800 52 676 q 321 997 196 925 q 598 1069 446 1069 q 775 1041 691 1069 q 929 961 860 1013 q 942 939 942 951 q 934 919 942 929 l 813 761 q 791 748 803 748 q 771 755 781 748 q 688 796 733 781 q 598 812 644 812 q 463 774 526 812 q 363 671 400 736 q 325 526 325 605 q 363 378 325 446 q 463 271 400 311 q 598 231 526 231 q 706 247 658 231 l 706 455 m 397 1252 q 384 1275 384 1263 q 391 1294 384 1286 l 440 1358 q 462 1370 450 1370 q 482 1364 472 1370 l 602 1277 l 722 1364 q 741 1370 732 1370 q 764 1357 753 1370 l 812 1294 q 818 1275 818 1285 q 806 1252 818 1262 l 640 1125 q 603 1113 624 1113 q 565 1125 580 1113 l 397 1252 z "},"":{"ha":1027,"x_min":52,"x_max":960,"o":"m 706 455 q 736 485 706 485 l 930 485 q 960 455 960 485 l 960 119 q 942 83 960 96 q 782 8 871 34 q 598 -19 693 -19 q 321 55 447 -19 q 124 252 196 128 q 52 526 52 377 q 124 800 52 676 q 321 997 196 925 q 598 1069 446 1069 q 775 1041 691 1069 q 929 961 860 1013 q 942 939 942 951 q 934 919 942 929 l 813 761 q 791 748 803 748 q 771 755 781 748 q 688 796 733 781 q 598 812 644 812 q 463 774 526 812 q 363 671 400 736 q 325 526 325 605 q 363 378 325 446 q 463 271 400 311 q 598 231 526 231 q 706 247 658 231 l 706 455 m 479 1119 q 460 1113 470 1113 q 438 1125 447 1113 l 389 1189 q 382 1207 382 1197 q 395 1231 382 1221 l 562 1358 q 600 1370 578 1370 q 638 1358 622 1370 l 803 1231 q 816 1207 816 1221 q 809 1189 816 1198 l 762 1125 q 739 1113 752 1113 q 720 1119 730 1113 l 600 1206 l 479 1119 z "},"":{"ha":1027,"x_min":52,"x_max":960,"o":"m 706 455 q 736 485 706 485 l 930 485 q 960 455 960 485 l 960 119 q 942 83 960 96 q 782 8 871 34 q 598 -19 693 -19 q 321 55 447 -19 q 124 252 196 128 q 52 526 52 377 q 124 800 52 676 q 321 997 196 925 q 598 1069 446 1069 q 775 1041 691 1069 q 929 961 860 1013 q 942 939 942 951 q 934 919 942 929 l 813 761 q 791 748 803 748 q 771 755 781 748 q 688 796 733 781 q 598 812 644 812 q 463 774 526 812 q 363 671 400 736 q 325 526 325 605 q 363 378 325 446 q 463 271 400 311 q 598 231 526 231 q 706 247 658 231 l 706 455 m 612 -444 q 585 -456 600 -456 q 556 -443 569 -456 q 541 -416 541 -431 q 556 -386 541 -400 q 594 -335 582 -357 q 606 -293 606 -312 l 606 -288 l 553 -288 q 523 -278 533 -288 q 513 -248 513 -267 l 513 -145 q 523 -115 513 -125 q 553 -105 533 -105 l 671 -105 q 711 -145 711 -105 l 711 -251 q 684 -354 711 -305 q 612 -444 656 -403 z "},"":{"ha":1027,"x_min":52,"x_max":960,"o":"m 706 455 q 736 485 706 485 l 930 485 q 960 455 960 485 l 960 119 q 942 83 960 96 q 782 8 871 34 q 598 -19 693 -19 q 321 55 447 -19 q 124 252 196 128 q 52 526 52 377 q 124 800 52 676 q 321 997 196 925 q 598 1069 446 1069 q 775 1041 691 1069 q 929 961 860 1013 q 942 939 942 951 q 934 919 942 929 l 813 761 q 791 748 803 748 q 771 755 781 748 q 688 796 733 781 q 598 812 644 812 q 463 774 526 812 q 363 671 400 736 q 325 526 325 605 q 363 378 325 446 q 463 271 400 311 q 598 231 526 231 q 706 247 658 231 l 706 455 m 712 1152 q 682 1122 712 1122 l 523 1122 q 493 1152 493 1122 l 493 1293 q 523 1322 493 1322 l 682 1322 q 712 1293 712 1322 l 712 1152 z "},"":{"ha":1027,"x_min":52,"x_max":960,"o":"m 706 455 q 736 485 706 485 l 930 485 q 960 455 960 485 l 960 119 q 942 83 960 96 q 782 8 871 34 q 598 -19 693 -19 q 321 55 447 -19 q 124 252 196 128 q 52 526 52 377 q 124 800 52 676 q 321 997 196 925 q 598 1069 446 1069 q 775 1041 691 1069 q 929 961 860 1013 q 942 939 942 951 q 934 919 942 929 l 813 761 q 791 748 803 748 q 771 755 781 748 q 688 796 733 781 q 598 812 644 812 q 463 774 526 812 q 363 671 400 736 q 325 526 325 605 q 363 378 325 446 q 463 271 400 311 q 598 231 526 231 q 706 247 658 231 l 706 455 m 824 1153 q 794 1123 824 1123 l 426 1123 q 397 1153 397 1123 l 397 1243 q 426 1272 397 1272 l 794 1272 q 824 1243 824 1272 l 824 1153 z "},"":{"ha":1130,"x_min":39,"x_max":1095,"o":"m 1066 951 q 1095 921 1095 951 l 1095 815 q 1066 786 1095 786 l 1025 786 l 1025 30 q 995 0 1025 0 l 786 0 q 756 30 756 0 l 756 420 l 373 420 l 373 30 q 343 0 373 0 l 134 0 q 105 30 105 0 l 105 786 l 69 786 q 39 815 39 786 l 39 921 q 69 951 39 951 l 105 951 l 105 1019 q 134 1049 105 1049 l 343 1049 q 373 1019 373 1049 l 373 951 l 756 951 l 756 1019 q 786 1049 756 1049 l 995 1049 q 1025 1019 1025 1049 l 1025 951 l 1066 951 m 756 677 l 756 786 l 373 786 l 373 677 l 756 677 z "},"":{"ha":1130,"x_min":105,"x_max":1025,"o":"m 373 30 q 343 0 373 0 l 134 0 q 105 30 105 0 l 105 1019 q 134 1049 105 1049 l 343 1049 q 373 1019 373 1049 l 373 677 l 756 677 l 756 1019 q 786 1049 756 1049 l 995 1049 q 1025 1019 1025 1049 l 1025 30 q 995 0 1025 0 l 786 0 q 756 30 756 0 l 756 420 l 373 420 l 373 30 m 570 -296 q 410 -245 466 -296 q 344 -108 353 -194 q 351 -86 343 -94 q 373 -78 358 -78 l 479 -78 q 510 -107 506 -78 q 529 -145 514 -134 q 570 -157 543 -157 q 611 -145 597 -157 q 630 -107 626 -134 q 661 -78 635 -78 l 765 -78 q 788 -84 780 -78 q 795 -104 796 -91 q 732 -244 789 -193 q 570 -296 676 -296 z "},"":{"ha":1130,"x_min":105,"x_max":1025,"o":"m 373 30 q 343 0 373 0 l 134 0 q 105 30 105 0 l 105 1019 q 134 1049 105 1049 l 343 1049 q 373 1019 373 1049 l 373 677 l 756 677 l 756 1019 q 786 1049 756 1049 l 995 1049 q 1025 1019 1025 1049 l 1025 30 q 995 0 1025 0 l 786 0 q 756 30 756 0 l 756 420 l 373 420 l 373 30 m 364 1252 q 350 1275 350 1263 q 358 1294 350 1286 l 406 1358 q 429 1370 416 1370 q 448 1364 438 1370 l 568 1277 l 688 1364 q 707 1370 698 1370 q 730 1357 720 1370 l 778 1294 q 785 1275 785 1285 q 772 1252 785 1262 l 606 1125 q 569 1113 591 1113 q 531 1125 547 1113 l 364 1252 z "},"":{"ha":1130,"x_min":105,"x_max":1025,"o":"m 995 1049 q 1025 1019 1025 1049 l 1025 30 q 995 0 1025 0 l 786 0 q 756 30 756 0 l 756 420 l 373 420 l 373 30 q 345 0 373 1 q 388 -87 369 -40 q 407 -167 407 -134 q 391 -234 407 -205 q 330 -282 375 -262 q 202 -309 284 -302 q 166 -282 170 -311 l 158 -224 l 158 -218 q 187 -189 158 -195 q 232 -169 222 -181 q 243 -134 243 -156 q 226 -75 243 -116 q 187 0 209 -34 l 134 0 q 105 30 105 0 l 105 1019 q 134 1049 105 1049 l 343 1049 q 373 1019 373 1049 l 373 677 l 756 677 l 756 1019 q 786 1049 756 1049 l 995 1049 z "},"":{"ha":1130,"x_min":105,"x_max":1025,"o":"m 373 30 q 343 0 373 0 l 134 0 q 105 30 105 0 l 105 1019 q 134 1049 105 1049 l 343 1049 q 373 1019 373 1049 l 373 677 l 756 677 l 756 1019 q 786 1049 756 1049 l 995 1049 q 1025 1019 1025 1049 l 1025 30 q 995 0 1025 0 l 786 0 q 756 30 756 0 l 756 420 l 373 420 l 373 30 m 446 1119 q 426 1113 436 1113 q 404 1125 414 1113 l 355 1189 q 348 1207 348 1197 q 361 1231 348 1221 l 529 1358 q 567 1370 544 1370 q 604 1358 588 1370 l 770 1231 q 783 1207 783 1221 q 776 1189 783 1198 l 728 1125 q 706 1113 718 1113 q 686 1119 696 1113 l 566 1206 l 446 1119 z "},"":{"ha":1130,"x_min":105,"x_max":1025,"o":"m 373 30 q 343 0 373 0 l 134 0 q 105 30 105 0 l 105 1019 q 134 1049 105 1049 l 343 1049 q 373 1019 373 1049 l 373 677 l 756 677 l 756 1019 q 786 1049 756 1049 l 995 1049 q 1025 1019 1025 1049 l 1025 30 q 995 0 1025 0 l 786 0 q 756 30 756 0 l 756 420 l 373 420 l 373 30 m 494 1152 q 464 1122 494 1122 l 321 1122 q 291 1152 291 1122 l 291 1305 q 321 1334 291 1334 l 464 1334 q 494 1305 494 1334 l 494 1152 m 846 1152 q 816 1122 846 1122 l 673 1122 q 643 1152 643 1122 l 643 1305 q 673 1334 643 1334 l 816 1334 q 846 1305 846 1334 l 846 1152 z "},"":{"ha":1130,"x_min":105,"x_max":1025,"o":"m 373 30 q 343 0 373 0 l 134 0 q 105 30 105 0 l 105 1019 q 134 1049 105 1049 l 343 1049 q 373 1019 373 1049 l 373 677 l 756 677 l 756 1019 q 786 1049 756 1049 l 995 1049 q 1025 1019 1025 1049 l 1025 30 q 995 0 1025 0 l 786 0 q 756 30 756 0 l 756 420 l 373 420 l 373 30 m 679 1152 q 649 1122 679 1122 l 489 1122 q 459 1152 459 1122 l 459 1293 q 489 1322 459 1322 l 649 1322 q 679 1293 679 1322 l 679 1152 z "},"":{"ha":1130,"x_min":105,"x_max":1025,"o":"m 373 30 q 343 0 373 0 l 134 0 q 105 30 105 0 l 105 1019 q 134 1049 105 1049 l 343 1049 q 373 1019 373 1049 l 373 677 l 756 677 l 756 1019 q 786 1049 756 1049 l 995 1049 q 1025 1019 1025 1049 l 1025 30 q 995 0 1025 0 l 786 0 q 756 30 756 0 l 756 420 l 373 420 l 373 30 m 679 -235 q 649 -265 679 -265 l 489 -265 q 459 -235 459 -265 l 459 -95 q 489 -65 459 -65 l 649 -65 q 679 -95 679 -65 l 679 -235 z "},"":{"ha":1180,"x_min":105,"x_max":1096,"o":"m 373 30 q 343 0 373 0 l 134 0 q 105 30 105 0 l 105 1019 q 134 1049 105 1049 l 343 1049 q 373 1019 373 1049 l 373 30 m 747 -22 q 622 2 688 -22 q 495 70 556 26 q 483 91 483 79 q 491 113 483 100 l 601 270 q 623 283 609 283 q 643 276 633 283 q 745 236 703 236 q 806 261 784 236 q 827 338 827 286 l 827 1019 q 857 1049 827 1049 l 1066 1049 q 1096 1019 1096 1049 l 1096 319 q 1054 137 1096 214 q 933 19 1012 60 q 747 -22 854 -22 z "},"":{"ha":478,"x_min":105,"x_max":445,"o":"m 373 30 q 343 0 373 0 l 134 0 q 105 30 105 0 l 105 1019 q 134 1049 105 1049 l 343 1049 q 373 1019 373 1049 l 373 30 m 419 1307 q 438 1303 431 1307 q 445 1290 445 1298 q 435 1271 445 1281 l 299 1134 q 263 1118 284 1118 l 131 1118 q 112 1123 119 1118 q 105 1136 105 1128 q 112 1154 105 1145 l 208 1289 q 245 1307 222 1307 l 419 1307 z "},"":{"ha":478,"x_min":4,"x_max":454,"o":"m 373 30 q 343 0 373 0 l 134 0 q 105 30 105 0 l 105 1019 q 134 1049 105 1049 l 343 1049 q 373 1019 373 1049 l 373 30 m 229 1119 q 72 1166 128 1119 q 6 1292 16 1214 q 12 1314 4 1306 q 34 1322 19 1322 l 140 1322 q 161 1316 154 1322 q 172 1294 168 1309 q 229 1250 183 1250 q 287 1294 276 1250 q 298 1316 291 1309 q 319 1322 305 1322 l 424 1322 q 447 1316 439 1322 q 453 1299 454 1310 q 390 1168 446 1218 q 229 1119 334 1119 z "},"":{"ha":478,"x_min":12,"x_max":447,"o":"m 373 30 q 343 0 373 0 l 134 0 q 105 30 105 0 l 105 1019 q 134 1049 105 1049 l 343 1049 q 373 1019 373 1049 l 373 30 m 25 1252 q 12 1275 12 1263 q 19 1294 12 1286 l 68 1358 q 90 1370 78 1370 q 110 1364 100 1370 l 230 1277 l 350 1364 q 369 1370 360 1370 q 392 1357 382 1370 l 440 1294 q 447 1275 447 1285 q 434 1252 447 1262 l 268 1125 q 231 1113 252 1113 q 193 1125 208 1113 l 25 1252 z "},"":{"ha":478,"x_min":10,"x_max":444,"o":"m 373 30 q 343 0 373 0 l 134 0 q 105 30 105 0 l 105 1019 q 134 1049 105 1049 l 343 1049 q 373 1019 373 1049 l 373 30 m 108 1119 q 88 1113 98 1113 q 66 1125 75 1113 l 17 1189 q 10 1207 10 1197 q 23 1231 10 1221 l 190 1358 q 228 1370 206 1370 q 266 1358 250 1370 l 432 1231 q 444 1207 444 1221 q 438 1189 444 1198 l 390 1125 q 367 1113 380 1113 q 348 1119 358 1113 l 228 1206 l 108 1119 z "},"":{"ha":478,"x_min":-111,"x_max":479,"o":"m 373 30 q 343 0 373 0 l 134 0 q 105 30 105 0 l 105 1019 q 134 1049 105 1049 l 343 1049 q 373 1019 373 1049 l 373 30 m 187 1161 q 194 1142 194 1151 q 187 1128 194 1134 q 167 1123 180 1123 l 55 1123 q 17 1139 33 1123 l -100 1257 q -111 1278 -111 1269 q -103 1290 -111 1286 q -84 1295 -96 1295 l 67 1295 q 105 1275 90 1295 l 187 1161 m 473 1161 q 479 1142 479 1151 q 473 1128 479 1134 q 453 1123 466 1123 l 340 1123 q 302 1139 317 1123 l 185 1257 q 175 1277 175 1267 q 182 1290 175 1285 q 202 1295 189 1295 l 352 1295 q 390 1275 376 1295 l 473 1161 z "},"":{"ha":478,"x_min":-47,"x_max":508,"o":"m 373 30 q 343 0 373 0 l 134 0 q 105 30 105 0 l 105 1019 q 134 1049 105 1049 l 343 1049 q 373 1019 373 1049 l 373 30 m 156 1152 q 126 1122 156 1122 l -17 1122 q -47 1152 -47 1122 l -47 1305 q -17 1334 -47 1334 l 126 1334 q 156 1305 156 1334 l 156 1152 m 508 1152 q 478 1122 508 1122 l 335 1122 q 305 1152 305 1122 l 305 1305 q 335 1334 305 1334 l 478 1334 q 508 1305 508 1334 l 508 1152 z "},"":{"ha":478,"x_min":-47,"x_max":508,"o":"m 373 30 q 343 0 373 0 l 134 0 q 105 30 105 0 l 105 1019 q 134 1049 105 1049 l 343 1049 q 373 1019 373 1049 l 373 30 m 156 1152 q 126 1122 156 1122 l -17 1122 q -47 1152 -47 1122 l -47 1305 q -17 1334 -47 1334 l 126 1334 q 156 1305 156 1334 l 156 1152 m 508 1152 q 478 1122 508 1122 l 335 1122 q 305 1152 305 1122 l 305 1305 q 335 1334 305 1334 l 478 1334 q 508 1305 508 1334 l 508 1152 m 411 1582 q 430 1577 423 1582 q 438 1564 438 1572 q 427 1545 438 1555 l 292 1408 q 255 1392 277 1392 l 123 1392 q 105 1397 111 1392 q 98 1410 98 1402 q 105 1428 98 1419 l 201 1563 q 237 1582 214 1582 l 411 1582 z "},"":{"ha":478,"x_min":105,"x_max":373,"o":"m 373 30 q 343 0 373 0 l 134 0 q 105 30 105 0 l 105 1019 q 134 1049 105 1049 l 343 1049 q 373 1019 373 1049 l 373 30 m 341 1152 q 311 1122 341 1122 l 151 1122 q 121 1152 121 1122 l 121 1293 q 151 1322 121 1322 l 311 1322 q 341 1293 341 1322 l 341 1152 z "},"":{"ha":478,"x_min":105,"x_max":373,"o":"m 373 30 q 343 0 373 0 l 134 0 q 105 30 105 0 l 105 1019 q 134 1049 105 1049 l 343 1049 q 373 1019 373 1049 l 373 30 m 349 -235 q 320 -265 349 -265 l 160 -265 q 130 -235 130 -265 l 130 -95 q 160 -65 130 -65 l 320 -65 q 349 -95 349 -65 l 349 -235 z "},"":{"ha":478,"x_min":-7,"x_max":373,"o":"m 373 30 q 343 0 373 0 l 134 0 q 105 30 105 0 l 105 1019 q 134 1049 105 1049 l 343 1049 q 373 1019 373 1049 l 373 30 m 326 1154 q 333 1136 333 1145 q 326 1123 333 1128 q 308 1118 320 1118 l 175 1118 q 139 1134 154 1118 l 4 1271 q -7 1291 -7 1283 q 0 1303 -7 1299 q 19 1307 7 1307 l 193 1307 q 230 1289 217 1307 l 326 1154 z "},"":{"ha":478,"x_min":105,"x_max":373,"o":"m 373 30 q 343 0 373 0 l 134 0 q 105 30 105 0 l 105 1019 q 134 1049 105 1049 l 343 1049 q 373 1019 373 1049 l 373 30 m 287 1145 q 268 1129 277 1132 q 227 1127 258 1127 q 191 1147 191 1127 q 195 1162 191 1152 q 205 1201 205 1184 q 183 1225 205 1225 q 162 1222 173 1225 q 149 1219 155 1219 q 122 1249 129 1219 q 119 1269 119 1260 q 124 1283 119 1278 q 137 1294 128 1289 q 227 1317 183 1317 q 307 1299 276 1317 q 338 1249 338 1281 q 326 1203 338 1225 q 287 1145 314 1180 z "},"":{"ha":478,"x_min":4,"x_max":455,"o":"m 373 30 q 343 0 373 0 l 134 0 q 105 30 105 0 l 105 1019 q 134 1049 105 1049 l 343 1049 q 373 1019 373 1049 l 373 30 m 229 1325 q 387 1278 332 1325 q 453 1152 443 1231 q 447 1130 455 1138 q 424 1122 439 1122 l 319 1122 q 298 1128 305 1122 q 287 1150 291 1135 q 229 1194 276 1194 q 172 1150 183 1194 q 161 1128 168 1135 q 140 1122 154 1122 l 34 1122 q 12 1128 19 1122 q 5 1145 4 1134 q 69 1275 13 1225 q 229 1325 125 1325 z "},"":{"ha":478,"x_min":25,"x_max":452,"o":"m 373 30 q 343 0 373 0 l 134 0 q 105 30 105 0 l 105 1019 q 134 1049 105 1049 l 343 1049 q 373 1019 373 1049 l 373 30 m 452 1153 q 422 1123 452 1123 l 55 1123 q 25 1153 25 1123 l 25 1243 q 55 1272 25 1272 l 422 1272 q 452 1243 452 1272 l 452 1153 z "},"":{"ha":478,"x_min":105,"x_max":399,"o":"m 373 30 q 343 0 373 0 l 134 0 q 105 30 105 0 l 105 1019 q 134 1049 105 1049 l 343 1049 q 373 1019 373 1049 l 373 30 m 188 -16 q 225 0 202 0 l 302 0 l 343 0 q 301 -66 311 -43 q 290 -107 290 -89 q 304 -147 290 -131 q 341 -164 317 -164 q 355 -163 349 -164 q 363 -162 358 -162 q 389 -187 386 -162 l 395 -235 q 374 -272 399 -263 q 327 -283 352 -279 q 264 -286 302 -286 q 156 -254 190 -286 q 122 -174 122 -223 q 141 -90 122 -129 q 188 -16 159 -52 z "},"":{"ha":478,"x_min":-13,"x_max":453,"o":"m 373 30 q 343 0 373 0 l 134 0 q 105 30 105 0 l 105 1019 q 134 1049 105 1049 l 343 1049 q 373 1019 373 1049 l 373 30 m 93 1140 q 68 1126 81 1126 q 52 1131 61 1126 l 3 1157 q -13 1182 -13 1166 q -10 1198 -13 1191 q 57 1290 21 1263 q 134 1316 93 1316 q 190 1309 164 1316 q 251 1287 216 1302 q 286 1274 273 1278 q 312 1269 300 1269 q 347 1289 330 1269 q 372 1304 360 1304 q 388 1299 380 1304 l 437 1272 q 453 1247 453 1263 q 450 1231 453 1238 q 383 1139 419 1166 q 307 1113 346 1113 q 251 1120 276 1113 q 190 1142 225 1128 q 154 1155 168 1151 q 128 1160 140 1160 q 93 1140 112 1160 z "},"":{"ha":478,"x_min":1,"x_max":468,"o":"m 373 30 q 343 0 373 0 l 134 0 q 105 30 105 0 l 105 1019 q 134 1049 105 1049 l 343 1049 q 373 1019 373 1049 l 373 30 m 108 -230 q 83 -244 96 -244 q 67 -240 76 -244 l 18 -213 q 1 -188 1 -204 q 5 -172 1 -179 q 72 -81 36 -107 q 149 -55 108 -55 q 205 -62 179 -55 q 266 -83 231 -69 q 301 -96 287 -92 q 327 -101 315 -101 q 362 -81 345 -101 q 387 -66 375 -66 q 403 -72 395 -66 l 452 -99 q 468 -123 468 -108 q 464 -140 468 -132 q 398 -231 434 -205 q 322 -257 361 -257 q 265 -250 291 -257 q 205 -228 240 -243 q 169 -215 183 -220 q 143 -211 155 -211 q 108 -230 127 -211 z "},"":{"ha":702,"x_min":5,"x_max":696,"o":"m 270 -22 q 144 2 210 -22 q 17 70 78 26 q 5 91 5 79 q 13 113 5 100 l 123 270 q 145 283 131 283 q 165 276 155 283 q 267 236 225 236 q 328 261 306 236 q 349 338 349 286 l 349 1019 q 379 1049 349 1049 l 588 1049 q 618 1019 618 1049 l 618 319 q 576 137 618 214 q 455 19 534 60 q 270 -22 376 -22 m 359 1119 q 340 1113 349 1113 q 317 1125 327 1113 l 269 1189 q 261 1207 261 1197 q 275 1231 261 1221 l 442 1358 q 480 1370 458 1370 q 517 1358 502 1370 l 683 1231 q 696 1207 696 1221 q 689 1189 696 1198 l 641 1125 q 619 1113 632 1113 q 600 1119 609 1113 l 479 1206 l 359 1119 z "},"":{"ha":1079,"x_min":105,"x_max":1053,"o":"m 1047 36 q 1053 18 1053 27 q 1046 5 1053 10 q 1027 0 1039 0 l 774 0 q 738 19 750 0 l 488 408 l 373 273 l 373 30 q 343 0 373 0 l 134 0 q 105 30 105 0 l 105 1019 q 134 1049 105 1049 l 343 1049 q 373 1019 373 1049 l 373 638 l 691 1032 q 727 1049 705 1049 l 985 1049 q 1004 1045 997 1049 q 1010 1032 1010 1040 q 1001 1013 1010 1023 l 662 613 l 1047 36 m 727 1307 q 746 1303 739 1307 q 753 1290 753 1298 q 743 1271 753 1281 l 608 1134 q 571 1118 593 1118 l 439 1118 q 420 1123 427 1118 q 414 1136 414 1128 q 420 1154 414 1145 l 517 1289 q 553 1307 530 1307 l 727 1307 z "},"":{"ha":1079,"x_min":105,"x_max":1053,"o":"m 1047 36 q 1053 18 1053 27 q 1046 5 1053 10 q 1027 0 1039 0 l 774 0 q 738 19 750 0 l 488 408 l 373 273 l 373 30 q 343 0 373 0 l 134 0 q 105 30 105 0 l 105 1019 q 134 1049 105 1049 l 343 1049 q 373 1019 373 1049 l 373 638 l 691 1032 q 727 1049 705 1049 l 985 1049 q 1004 1045 997 1049 q 1010 1032 1010 1040 q 1001 1013 1010 1023 l 662 613 l 1047 36 m 334 1252 q 320 1275 320 1263 q 328 1294 320 1286 l 376 1358 q 399 1370 386 1370 q 418 1364 408 1370 l 538 1277 l 659 1364 q 677 1370 668 1370 q 700 1357 690 1370 l 748 1294 q 755 1275 755 1285 q 742 1252 755 1262 l 576 1125 q 539 1113 561 1113 q 501 1125 517 1113 l 334 1252 z "},"":{"ha":1079,"x_min":105,"x_max":1053,"o":"m 1047 36 q 1053 18 1053 27 q 1046 5 1053 10 q 1027 0 1039 0 l 774 0 q 738 19 750 0 l 488 408 l 373 273 l 373 30 q 343 0 373 0 l 134 0 q 105 30 105 0 l 105 1019 q 134 1049 105 1049 l 343 1049 q 373 1019 373 1049 l 373 638 l 691 1032 q 727 1049 705 1049 l 985 1049 q 1004 1045 997 1049 q 1010 1032 1010 1040 q 1001 1013 1010 1023 l 662 613 l 1047 36 m 546 -441 q 518 -453 533 -453 q 489 -439 503 -453 q 475 -412 475 -427 q 489 -382 475 -397 q 528 -331 516 -353 q 540 -290 540 -308 l 540 -284 l 486 -284 q 457 -274 467 -284 q 447 -244 447 -264 l 447 -141 q 457 -112 447 -122 q 486 -102 467 -102 l 604 -102 q 644 -141 644 -102 l 644 -247 q 617 -351 644 -302 q 546 -441 590 -399 z "},"":{"ha":1079,"x_min":105,"x_max":1053,"o":"m 1047 36 q 1053 18 1053 27 q 1046 5 1053 10 q 1027 0 1039 0 l 774 0 q 738 19 750 0 l 488 408 l 373 273 l 373 30 q 343 0 373 0 l 134 0 q 105 30 105 0 l 105 1019 q 134 1049 105 1049 l 343 1049 q 373 1019 373 1049 l 373 638 l 691 1032 q 727 1049 705 1049 l 985 1049 q 1004 1045 997 1049 q 1010 1032 1010 1040 q 1001 1013 1010 1023 l 662 613 l 1047 36 m 647 -235 q 617 -265 647 -265 l 457 -265 q 427 -235 427 -265 l 427 -95 q 457 -65 427 -65 l 617 -65 q 647 -95 647 -65 l 647 -235 z "},"":{"ha":1079,"x_min":105,"x_max":1053,"o":"m 1047 36 q 1053 18 1053 27 q 1046 5 1053 10 q 1027 0 1039 0 l 774 0 q 738 19 750 0 l 488 408 l 373 273 l 373 30 q 343 0 373 0 l 134 0 q 105 30 105 0 l 105 1019 q 134 1049 105 1049 l 343 1049 q 373 1019 373 1049 l 373 638 l 691 1032 q 727 1049 705 1049 l 985 1049 q 1004 1045 997 1049 q 1010 1032 1010 1040 q 1001 1013 1010 1023 l 662 613 l 1047 36 m 760 -208 q 730 -237 760 -237 l 363 -237 q 333 -208 333 -237 l 333 -118 q 363 -88 333 -88 l 730 -88 q 760 -118 760 -88 l 760 -208 z "},"":{"ha":1535,"x_min":105,"x_max":1452,"o":"m 808 30 q 778 0 808 0 l 134 0 q 105 30 105 0 l 105 1019 q 134 1049 105 1049 l 343 1049 q 373 1019 373 1049 l 373 257 l 778 257 q 808 227 808 257 l 808 30 m 1103 -22 q 977 2 1043 -22 q 851 70 912 26 q 839 91 839 79 q 846 113 839 100 l 957 270 q 978 283 965 283 q 998 276 989 283 q 1101 236 1058 236 q 1161 261 1139 236 q 1183 338 1183 286 l 1183 1019 q 1213 1049 1183 1049 l 1422 1049 q 1452 1019 1452 1049 l 1452 319 q 1409 137 1452 214 q 1288 19 1367 60 q 1103 -22 1210 -22 z "},"":{"ha":829,"x_min":105,"x_max":808,"o":"m 808 30 q 778 0 808 0 l 134 0 q 105 30 105 0 l 105 1019 q 134 1049 105 1049 l 343 1049 q 373 1019 373 1049 l 373 257 l 778 257 q 808 227 808 257 l 808 30 m 419 1307 q 438 1303 431 1307 q 445 1290 445 1298 q 435 1271 445 1281 l 299 1134 q 263 1118 284 1118 l 131 1118 q 112 1123 119 1118 q 105 1136 105 1128 q 112 1154 105 1145 l 208 1289 q 245 1307 222 1307 l 419 1307 z "},"":{"ha":829,"x_min":105,"x_max":808,"o":"m 808 30 q 778 0 808 0 l 134 0 q 105 30 105 0 l 105 1019 q 134 1049 105 1049 l 343 1049 q 373 1019 373 1049 l 373 257 l 778 257 q 808 227 808 257 l 808 30 m 749 783 q 718 753 747 753 l 621 753 q 599 761 607 753 q 591 783 591 768 l 576 1019 q 583 1041 576 1033 q 606 1049 591 1049 l 736 1049 q 758 1041 750 1049 q 764 1019 765 1033 l 749 783 z "},"":{"ha":829,"x_min":105,"x_max":808,"o":"m 808 30 q 778 0 808 0 l 134 0 q 105 30 105 0 l 105 1019 q 134 1049 105 1049 l 343 1049 q 373 1019 373 1049 l 373 257 l 778 257 q 808 227 808 257 l 808 30 m 251 -285 q 234 -290 242 -290 q 210 -273 219 -290 l 174 -211 q 169 -193 169 -202 q 184 -170 169 -178 l 345 -75 q 364 -68 355 -69 q 385 -66 373 -66 q 423 -76 406 -66 l 582 -170 q 597 -193 597 -178 q 592 -211 597 -202 l 556 -273 q 532 -290 547 -290 q 516 -285 523 -290 l 383 -216 l 251 -285 z "},"":{"ha":829,"x_min":105,"x_max":808,"o":"m 808 30 q 778 0 808 0 l 134 0 q 105 30 105 0 l 105 1019 q 134 1049 105 1049 l 343 1049 q 373 1019 373 1049 l 373 257 l 778 257 q 808 227 808 257 l 808 30 m 399 -441 q 372 -453 387 -453 q 343 -439 356 -453 q 329 -412 329 -427 q 343 -382 329 -397 q 382 -331 370 -353 q 394 -290 394 -308 l 394 -284 l 340 -284 q 310 -274 320 -284 q 300 -244 300 -264 l 300 -141 q 310 -112 300 -122 q 340 -102 320 -102 l 458 -102 q 498 -141 498 -102 l 498 -247 q 471 -351 498 -302 q 399 -441 444 -399 z "},"":{"ha":1125,"x_min":105,"x_max":1086,"o":"m 808 30 q 778 0 808 0 l 134 0 q 105 30 105 0 l 105 1019 q 134 1049 105 1049 l 343 1049 q 373 1019 373 1049 l 373 257 l 778 257 q 808 227 808 257 l 808 30 m 1086 261 q 1063 237 1086 237 l 892 237 q 869 261 869 237 l 869 413 q 892 435 869 435 l 1063 435 q 1086 413 1086 435 l 1086 261 z "},"":{"ha":829,"x_min":105,"x_max":808,"o":"m 808 30 q 778 0 808 0 l 134 0 q 105 30 105 0 l 105 1019 q 134 1049 105 1049 l 343 1049 q 373 1019 373 1049 l 373 257 l 778 257 q 808 227 808 257 l 808 30 m 500 -235 q 470 -265 500 -265 l 311 -265 q 281 -235 281 -265 l 281 -95 q 311 -65 281 -65 l 470 -65 q 500 -95 500 -65 l 500 -235 z "},"":{"ha":829,"x_min":25,"x_max":808,"o":"m 808 30 q 778 0 808 0 l 134 0 q 105 30 105 0 l 105 1019 q 134 1049 105 1049 l 343 1049 q 373 1019 373 1049 l 373 257 l 778 257 q 808 227 808 257 l 808 30 m 500 -235 q 470 -265 500 -265 l 311 -265 q 281 -235 281 -265 l 281 -95 q 311 -65 281 -65 l 470 -65 q 500 -95 500 -65 l 500 -235 m 452 1153 q 422 1123 452 1123 l 55 1123 q 25 1153 25 1123 l 25 1243 q 55 1272 25 1272 l 422 1272 q 452 1243 452 1272 l 452 1153 z "},"":{"ha":1290,"x_min":105,"x_max":1185,"o":"m 808 30 q 778 0 808 0 l 134 0 q 105 30 105 0 l 105 1019 q 134 1049 105 1049 l 343 1049 q 373 1019 373 1049 l 373 257 l 778 257 q 808 227 808 257 l 808 30 m 957 1007 q 927 1036 927 1007 l 927 1212 q 957 1242 927 1242 l 1155 1242 q 1185 1212 1185 1242 l 1185 1036 q 1155 1007 1185 1007 l 957 1007 m 843 -287 q 813 -257 813 -287 l 813 -87 q 830 -57 813 -57 q 907 -31 884 -57 q 930 53 930 -4 l 930 874 q 960 904 930 904 l 1152 904 q 1182 874 1182 904 l 1182 52 q 1095 -199 1182 -111 q 843 -287 1008 -287 z "},"":{"ha":829,"x_min":105,"x_max":808,"o":"m 808 30 q 778 0 808 0 l 134 0 q 105 30 105 0 l 105 1019 q 134 1049 105 1049 l 343 1049 q 373 1019 373 1049 l 373 257 l 778 257 q 808 227 808 257 l 808 30 m 614 -208 q 584 -237 614 -237 l 217 -237 q 187 -208 187 -237 l 187 -118 q 217 -88 187 -88 l 584 -88 q 614 -118 614 -88 l 614 -208 z "},"":{"ha":829,"x_min":-60,"x_max":808,"o":"m 778 257 q 808 227 808 257 l 808 30 q 778 0 808 0 l 134 0 q 105 30 105 0 l 105 390 l 13 347 q -3 343 6 343 q -28 361 -20 343 l -56 419 q -60 434 -60 428 q -42 458 -60 450 l 105 526 l 105 1019 q 134 1049 105 1049 l 343 1049 q 373 1019 373 1049 l 373 652 l 480 702 q 496 706 487 706 q 520 688 513 706 l 549 630 q 553 615 553 621 q 535 591 553 600 l 373 515 l 373 257 l 778 257 z "},"":{"ha":1357,"x_min":56,"x_max":1301,"o":"m 329 28 q 297 0 325 0 l 86 0 q 63 8 71 0 q 57 31 56 16 l 185 1022 q 195 1042 187 1035 q 217 1049 204 1049 l 464 1049 q 497 1024 491 1049 l 678 372 l 858 1024 q 891 1049 865 1049 l 1139 1049 q 1161 1042 1152 1049 q 1171 1022 1169 1035 l 1299 31 q 1293 7 1301 16 q 1271 -1 1286 -1 l 1059 -1 q 1027 28 1031 -1 l 965 618 l 803 25 q 771 0 797 0 l 588 0 q 556 25 562 0 l 394 618 l 329 28 m 864 1307 q 883 1303 876 1307 q 890 1290 890 1298 q 880 1271 890 1281 l 744 1134 q 708 1118 730 1118 l 576 1118 q 557 1123 564 1118 q 550 1136 550 1128 q 557 1154 550 1145 l 653 1289 q 690 1307 667 1307 l 864 1307 z "},"":{"ha":1357,"x_min":56,"x_max":1301,"o":"m 329 28 q 297 0 325 0 l 86 0 q 63 8 71 0 q 57 31 56 16 l 185 1022 q 195 1042 187 1035 q 217 1049 204 1049 l 464 1049 q 497 1024 491 1049 l 678 372 l 858 1024 q 891 1049 865 1049 l 1139 1049 q 1161 1042 1152 1049 q 1171 1022 1169 1035 l 1299 31 q 1293 7 1301 16 q 1271 -1 1286 -1 l 1059 -1 q 1027 28 1031 -1 l 965 618 l 803 25 q 771 0 797 0 l 588 0 q 556 25 562 0 l 394 618 l 329 28 m 786 1152 q 756 1122 786 1122 l 596 1122 q 566 1152 566 1122 l 566 1293 q 596 1322 566 1322 l 756 1322 q 786 1293 786 1322 l 786 1152 z "},"":{"ha":1357,"x_min":56,"x_max":1301,"o":"m 329 28 q 297 0 325 0 l 86 0 q 63 8 71 0 q 57 31 56 16 l 185 1022 q 195 1042 187 1035 q 217 1049 204 1049 l 464 1049 q 497 1024 491 1049 l 678 372 l 858 1024 q 891 1049 865 1049 l 1139 1049 q 1161 1042 1152 1049 q 1171 1022 1169 1035 l 1299 31 q 1293 7 1301 16 q 1271 -1 1286 -1 l 1059 -1 q 1027 28 1031 -1 l 965 618 l 803 25 q 771 0 797 0 l 588 0 q 556 25 562 0 l 394 618 l 329 28 m 785 -235 q 755 -265 785 -265 l 595 -265 q 565 -235 565 -265 l 565 -95 q 595 -65 565 -65 l 755 -65 q 785 -95 785 -65 l 785 -235 z "},"":{"ha":1826,"x_min":105,"x_max":1743,"o":"m 366 30 q 336 0 366 0 l 134 0 q 105 30 105 0 l 105 1019 q 134 1049 105 1049 l 365 1049 q 401 1030 389 1049 l 759 456 l 759 1019 q 789 1049 759 1049 l 990 1049 q 1020 1019 1020 1049 l 1020 30 q 990 0 1020 0 l 785 0 q 749 19 762 0 l 366 626 l 366 30 m 1394 -22 q 1269 2 1334 -22 q 1142 70 1203 26 q 1130 91 1130 79 q 1137 113 1130 100 l 1248 270 q 1269 283 1256 283 q 1290 276 1280 283 q 1392 236 1349 236 q 1452 261 1431 236 q 1474 338 1474 286 l 1474 1019 q 1504 1049 1474 1049 l 1713 1049 q 1743 1019 1743 1049 l 1743 319 q 1701 137 1743 214 q 1580 19 1658 60 q 1394 -22 1501 -22 z "},"":{"ha":1125,"x_min":105,"x_max":1020,"o":"m 366 30 q 336 0 366 0 l 134 0 q 105 30 105 0 l 105 1019 q 134 1049 105 1049 l 365 1049 q 401 1030 389 1049 l 759 456 l 759 1019 q 789 1049 759 1049 l 990 1049 q 1020 1019 1020 1049 l 1020 30 q 990 0 1020 0 l 785 0 q 749 19 762 0 l 366 626 l 366 30 m 750 1307 q 769 1303 762 1307 q 776 1290 776 1298 q 765 1271 776 1281 l 630 1134 q 594 1118 615 1118 l 461 1118 q 443 1123 450 1118 q 436 1136 436 1128 q 443 1154 436 1145 l 539 1289 q 576 1307 553 1307 l 750 1307 z "},"":{"ha":1125,"x_min":105,"x_max":1020,"o":"m 366 30 q 336 0 366 0 l 134 0 q 105 30 105 0 l 105 1019 q 134 1049 105 1049 l 365 1049 q 401 1030 389 1049 l 759 456 l 759 1019 q 789 1049 759 1049 l 990 1049 q 1020 1019 1020 1049 l 1020 30 q 990 0 1020 0 l 785 0 q 749 19 762 0 l 366 626 l 366 30 m 356 1252 q 343 1275 343 1263 q 350 1294 343 1286 l 399 1358 q 421 1370 408 1370 q 441 1364 431 1370 l 561 1277 l 681 1364 q 700 1370 691 1370 q 723 1357 712 1370 l 771 1294 q 777 1275 777 1285 q 765 1252 777 1262 l 599 1125 q 562 1113 583 1113 q 523 1125 539 1113 l 356 1252 z "},"":{"ha":1125,"x_min":105,"x_max":1020,"o":"m 366 30 q 336 0 366 0 l 134 0 q 105 30 105 0 l 105 1019 q 134 1049 105 1049 l 365 1049 q 401 1030 389 1049 l 759 456 l 759 1019 q 789 1049 759 1049 l 990 1049 q 1020 1019 1020 1049 l 1020 30 q 990 0 1020 0 l 785 0 q 749 19 762 0 l 366 626 l 366 30 m 422 -285 q 405 -290 413 -290 q 381 -273 390 -290 l 345 -211 q 340 -193 340 -202 q 355 -170 340 -178 l 516 -75 q 535 -68 526 -69 q 556 -66 544 -66 q 594 -76 577 -66 l 753 -170 q 768 -193 768 -178 q 763 -211 768 -202 l 727 -273 q 703 -290 718 -290 q 687 -285 694 -290 l 554 -216 l 422 -285 z "},"":{"ha":1125,"x_min":105,"x_max":1020,"o":"m 366 30 q 336 0 366 0 l 134 0 q 105 30 105 0 l 105 1019 q 134 1049 105 1049 l 365 1049 q 401 1030 389 1049 l 759 456 l 759 1019 q 789 1049 759 1049 l 990 1049 q 1020 1019 1020 1049 l 1020 30 q 990 0 1020 0 l 785 0 q 749 19 762 0 l 366 626 l 366 30 m 570 -441 q 543 -453 558 -453 q 514 -439 527 -453 q 500 -412 500 -427 q 514 -382 500 -397 q 553 -331 541 -353 q 565 -290 565 -308 l 565 -284 l 511 -284 q 481 -274 491 -284 q 471 -244 471 -264 l 471 -141 q 481 -112 471 -122 q 511 -102 491 -102 l 629 -102 q 669 -141 669 -102 l 669 -247 q 642 -351 669 -302 q 570 -441 615 -399 z "}}}
